{"glyphs":{"0":{"ha":638,"x_min":35,"x_max":603,"o":"m 318 -11 q 105 117 175 -11 q 35 486 35 246 q 105 855 35 726 q 318 983 175 983 q 532 854 461 983 q 603 486 603 725 q 532 118 603 247 q 318 -11 461 -11 m 318 151 q 360 178 344 151 q 383 276 375 204 q 390 486 390 349 q 383 696 390 624 q 360 794 375 768 q 318 821 344 821 q 276 794 292 821 q 253 696 261 768 q 246 486 246 624 q 253 276 246 349 q 276 178 261 204 q 318 151 292 151 z "},"1":{"ha":638,"x_min":38,"x_max":596,"o":"m 83 0 q 51 17 61 0 q 42 69 42 33 l 42 93 q 51 146 42 129 q 83 163 61 163 l 232 163 l 232 786 l 82 765 q 48 803 58 765 q 38 882 38 842 q 74 921 38 914 l 381 978 q 418 967 399 978 q 438 944 438 957 l 438 163 l 554 163 q 586 146 576 163 q 596 93 596 129 l 596 69 q 586 17 596 33 q 554 0 576 0 l 83 0 z "},"2":{"ha":638,"x_min":21,"x_max":597,"o":"m 60 0 q 33 44 46 0 q 21 122 21 88 q 25 143 21 138 l 328 583 q 369 659 357 626 q 382 722 382 692 q 352 795 382 771 q 272 819 322 819 q 208 808 238 819 q 147 776 178 796 q 111 760 121 760 q 56 793 81 760 q 32 856 32 826 q 117 949 32 914 q 304 983 201 983 q 516 913 442 983 q 590 729 590 843 q 517 517 590 621 l 276 163 l 556 163 q 588 146 578 163 q 597 93 597 129 l 597 69 q 588 17 597 33 q 556 0 578 0 l 60 0 z "},"3":{"ha":638,"x_min":21,"x_max":590,"o":"m 300 -11 q 179 1 244 -11 q 67 38 114 13 q 21 103 21 63 q 32 142 21 117 q 58 188 43 168 q 89 208 74 208 q 119 194 96 208 q 183 163 151 175 q 254 151 214 151 q 347 187 313 151 q 382 286 382 222 q 346 392 382 357 q 229 428 310 428 l 181 428 q 149 444 158 428 q 139 497 139 461 l 139 522 q 149 575 139 558 q 181 592 158 592 l 217 592 q 315 623 279 592 q 350 707 350 654 q 324 790 350 760 q 247 819 297 819 q 188 810 211 819 q 146 789 165 801 q 119 776 126 776 q 74 815 99 776 q 50 882 50 853 q 122 957 50 931 q 297 983 194 983 q 488 917 417 983 q 558 740 558 851 q 524 616 558 669 q 429 538 489 563 l 429 532 q 550 436 510 501 q 590 283 590 371 q 510 68 590 147 q 300 -11 431 -11 z "},"4":{"ha":638,"x_min":6,"x_max":628,"o":"m 426 -3 q 343 42 343 -3 l 343 197 l 57 197 q 23 246 40 197 q 6 326 6 294 q 8 342 6 336 l 307 942 q 337 969 317 964 q 394 975 357 975 l 465 975 q 549 931 549 975 l 549 360 l 586 360 q 618 343 608 360 q 628 290 628 326 l 628 267 q 618 214 628 231 q 586 197 608 197 l 549 197 l 549 42 q 465 -3 549 -3 l 426 -3 m 342 360 l 342 494 q 356 685 342 579 l 350 686 l 197 360 l 342 360 z "},"5":{"ha":638,"x_min":29,"x_max":593,"o":"m 275 -11 q 99 18 169 -11 q 29 89 29 47 q 42 128 29 101 q 72 177 54 156 q 104 199 89 199 q 133 185 107 199 q 193 162 160 172 q 268 151 226 151 q 353 190 322 151 q 385 294 385 228 q 353 410 385 371 q 246 449 321 449 l 115 449 q 75 461 86 449 q 64 504 64 474 l 90 917 q 106 959 93 946 q 149 972 119 972 l 519 972 q 551 956 542 972 q 561 903 561 939 l 561 865 q 551 823 561 836 q 519 810 542 810 l 278 810 l 264 611 l 285 611 q 514 540 435 611 q 593 300 593 469 q 547 119 593 189 q 429 19 501 50 q 275 -11 357 -11 z "},"6":{"ha":638,"x_min":35,"x_max":610,"o":"m 322 -11 q 183 26 247 -11 q 76 144 118 63 q 35 351 35 225 q 129 728 35 589 q 329 923 224 868 q 471 978 435 978 q 508 956 493 978 q 532 907 524 935 q 540 863 540 879 q 537 843 540 849 q 522 833 533 838 q 359 733 424 801 q 268 563 294 664 q 381 594 322 594 q 483 565 431 594 q 573 470 536 536 q 610 300 610 404 q 569 124 610 193 q 463 22 528 54 q 322 -11 397 -11 m 325 151 q 389 192 363 151 q 415 294 415 232 q 388 394 415 357 q 314 432 361 432 q 246 411 281 432 q 244 335 244 386 q 325 151 244 151 z "},"7":{"ha":638,"x_min":42,"x_max":604,"o":"m 160 -3 q 81 24 81 -3 q 89 53 81 31 l 381 810 l 83 810 q 51 826 61 810 q 42 879 42 843 l 42 903 q 51 956 42 939 q 83 972 61 972 l 563 972 q 589 926 574 972 q 604 847 604 881 q 601 829 604 838 l 290 25 q 265 3 285 10 q 211 -3 244 -3 l 160 -3 z "},"8":{"ha":638,"x_min":38,"x_max":607,"o":"m 325 -11 q 109 70 181 -11 q 38 276 38 151 q 72 426 38 367 q 160 517 106 485 q 83 606 111 557 q 56 728 56 654 q 128 913 56 842 q 329 983 200 983 q 521 915 451 983 q 590 739 590 847 q 559 606 590 656 q 476 526 528 557 q 572 427 538 488 q 607 271 607 367 q 578 133 607 197 q 485 29 549 69 q 325 -11 422 -11 m 339 611 q 406 732 406 657 q 383 797 406 774 q 328 821 361 821 q 270 799 294 821 q 246 735 246 776 q 270 665 246 693 q 339 611 294 636 m 324 151 q 389 184 365 151 q 413 263 413 217 q 382 356 413 321 q 294 424 351 392 q 247 365 263 399 q 231 282 231 332 q 256 183 231 215 q 324 151 281 151 z "},"9":{"ha":638,"x_min":28,"x_max":603,"o":"m 167 -10 q 129 12 144 -10 q 106 61 114 33 q 97 106 97 89 q 101 126 97 121 q 115 135 104 132 q 278 235 213 167 q 369 407 343 304 q 256 374 317 374 q 153 403 206 374 q 65 498 101 432 q 28 668 28 564 q 69 844 28 775 q 175 947 110 914 q 314 979 240 979 q 454 942 389 979 q 561 824 519 906 q 603 617 603 743 q 508 240 603 379 q 308 45 414 100 q 167 -10 203 -10 m 324 536 q 392 557 354 536 q 393 633 393 582 q 371 774 393 731 q 313 817 349 817 q 249 776 275 817 q 222 672 222 736 q 249 573 222 610 q 324 536 276 536 z "},"\u0000":{"ha":0,"x_min":0,"x_max":0,"o":""},"\r":{"ha":190,"x_min":0,"x_max":0,"o":""}," ":{"ha":190,"x_min":0,"x_max":0,"o":""},"A":{"ha":701,"x_min":3,"x_max":699,"o":"m 69 -3 q 3 28 3 -3 q 7 53 3 39 l 221 936 q 306 975 231 975 l 396 975 q 482 936 472 975 l 696 53 q 699 28 699 33 q 639 -3 699 -3 l 565 -3 q 492 26 499 -3 l 456 196 l 244 196 l 207 26 q 142 -3 201 -3 l 69 -3 m 432 365 l 369 660 q 353 765 360 710 l 346 765 q 329 660 339 710 l 268 365 l 432 365 z "},"Á":{"ha":701,"x_min":3,"x_max":699,"o":"m 69 -3 q 3 28 3 -3 q 7 53 3 39 l 221 936 q 306 975 231 975 l 396 975 q 482 936 472 975 l 696 53 q 699 28 699 33 q 639 -3 699 -3 l 565 -3 q 492 26 499 -3 l 456 196 l 244 196 l 207 26 q 142 -3 201 -3 l 69 -3 m 432 365 l 369 660 q 353 765 360 710 l 346 765 q 329 660 339 710 l 268 365 l 432 365 m 322 1044 q 290 1049 299 1044 q 282 1065 282 1054 q 291 1093 282 1074 q 317 1143 300 1113 l 360 1228 q 469 1265 379 1265 q 526 1261 508 1265 q 544 1246 544 1257 q 535 1224 544 1238 q 500 1179 525 1210 q 469 1139 488 1163 q 422 1079 450 1115 q 389 1053 410 1063 q 322 1044 368 1044 z "},"Ă":{"ha":701,"x_min":3,"x_max":699,"o":"m 69 -3 q 3 28 3 -3 q 7 53 3 39 l 221 936 q 306 975 231 975 l 396 975 q 482 936 472 975 l 696 53 q 699 28 699 33 q 639 -3 699 -3 l 565 -3 q 492 26 499 -3 l 456 196 l 244 196 l 207 26 q 142 -3 201 -3 l 69 -3 m 432 365 l 369 660 q 353 765 360 710 l 346 765 q 329 660 339 710 l 268 365 l 432 365 m 350 1044 q 216 1089 263 1044 q 169 1192 169 1133 q 225 1239 169 1239 q 267 1214 256 1239 q 275 1199 268 1211 q 301 1178 282 1186 q 351 1171 319 1171 q 410 1182 393 1171 q 431 1203 426 1193 q 438 1217 436 1214 q 452 1233 442 1226 q 476 1239 463 1239 q 532 1192 532 1239 q 513 1122 532 1156 q 452 1067 493 1089 q 350 1044 411 1044 z "},"Ắ":{"ha":682,"x_min":3,"x_max":699,"o":"m 314 1200 q 291 1205 297 1200 q 285 1221 285 1210 q 304 1279 285 1231 l 333 1356 q 438 1393 353 1393 q 480 1386 467 1393 q 493 1360 493 1379 q 476 1326 493 1350 q 390 1221 458 1303 q 364 1206 381 1211 q 314 1200 347 1200 m 340 1044 q 244 1064 285 1044 q 181 1113 203 1083 q 160 1174 160 1143 q 217 1222 160 1222 q 257 1197 244 1222 q 265 1181 258 1194 q 291 1158 272 1167 q 342 1150 310 1150 q 400 1162 383 1150 q 422 1185 417 1174 q 429 1200 428 1196 q 467 1222 439 1222 q 522 1175 522 1222 q 501 1114 522 1144 q 438 1064 479 1083 q 340 1044 397 1044 m 69 -3 q 3 28 3 -3 q 7 53 3 39 l 221 936 q 306 975 231 975 l 396 975 q 482 936 472 975 l 696 53 q 699 28 699 33 q 639 -3 699 -3 l 565 -3 q 492 26 499 -3 l 456 196 l 244 196 l 207 26 q 142 -3 201 -3 l 69 -3 m 432 365 l 369 660 q 353 765 360 710 l 346 765 q 329 660 339 710 l 268 365 l 432 365 z "},"Ặ":{"ha":701,"x_min":3,"x_max":699,"o":"m 69 -3 q 3 28 3 -3 q 7 53 3 39 l 221 936 q 306 975 231 975 l 396 975 q 482 936 472 975 l 696 53 q 699 28 699 33 q 639 -3 699 -3 l 565 -3 q 492 26 499 -3 l 456 196 l 244 196 l 207 26 q 142 -3 201 -3 l 69 -3 m 432 365 l 369 660 q 353 765 360 710 l 346 765 q 329 660 339 710 l 268 365 l 432 365 m 358 -283 q 261 -239 261 -283 l 261 -156 q 354 -111 261 -111 q 451 -156 451 -111 l 451 -239 q 358 -283 451 -283 m 350 1044 q 216 1089 263 1044 q 169 1192 169 1133 q 225 1239 169 1239 q 267 1214 256 1239 q 275 1199 268 1211 q 301 1178 282 1186 q 351 1171 319 1171 q 410 1182 393 1171 q 431 1203 426 1193 q 438 1217 436 1214 q 452 1233 442 1226 q 476 1239 463 1239 q 532 1192 532 1239 q 513 1122 532 1156 q 452 1067 493 1089 q 350 1044 411 1044 z "},"Ằ":{"ha":682,"x_min":3,"x_max":699,"o":"m 365 1200 q 313 1207 331 1200 q 285 1226 296 1214 l 258 1260 q 196 1339 208 1322 q 183 1365 183 1356 q 198 1387 183 1381 q 243 1393 213 1393 q 353 1356 335 1393 q 388 1264 376 1297 q 400 1221 400 1231 q 392 1205 400 1210 q 365 1200 385 1200 m 340 1044 q 244 1064 285 1044 q 181 1113 203 1083 q 160 1174 160 1143 q 217 1222 160 1222 q 257 1197 244 1222 q 265 1181 258 1194 q 291 1158 272 1167 q 342 1150 310 1150 q 400 1162 383 1150 q 422 1185 417 1174 q 429 1200 428 1196 q 467 1222 439 1222 q 522 1175 522 1222 q 501 1114 522 1144 q 438 1064 479 1083 q 340 1044 397 1044 m 69 -3 q 3 28 3 -3 q 7 53 3 39 l 221 936 q 306 975 231 975 l 396 975 q 482 936 472 975 l 696 53 q 699 28 699 33 q 639 -3 699 -3 l 565 -3 q 492 26 499 -3 l 456 196 l 244 196 l 207 26 q 142 -3 201 -3 l 69 -3 m 432 365 l 369 660 q 353 765 360 710 l 346 765 q 329 660 339 710 l 268 365 l 432 365 z "},"Ẳ":{"ha":682,"x_min":3,"x_max":699,"o":"m 347 1211 q 303 1219 319 1211 q 286 1240 286 1228 q 294 1251 286 1244 q 313 1263 303 1257 q 347 1281 338 1274 q 356 1301 356 1289 q 347 1319 356 1313 q 326 1325 338 1325 q 276 1313 296 1325 q 253 1301 257 1301 q 228 1323 244 1301 q 211 1360 211 1344 q 248 1386 211 1374 q 322 1399 285 1399 q 417 1374 382 1399 q 451 1307 451 1349 q 415 1242 451 1271 q 382 1221 401 1231 q 347 1211 363 1211 m 340 1044 q 244 1064 285 1044 q 181 1113 203 1083 q 160 1174 160 1143 q 217 1222 160 1222 q 257 1197 244 1222 q 265 1181 258 1194 q 291 1158 272 1167 q 342 1150 310 1150 q 400 1162 383 1150 q 422 1185 417 1174 q 429 1200 428 1196 q 467 1222 439 1222 q 522 1175 522 1222 q 501 1114 522 1144 q 438 1064 479 1083 q 340 1044 397 1044 m 69 -3 q 3 28 3 -3 q 7 53 3 39 l 221 936 q 306 975 231 975 l 396 975 q 482 936 472 975 l 696 53 q 699 28 699 33 q 639 -3 699 -3 l 565 -3 q 492 26 499 -3 l 456 196 l 244 196 l 207 26 q 142 -3 201 -3 l 69 -3 m 432 365 l 369 660 q 353 765 360 710 l 346 765 q 329 660 339 710 l 268 365 l 432 365 z "},"Ẵ":{"ha":682,"x_min":3,"x_max":699,"o":"m 178 1246 q 156 1260 163 1250 q 149 1282 149 1271 q 153 1304 149 1292 q 197 1373 167 1346 q 267 1400 226 1400 q 350 1378 292 1400 q 380 1367 358 1375 q 414 1360 401 1360 q 446 1382 431 1360 q 481 1406 463 1406 q 499 1403 488 1406 l 511 1399 q 540 1363 540 1389 q 536 1342 540 1358 q 491 1272 521 1300 q 422 1244 461 1244 q 339 1267 397 1244 q 309 1277 331 1269 q 275 1285 288 1285 q 243 1263 258 1285 q 208 1239 226 1239 q 192 1242 203 1239 l 178 1246 m 340 1017 q 244 1036 285 1017 q 181 1085 203 1056 q 160 1146 160 1115 q 217 1194 160 1194 q 257 1169 244 1194 q 265 1153 258 1167 q 291 1131 272 1139 q 342 1122 310 1122 q 400 1134 383 1122 q 422 1157 417 1146 q 429 1172 428 1168 q 467 1194 439 1194 q 522 1147 522 1194 q 501 1086 522 1117 q 438 1036 479 1056 q 340 1017 397 1017 m 69 -3 q 3 28 3 -3 q 7 53 3 39 l 221 936 q 306 975 231 975 l 396 975 q 482 936 472 975 l 696 53 q 699 28 699 33 q 639 -3 699 -3 l 565 -3 q 492 26 499 -3 l 456 196 l 244 196 l 207 26 q 142 -3 201 -3 l 69 -3 m 432 365 l 369 660 q 353 765 360 710 l 346 765 q 329 660 339 710 l 268 365 l 432 365 z "},"Â":{"ha":701,"x_min":3,"x_max":699,"o":"m 69 -3 q 3 28 3 -3 q 7 53 3 39 l 221 936 q 306 975 231 975 l 396 975 q 482 936 472 975 l 696 53 q 699 28 699 33 q 639 -3 699 -3 l 565 -3 q 492 26 499 -3 l 456 196 l 244 196 l 207 26 q 142 -3 201 -3 l 69 -3 m 432 365 l 369 660 q 353 765 360 710 l 346 765 q 329 660 339 710 l 268 365 l 432 365 m 207 1040 q 178 1054 178 1040 q 188 1078 178 1061 l 269 1217 q 299 1238 281 1233 q 349 1243 317 1243 l 351 1243 q 401 1238 383 1243 q 431 1217 419 1233 l 514 1078 q 524 1054 524 1061 q 496 1040 524 1040 l 457 1040 q 386 1065 400 1040 l 350 1129 l 314 1067 q 244 1040 297 1040 l 207 1040 z "},"Ấ":{"ha":682,"x_min":3,"x_max":699,"o":"m 486 1185 q 463 1190 469 1185 q 457 1206 457 1194 q 476 1264 457 1215 l 506 1340 q 610 1378 525 1378 q 652 1371 639 1378 q 665 1344 665 1364 q 648 1311 665 1335 q 563 1206 631 1288 q 536 1190 553 1196 q 486 1185 519 1185 m 206 1040 q 183 1043 189 1040 q 176 1054 176 1046 q 183 1075 176 1061 l 260 1217 q 288 1238 269 1233 q 339 1243 306 1243 l 342 1243 q 393 1238 375 1243 q 421 1217 411 1233 l 499 1075 q 506 1054 506 1061 q 478 1040 506 1040 l 439 1040 q 368 1065 383 1040 l 340 1129 l 313 1067 q 287 1045 304 1050 q 243 1040 269 1040 l 206 1040 m 69 -3 q 3 28 3 -3 q 7 53 3 39 l 221 936 q 306 975 231 975 l 396 975 q 482 936 472 975 l 696 53 q 699 28 699 33 q 639 -3 699 -3 l 565 -3 q 492 26 499 -3 l 456 196 l 244 196 l 207 26 q 142 -3 201 -3 l 69 -3 m 432 365 l 369 660 q 353 765 360 710 l 346 765 q 329 660 339 710 l 268 365 l 432 365 z "},"Ậ":{"ha":701,"x_min":3,"x_max":699,"o":"m 69 -3 q 3 28 3 -3 q 7 53 3 39 l 221 936 q 306 975 231 975 l 396 975 q 482 936 472 975 l 696 53 q 699 28 699 33 q 639 -3 699 -3 l 565 -3 q 492 26 499 -3 l 456 196 l 244 196 l 207 26 q 142 -3 201 -3 l 69 -3 m 432 365 l 369 660 q 353 765 360 710 l 346 765 q 329 660 339 710 l 268 365 l 432 365 m 358 -283 q 261 -239 261 -283 l 261 -156 q 354 -111 261 -111 q 451 -156 451 -111 l 451 -239 q 358 -283 451 -283 m 207 1040 q 178 1054 178 1040 q 188 1078 178 1061 l 269 1217 q 299 1238 281 1233 q 349 1243 317 1243 l 351 1243 q 401 1238 383 1243 q 431 1217 419 1233 l 514 1078 q 524 1054 524 1061 q 496 1040 524 1040 l 457 1040 q 386 1065 400 1040 l 350 1129 l 314 1067 q 244 1040 297 1040 l 207 1040 z "},"Ầ":{"ha":682,"x_min":3,"x_max":699,"o":"m 558 1185 q 506 1192 524 1185 q 478 1211 489 1199 l 451 1244 q 389 1324 401 1307 q 376 1350 376 1340 q 391 1372 376 1365 q 436 1378 406 1378 q 546 1340 528 1378 l 560 1301 q 593 1206 593 1218 q 585 1190 593 1194 q 558 1185 578 1185 m 206 1040 q 183 1043 189 1040 q 176 1054 176 1046 q 183 1075 176 1061 l 260 1217 q 288 1238 269 1233 q 339 1243 306 1243 l 342 1243 q 393 1238 375 1243 q 421 1217 411 1233 l 499 1075 q 506 1054 506 1061 q 478 1040 506 1040 l 439 1040 q 368 1065 383 1040 l 340 1129 l 313 1067 q 287 1045 304 1050 q 243 1040 269 1040 l 206 1040 m 69 -3 q 3 28 3 -3 q 7 53 3 39 l 221 936 q 306 975 231 975 l 396 975 q 482 936 472 975 l 696 53 q 699 28 699 33 q 639 -3 699 -3 l 565 -3 q 492 26 499 -3 l 456 196 l 244 196 l 207 26 q 142 -3 201 -3 l 69 -3 m 432 365 l 369 660 q 353 765 360 710 l 346 765 q 329 660 339 710 l 268 365 l 432 365 z "},"Ẩ":{"ha":682,"x_min":3,"x_max":699,"o":"m 519 1196 q 475 1204 492 1196 q 458 1225 458 1213 q 467 1235 458 1229 q 485 1247 475 1242 q 519 1266 510 1258 q 528 1286 528 1274 q 519 1303 528 1297 q 499 1310 510 1310 q 449 1298 468 1310 q 425 1286 429 1286 q 400 1308 417 1286 q 383 1344 383 1329 q 420 1371 383 1358 q 494 1383 457 1383 q 589 1358 554 1383 q 624 1292 624 1333 q 588 1226 624 1256 q 554 1206 574 1215 q 519 1196 535 1196 m 206 1040 q 183 1043 189 1040 q 176 1054 176 1046 q 183 1075 176 1061 l 260 1217 q 288 1238 269 1233 q 339 1243 306 1243 l 342 1243 q 393 1238 375 1243 q 421 1217 411 1233 l 499 1075 q 506 1054 506 1061 q 478 1040 506 1040 l 439 1040 q 368 1065 383 1040 l 340 1129 l 313 1067 q 287 1045 304 1050 q 243 1040 269 1040 l 206 1040 m 69 -3 q 3 28 3 -3 q 7 53 3 39 l 221 936 q 306 975 231 975 l 396 975 q 482 936 472 975 l 696 53 q 699 28 699 33 q 639 -3 699 -3 l 565 -3 q 492 26 499 -3 l 456 196 l 244 196 l 207 26 q 142 -3 201 -3 l 69 -3 m 432 365 l 369 660 q 353 765 360 710 l 346 765 q 329 660 339 710 l 268 365 l 432 365 z "},"Ẫ":{"ha":682,"x_min":3,"x_max":699,"o":"m 175 1240 q 153 1255 160 1244 q 146 1276 146 1265 q 151 1299 146 1286 q 195 1367 165 1340 q 265 1394 225 1394 q 347 1372 292 1394 q 377 1362 356 1369 q 411 1354 399 1354 q 443 1376 428 1354 q 478 1400 460 1400 q 496 1397 485 1400 l 508 1393 q 538 1357 538 1383 q 533 1336 538 1353 q 490 1267 519 1294 q 419 1239 460 1239 q 338 1261 396 1239 q 308 1272 331 1264 q 272 1279 286 1279 q 240 1257 256 1279 q 224 1239 231 1244 q 206 1233 217 1233 q 189 1236 200 1233 l 175 1240 m 206 1040 q 183 1043 189 1040 q 176 1054 176 1046 q 189 1083 176 1061 l 260 1186 q 288 1207 271 1201 q 340 1213 306 1213 l 343 1213 q 394 1207 376 1213 q 422 1186 411 1201 l 493 1083 q 502 1067 499 1075 q 506 1054 506 1060 q 478 1040 506 1040 l 439 1040 q 397 1046 410 1040 q 371 1065 383 1051 l 342 1121 l 311 1067 q 284 1046 297 1051 q 243 1040 271 1040 l 206 1040 m 69 -3 q 3 28 3 -3 q 7 53 3 39 l 221 936 q 306 975 231 975 l 396 975 q 482 936 472 975 l 696 53 q 699 28 699 33 q 639 -3 699 -3 l 565 -3 q 492 26 499 -3 l 456 196 l 244 196 l 207 26 q 142 -3 201 -3 l 69 -3 m 432 365 l 369 660 q 353 765 360 710 l 346 765 q 329 660 339 710 l 268 365 l 432 365 z "},"Ä":{"ha":701,"x_min":3,"x_max":699,"o":"m 69 -3 q 3 28 3 -3 q 7 53 3 39 l 221 936 q 306 975 231 975 l 396 975 q 482 936 472 975 l 696 53 q 699 28 699 33 q 639 -3 699 -3 l 565 -3 q 492 26 499 -3 l 456 196 l 244 196 l 207 26 q 142 -3 201 -3 l 69 -3 m 432 365 l 369 660 q 353 765 360 710 l 346 765 q 329 660 339 710 l 268 365 l 432 365 m 242 1049 q 161 1093 161 1049 l 161 1176 q 239 1221 161 1221 q 319 1176 319 1221 l 319 1093 q 242 1049 319 1049 m 467 1049 q 386 1093 386 1049 l 386 1176 q 464 1221 386 1221 q 544 1176 544 1221 l 544 1093 q 467 1049 544 1049 z "},"Ạ":{"ha":701,"x_min":3,"x_max":699,"o":"m 69 -3 q 3 28 3 -3 q 7 53 3 39 l 221 936 q 306 975 231 975 l 396 975 q 482 936 472 975 l 696 53 q 699 28 699 33 q 639 -3 699 -3 l 565 -3 q 492 26 499 -3 l 456 196 l 244 196 l 207 26 q 142 -3 201 -3 l 69 -3 m 432 365 l 369 660 q 353 765 360 710 l 346 765 q 329 660 339 710 l 268 365 l 432 365 m 358 -283 q 261 -239 261 -283 l 261 -156 q 354 -111 261 -111 q 451 -156 451 -111 l 451 -239 q 358 -283 451 -283 z "},"À":{"ha":701,"x_min":3,"x_max":699,"o":"m 69 -3 q 3 28 3 -3 q 7 53 3 39 l 221 936 q 306 975 231 975 l 396 975 q 482 936 472 975 l 696 53 q 699 28 699 33 q 639 -3 699 -3 l 565 -3 q 492 26 499 -3 l 456 196 l 244 196 l 207 26 q 142 -3 201 -3 l 69 -3 m 432 365 l 369 660 q 353 765 360 710 l 346 765 q 329 660 339 710 l 268 365 l 432 365 m 372 1044 q 306 1054 326 1044 q 274 1079 285 1064 l 203 1168 q 162 1221 174 1204 q 150 1246 150 1238 q 168 1261 150 1257 q 225 1265 186 1265 q 336 1228 315 1265 q 393 1117 374 1157 q 413 1065 413 1076 q 404 1049 413 1053 q 372 1044 396 1044 z "},"Ả":{"ha":701,"x_min":3,"x_max":699,"o":"m 69 -3 q 3 28 3 -3 q 7 53 3 39 l 221 936 q 306 975 231 975 l 396 975 q 482 936 472 975 l 696 53 q 699 28 699 33 q 639 -3 699 -3 l 565 -3 q 492 26 499 -3 l 456 196 l 244 196 l 207 26 q 142 -3 201 -3 l 69 -3 m 432 365 l 369 660 q 353 765 360 710 l 346 765 q 329 660 339 710 l 268 365 l 432 365 m 385 1038 q 335 1049 361 1038 q 310 1069 310 1061 q 346 1107 310 1081 q 388 1142 372 1126 q 403 1174 403 1158 q 390 1196 403 1188 q 358 1204 376 1204 q 323 1196 340 1204 q 300 1188 306 1188 q 275 1209 292 1188 q 258 1246 258 1231 q 296 1274 258 1260 q 369 1289 333 1289 q 483 1260 443 1289 q 524 1179 524 1231 q 496 1113 524 1146 q 433 1059 468 1081 q 385 1038 399 1038 z "},"Ā":{"ha":701,"x_min":3,"x_max":699,"o":"m 69 -3 q 3 28 3 -3 q 7 53 3 39 l 221 936 q 306 975 231 975 l 396 975 q 482 936 472 975 l 696 53 q 699 28 699 33 q 639 -3 699 -3 l 565 -3 q 492 26 499 -3 l 456 196 l 244 196 l 207 26 q 142 -3 201 -3 l 69 -3 m 432 365 l 369 660 q 353 765 360 710 l 346 765 q 329 660 339 710 l 268 365 l 432 365 m 218 1075 q 188 1088 197 1075 q 178 1131 178 1101 l 178 1151 q 188 1194 178 1181 q 218 1207 197 1207 l 483 1207 q 515 1194 506 1207 q 524 1151 524 1181 l 524 1131 q 515 1088 524 1101 q 483 1075 506 1075 l 218 1075 z "},"Ą":{"ha":701,"x_min":3,"x_max":699,"o":"m 651 -132 q 683 -141 674 -132 q 693 -174 693 -150 q 669 -217 693 -203 q 592 -233 635 -233 q 485 -192 513 -233 q 457 -103 457 -150 q 492 28 457 -36 l 456 196 l 244 196 l 207 26 q 142 -3 201 -3 l 69 -3 q 3 28 3 -3 q 7 53 3 39 l 221 936 q 306 975 231 975 l 396 975 q 482 936 472 975 l 696 53 q 699 28 699 33 q 639 -3 699 -3 l 565 -3 l 563 -3 q 550 -76 550 -43 q 618 -137 550 -137 q 638 -135 629 -137 q 651 -132 646 -132 m 432 365 l 369 660 q 353 765 360 710 l 346 765 q 329 660 339 710 l 268 365 l 432 365 z "},"Å":{"ha":701,"x_min":3,"x_max":699,"o":"m 69 -3 q 3 28 3 -3 q 7 53 3 39 l 221 936 q 306 975 231 975 l 396 975 q 482 936 472 975 l 696 53 q 699 28 699 33 q 639 -3 699 -3 l 565 -3 q 492 26 499 -3 l 456 196 l 244 196 l 207 26 q 142 -3 201 -3 l 69 -3 m 432 365 l 369 660 q 353 765 360 710 l 346 765 q 329 660 339 710 l 268 365 l 432 365 m 349 1010 q 249 1048 285 1010 q 213 1147 213 1086 q 249 1247 213 1208 q 349 1286 285 1286 q 449 1248 413 1286 q 486 1147 486 1210 q 449 1048 486 1086 q 349 1010 413 1010 m 350 1096 q 388 1109 374 1096 q 401 1146 401 1122 q 388 1183 401 1169 q 350 1197 374 1197 q 312 1183 325 1197 q 299 1146 299 1169 q 312 1109 299 1122 q 350 1096 325 1096 z "},"Ǻ":{"ha":701,"x_min":3,"x_max":699,"o":"m 324 1211 q 301 1216 307 1211 q 294 1232 294 1221 q 314 1290 294 1242 l 343 1367 q 447 1404 363 1404 q 490 1397 476 1404 q 503 1371 503 1390 q 485 1338 503 1361 q 400 1232 468 1314 q 374 1217 390 1222 q 324 1211 357 1211 m 696 53 q 699 28 699 33 q 639 -3 699 -3 l 565 -3 q 492 26 499 -3 l 456 196 l 244 196 l 207 26 q 142 -3 201 -3 l 69 -3 q 3 28 3 -3 q 7 53 3 39 l 221 936 q 240 961 225 953 q 213 1050 213 997 q 249 1150 213 1111 q 349 1189 285 1189 q 449 1151 413 1189 q 486 1050 486 1113 q 460 964 486 996 q 482 936 478 954 l 696 53 m 350 1100 q 312 1086 325 1100 q 299 1049 299 1072 q 312 1012 299 1025 q 350 999 325 999 q 388 1012 374 999 q 401 1049 401 1025 q 388 1086 401 1072 q 350 1100 374 1100 m 432 365 l 369 660 q 353 765 360 710 l 346 765 q 329 660 339 710 l 268 365 l 432 365 z "},"Ã":{"ha":701,"x_min":3,"x_max":699,"o":"m 69 -3 q 3 28 3 -3 q 7 53 3 39 l 221 936 q 306 975 231 975 l 396 975 q 482 936 472 975 l 696 53 q 699 28 699 33 q 639 -3 699 -3 l 565 -3 q 492 26 499 -3 l 456 196 l 244 196 l 207 26 q 142 -3 201 -3 l 69 -3 m 432 365 l 369 660 q 353 765 360 710 l 346 765 q 329 660 339 710 l 268 365 l 432 365 m 156 1056 q 124 1092 124 1064 q 129 1114 124 1101 q 177 1183 144 1156 q 254 1210 210 1210 q 346 1188 282 1210 q 379 1177 356 1185 q 415 1169 403 1169 q 451 1192 433 1169 q 468 1210 460 1204 q 489 1215 476 1215 q 508 1213 494 1215 l 522 1208 q 554 1172 554 1199 q 550 1151 554 1168 q 501 1082 535 1110 q 424 1054 467 1054 q 333 1076 397 1054 q 300 1087 325 1079 q 263 1094 275 1094 q 228 1072 243 1094 q 209 1054 218 1060 q 189 1049 200 1049 q 171 1051 182 1049 l 156 1056 z "},"Æ":{"ha":1036,"x_min":4,"x_max":985,"o":"m 86 -3 q 4 28 4 -3 q 8 53 4 40 l 350 935 q 399 972 364 972 l 943 972 q 974 956 964 972 q 983 903 983 939 l 983 860 q 974 807 983 824 q 943 790 964 790 l 626 790 l 647 589 l 915 589 q 946 572 936 589 q 956 519 956 556 l 956 476 q 946 424 956 440 q 915 407 936 407 l 671 407 l 694 182 l 944 182 q 975 165 965 182 q 985 113 985 149 l 985 69 q 975 17 985 33 q 944 0 965 0 l 546 0 q 519 10 528 0 q 508 42 511 19 l 492 196 l 269 196 l 204 26 q 150 -3 194 -3 l 86 -3 m 326 379 l 475 379 l 453 631 l 453 731 l 447 731 l 415 632 l 326 379 z "},"Ǽ":{"ha":1036,"x_min":4,"x_max":985,"o":"m 86 -3 q 4 28 4 -3 q 8 53 4 40 l 350 935 q 399 972 364 972 l 943 972 q 974 956 964 972 q 983 903 983 939 l 983 860 q 974 807 983 824 q 943 790 964 790 l 626 790 l 647 589 l 915 589 q 946 572 936 589 q 956 519 956 556 l 956 476 q 946 424 956 440 q 915 407 936 407 l 671 407 l 694 182 l 944 182 q 975 165 965 182 q 985 113 985 149 l 985 69 q 975 17 985 33 q 944 0 965 0 l 546 0 q 519 10 528 0 q 508 42 511 19 l 492 196 l 269 196 l 204 26 q 150 -3 194 -3 l 86 -3 m 326 379 l 475 379 l 453 631 l 453 731 l 447 731 l 415 632 l 326 379 m 524 1044 q 492 1049 500 1044 q 483 1065 483 1054 q 492 1093 483 1074 q 518 1143 501 1113 l 561 1228 q 671 1265 581 1265 q 728 1261 710 1265 q 746 1246 746 1257 q 736 1224 746 1238 q 701 1179 726 1210 q 670 1139 689 1163 q 624 1079 651 1115 q 590 1053 611 1063 q 524 1044 569 1044 z "},"B":{"ha":749,"x_min":79,"x_max":699,"o":"m 131 0 q 92 13 104 0 q 79 56 79 26 l 79 918 q 92 959 79 946 q 131 972 104 972 l 379 972 q 671 738 671 972 q 546 508 671 582 l 547 503 q 658 422 618 482 q 699 274 699 363 q 619 75 699 150 q 383 0 539 0 l 131 0 m 381 576 q 447 605 425 576 q 468 694 468 633 q 448 780 468 754 q 383 806 428 806 l 285 806 l 285 576 l 381 576 m 390 168 q 466 197 442 168 q 490 293 490 226 q 467 384 490 357 q 390 411 443 411 l 285 411 l 285 168 l 390 168 z "},"C":{"ha":638,"x_min":51,"x_max":606,"o":"m 422 -11 q 140 109 228 -11 q 51 489 51 229 q 144 861 51 739 q 429 983 236 983 q 550 968 494 983 q 593 908 593 956 q 574 814 593 856 q 528 782 556 772 q 439 796 483 796 q 315 719 356 796 q 274 488 274 643 q 315 255 274 332 q 446 178 356 178 q 490 181 472 178 q 538 193 508 185 q 550 194 542 194 q 592 160 578 194 q 606 68 606 125 q 597 33 606 47 q 565 10 589 18 q 503 -5 542 1 q 422 -11 464 -11 z "},"Ć":{"ha":638,"x_min":51,"x_max":606,"o":"m 422 -11 q 140 109 228 -11 q 51 489 51 229 q 144 861 51 739 q 429 983 236 983 q 550 968 494 983 q 593 908 593 956 q 574 814 593 856 q 528 782 556 772 q 439 796 483 796 q 315 719 356 796 q 274 488 274 643 q 315 255 274 332 q 446 178 356 178 q 490 181 472 178 q 538 193 508 185 q 550 194 542 194 q 592 160 578 194 q 606 68 606 125 q 597 33 606 47 q 565 10 589 18 q 503 -5 542 1 q 422 -11 464 -11 m 383 1044 q 351 1049 360 1044 q 343 1065 343 1054 q 352 1093 343 1074 q 378 1143 361 1113 l 421 1228 q 531 1265 440 1265 q 588 1261 569 1265 q 606 1246 606 1257 q 596 1224 606 1238 q 561 1179 586 1210 q 530 1139 549 1163 q 483 1079 511 1115 q 450 1053 471 1063 q 383 1044 429 1044 z "},"Č":{"ha":638,"x_min":51,"x_max":606,"o":"m 422 -11 q 140 109 228 -11 q 51 489 51 229 q 144 861 51 739 q 429 983 236 983 q 550 968 494 983 q 593 908 593 956 q 574 814 593 856 q 528 782 556 772 q 439 796 483 796 q 315 719 356 796 q 274 488 274 643 q 315 255 274 332 q 446 178 356 178 q 490 181 472 178 q 538 193 508 185 q 550 194 542 194 q 592 160 578 194 q 606 68 606 125 q 597 33 606 47 q 565 10 589 18 q 503 -5 542 1 q 422 -11 464 -11 m 407 1040 q 358 1045 375 1040 q 331 1067 342 1050 l 249 1206 q 239 1229 239 1222 q 268 1243 239 1243 l 306 1243 q 375 1217 358 1243 l 411 1154 l 447 1218 q 518 1243 461 1243 l 557 1243 q 585 1229 585 1243 q 575 1206 585 1222 l 492 1067 q 463 1045 481 1050 q 415 1040 446 1040 l 407 1040 z "},"Ç":{"ha":638,"x_min":51,"x_max":606,"o":"m 538 193 q 550 194 542 194 q 592 160 578 194 q 606 68 606 125 q 597 33 606 47 q 565 10 589 18 q 467 -10 524 -4 l 450 -67 q 515 -99 490 -74 q 539 -169 539 -125 q 500 -262 539 -231 q 394 -294 461 -294 q 291 -273 335 -294 q 247 -222 247 -251 q 263 -181 247 -197 q 292 -164 279 -164 q 326 -176 304 -164 q 346 -185 329 -178 q 382 -193 363 -193 q 410 -171 410 -193 q 402 -153 410 -160 q 378 -140 394 -147 q 353 -127 361 -133 q 344 -110 344 -121 q 376 -10 344 -96 q 129 125 207 4 q 51 489 51 246 q 144 861 51 739 q 429 983 236 983 q 550 968 494 983 q 593 908 593 956 q 574 814 593 856 q 528 782 556 772 q 439 796 483 796 q 315 719 356 796 q 274 488 274 643 q 315 255 274 332 q 446 178 356 178 q 490 181 472 178 q 538 193 508 185 z "},"Ĉ":{"ha":638,"x_min":51,"x_max":606,"o":"m 422 -11 q 140 109 228 -11 q 51 489 51 229 q 144 861 51 739 q 429 983 236 983 q 550 968 494 983 q 593 908 593 956 q 574 814 593 856 q 528 782 556 772 q 439 796 483 796 q 315 719 356 796 q 274 488 274 643 q 315 255 274 332 q 446 178 356 178 q 490 181 472 178 q 538 193 508 185 q 550 194 542 194 q 592 160 578 194 q 606 68 606 125 q 597 33 606 47 q 565 10 589 18 q 503 -5 542 1 q 422 -11 464 -11 m 268 1040 q 239 1054 239 1040 q 249 1078 239 1061 l 331 1217 q 360 1238 342 1233 q 410 1243 378 1243 l 413 1243 q 463 1238 444 1243 q 492 1217 481 1233 l 575 1078 q 585 1054 585 1061 q 557 1040 585 1040 l 518 1040 q 447 1065 461 1040 l 411 1129 l 375 1067 q 306 1040 358 1040 l 268 1040 z "},"Ċ":{"ha":638,"x_min":51,"x_max":606,"o":"m 422 -11 q 140 109 228 -11 q 51 489 51 229 q 144 861 51 739 q 429 983 236 983 q 550 968 494 983 q 593 908 593 956 q 574 814 593 856 q 528 782 556 772 q 439 796 483 796 q 315 719 356 796 q 274 488 274 643 q 315 255 274 332 q 446 178 356 178 q 490 181 472 178 q 538 193 508 185 q 550 194 542 194 q 592 160 578 194 q 606 68 606 125 q 597 33 606 47 q 565 10 589 18 q 503 -5 542 1 q 422 -11 464 -11 m 415 1049 q 318 1093 318 1049 l 318 1176 q 411 1221 318 1221 q 508 1176 508 1221 l 508 1093 q 415 1049 508 1049 z "},"D":{"ha":801,"x_min":79,"x_max":746,"o":"m 131 0 q 92 13 104 0 q 79 56 79 26 l 79 917 q 92 959 79 946 q 131 972 104 972 l 394 972 q 660 851 575 972 q 746 486 746 731 q 660 121 746 242 q 394 0 575 0 l 131 0 m 388 182 q 493 251 461 182 q 525 486 525 319 q 493 722 525 653 q 388 790 461 790 l 299 790 l 299 182 l 388 182 z "},"Ǳ":{"ha":1506,"x_min":79,"x_max":1464,"o":"m 131 0 q 92 13 104 0 q 79 56 79 26 l 79 917 q 92 959 79 946 q 131 972 104 972 l 394 972 q 660 851 575 972 q 746 486 746 731 q 660 121 746 242 q 394 0 575 0 l 131 0 m 388 182 q 493 251 461 182 q 525 486 525 319 q 493 722 525 653 q 388 790 461 790 l 299 790 l 299 182 l 388 182 m 888 0 q 851 46 869 0 q 833 124 833 92 q 835 138 833 135 l 1188 790 l 903 790 q 873 807 882 790 q 864 860 864 824 l 864 903 q 873 956 864 939 q 903 972 882 972 l 1410 972 q 1444 924 1426 972 q 1461 844 1461 876 q 1463 838 1461 840 q 1463 833 1464 836 l 1111 182 l 1424 182 q 1454 165 1444 182 q 1464 113 1464 149 l 1464 69 q 1454 17 1464 33 q 1424 0 1444 0 l 888 0 z "},"Ǆ":{"ha":1506,"x_min":79,"x_max":1464,"o":"m 131 0 q 92 13 104 0 q 79 56 79 26 l 79 917 q 92 959 79 946 q 131 972 104 972 l 394 972 q 660 851 575 972 q 746 486 746 731 q 660 121 746 242 q 394 0 575 0 l 131 0 m 388 182 q 493 251 461 182 q 525 486 525 319 q 493 722 525 653 q 388 790 461 790 l 299 790 l 299 182 l 388 182 m 888 0 q 851 46 869 0 q 833 124 833 92 q 835 138 833 135 l 1188 790 l 903 790 q 873 807 882 790 q 864 860 864 824 l 864 903 q 873 956 864 939 q 903 972 882 972 l 1410 972 q 1444 924 1426 972 q 1461 844 1461 876 q 1463 838 1461 840 q 1463 833 1464 836 l 1111 182 l 1424 182 q 1454 165 1444 182 q 1464 113 1464 149 l 1464 69 q 1454 17 1464 33 q 1424 0 1444 0 l 888 0 m 1151 1040 q 1103 1045 1119 1040 q 1075 1067 1086 1050 l 993 1206 q 983 1229 983 1222 q 1013 1243 983 1243 l 1050 1243 q 1119 1217 1103 1243 l 1156 1154 l 1192 1218 q 1263 1243 1206 1243 l 1301 1243 q 1329 1229 1329 1243 q 1319 1206 1329 1222 l 1236 1067 q 1208 1045 1225 1050 q 1160 1040 1190 1040 l 1151 1040 z "},"Ð":{"ha":801,"x_min":10,"x_max":746,"o":"m 394 972 q 660 851 575 972 q 746 486 746 731 q 660 121 746 242 q 394 0 575 0 l 131 0 q 92 13 104 0 q 79 56 79 26 l 79 404 l 50 404 q 19 421 29 404 q 10 474 10 438 l 10 515 q 19 568 10 551 q 50 585 29 585 l 79 585 l 79 917 q 92 959 79 946 q 131 972 104 972 l 394 972 m 388 182 q 493 251 461 182 q 525 486 525 319 q 493 722 525 653 q 388 790 461 790 l 299 790 l 299 585 l 360 585 q 390 568 381 585 q 400 515 400 551 l 400 474 q 390 421 400 438 q 360 404 381 404 l 299 404 l 299 182 l 388 182 z "},"Ď":{"ha":801,"x_min":79,"x_max":746,"o":"m 131 0 q 92 13 104 0 q 79 56 79 26 l 79 917 q 92 959 79 946 q 131 972 104 972 l 394 972 q 660 851 575 972 q 746 486 746 731 q 660 121 746 242 q 394 0 575 0 l 131 0 m 388 182 q 493 251 461 182 q 525 486 525 319 q 493 722 525 653 q 388 790 461 790 l 299 790 l 299 182 l 388 182 m 386 1040 q 338 1045 354 1040 q 310 1067 321 1050 l 228 1206 q 218 1229 218 1222 q 247 1243 218 1243 l 285 1243 q 354 1217 338 1243 l 390 1154 l 426 1218 q 497 1243 440 1243 l 536 1243 q 564 1229 564 1243 q 554 1206 564 1222 l 471 1067 q 442 1045 460 1050 q 394 1040 425 1040 l 386 1040 z "},"Đ":{"ha":801,"x_min":10,"x_max":746,"o":"m 394 972 q 660 851 575 972 q 746 486 746 731 q 660 121 746 242 q 394 0 575 0 l 131 0 q 92 13 104 0 q 79 56 79 26 l 79 404 l 50 404 q 19 421 29 404 q 10 474 10 438 l 10 515 q 19 568 10 551 q 50 585 29 585 l 79 585 l 79 917 q 92 959 79 946 q 131 972 104 972 l 394 972 m 388 182 q 493 251 461 182 q 525 486 525 319 q 493 722 525 653 q 388 790 461 790 l 299 790 l 299 585 l 360 585 q 390 568 381 585 q 400 515 400 551 l 400 474 q 390 421 400 438 q 360 404 381 404 l 299 404 l 299 182 l 388 182 z "},"Ḍ":{"ha":801,"x_min":79,"x_max":746,"o":"m 131 0 q 92 13 104 0 q 79 56 79 26 l 79 917 q 92 959 79 946 q 131 972 104 972 l 394 972 q 660 851 575 972 q 746 486 746 731 q 660 121 746 242 q 394 0 575 0 l 131 0 m 388 182 q 493 251 461 182 q 525 486 525 319 q 493 722 525 653 q 388 790 461 790 l 299 790 l 299 182 l 388 182 m 388 -283 q 290 -239 290 -283 l 290 -156 q 383 -111 290 -111 q 481 -156 481 -111 l 481 -239 q 388 -283 481 -283 z "},"ǲ":{"ha":1364,"x_min":79,"x_max":1331,"o":"m 131 0 q 92 13 104 0 q 79 56 79 26 l 79 917 q 92 959 79 946 q 131 972 104 972 l 394 972 q 660 851 575 972 q 746 486 746 731 q 660 121 746 242 q 394 0 575 0 l 131 0 m 388 182 q 493 251 461 182 q 525 486 525 319 q 493 722 525 653 q 388 790 461 790 l 299 790 l 299 182 l 388 182 m 872 0 q 847 38 860 0 q 835 106 835 76 q 838 125 835 117 l 1074 564 l 890 564 q 860 581 869 564 q 850 633 850 597 l 850 657 q 860 710 850 693 q 890 726 869 726 l 1286 726 q 1310 688 1296 726 q 1324 619 1324 649 q 1319 599 1324 607 l 1083 163 l 1290 163 q 1321 146 1311 163 q 1331 93 1331 129 l 1331 69 q 1321 17 1331 33 q 1290 0 1311 0 l 872 0 z "},"ǅ":{"ha":1364,"x_min":79,"x_max":1331,"o":"m 131 0 q 92 13 104 0 q 79 56 79 26 l 79 917 q 92 959 79 946 q 131 972 104 972 l 394 972 q 660 851 575 972 q 746 486 746 731 q 660 121 746 242 q 394 0 575 0 l 131 0 m 388 182 q 493 251 461 182 q 525 486 525 319 q 493 722 525 653 q 388 790 461 790 l 299 790 l 299 182 l 388 182 m 872 0 q 847 38 860 0 q 835 106 835 76 q 838 125 835 117 l 1074 564 l 890 564 q 860 581 869 564 q 850 633 850 597 l 850 657 q 860 710 850 693 q 890 726 869 726 l 1286 726 q 1310 688 1296 726 q 1324 619 1324 649 q 1319 599 1324 607 l 1083 163 l 1290 163 q 1321 146 1311 163 q 1331 93 1331 129 l 1331 69 q 1321 17 1331 33 q 1290 0 1311 0 l 872 0 m 1054 794 q 1006 799 1022 794 q 978 821 989 804 l 896 960 q 886 983 886 976 q 915 997 886 997 l 953 997 q 1022 971 1006 997 l 1058 908 l 1094 972 q 1165 997 1108 997 l 1204 997 q 1232 983 1232 997 q 1222 960 1232 976 l 1139 821 q 1110 799 1128 804 q 1063 794 1093 794 l 1054 794 z "},"E":{"ha":635,"x_min":79,"x_max":581,"o":"m 131 0 q 92 13 104 0 q 79 56 79 26 l 79 917 q 92 959 79 946 q 131 972 104 972 l 540 972 q 571 956 561 972 q 581 903 581 939 l 581 860 q 571 807 581 824 q 540 790 561 790 l 296 790 l 296 589 l 513 589 q 543 572 533 589 q 553 519 553 556 l 553 476 q 543 424 553 440 q 513 407 533 407 l 296 407 l 296 182 l 542 182 q 572 165 563 182 q 581 113 581 149 l 581 69 q 572 17 581 33 q 542 0 563 0 l 131 0 z "},"É":{"ha":635,"x_min":79,"x_max":581,"o":"m 131 0 q 92 13 104 0 q 79 56 79 26 l 79 917 q 92 959 79 946 q 131 972 104 972 l 540 972 q 571 956 561 972 q 581 903 581 939 l 581 860 q 571 807 581 824 q 540 790 561 790 l 296 790 l 296 589 l 513 589 q 543 572 533 589 q 553 519 553 556 l 553 476 q 543 424 553 440 q 513 407 533 407 l 296 407 l 296 182 l 542 182 q 572 165 563 182 q 581 113 581 149 l 581 69 q 572 17 581 33 q 542 0 563 0 l 131 0 m 315 1044 q 283 1049 292 1044 q 275 1065 275 1054 q 284 1093 275 1074 q 310 1143 293 1113 l 353 1228 q 463 1265 372 1265 q 519 1261 501 1265 q 538 1246 538 1257 q 528 1224 538 1238 q 493 1179 518 1210 q 462 1139 481 1163 q 415 1079 443 1115 q 382 1053 403 1063 q 315 1044 361 1044 z "},"Ĕ":{"ha":635,"x_min":79,"x_max":581,"o":"m 131 0 q 92 13 104 0 q 79 56 79 26 l 79 917 q 92 959 79 946 q 131 972 104 972 l 540 972 q 571 956 561 972 q 581 903 581 939 l 581 860 q 571 807 581 824 q 540 790 561 790 l 296 790 l 296 589 l 513 589 q 543 572 533 589 q 553 519 553 556 l 553 476 q 543 424 553 440 q 513 407 533 407 l 296 407 l 296 182 l 542 182 q 572 165 563 182 q 581 113 581 149 l 581 69 q 572 17 581 33 q 542 0 563 0 l 131 0 m 343 1044 q 209 1089 256 1044 q 163 1192 163 1133 q 218 1239 163 1239 q 260 1214 249 1239 q 268 1199 261 1211 q 294 1178 275 1186 q 344 1171 313 1171 q 403 1182 386 1171 q 424 1203 419 1193 q 431 1217 429 1214 q 445 1233 435 1226 q 469 1239 456 1239 q 525 1192 525 1239 q 506 1122 525 1156 q 445 1067 486 1089 q 343 1044 404 1044 z "},"Ě":{"ha":635,"x_min":79,"x_max":581,"o":"m 131 0 q 92 13 104 0 q 79 56 79 26 l 79 917 q 92 959 79 946 q 131 972 104 972 l 540 972 q 571 956 561 972 q 581 903 581 939 l 581 860 q 571 807 581 824 q 540 790 561 790 l 296 790 l 296 589 l 513 589 q 543 572 533 589 q 553 519 553 556 l 553 476 q 543 424 553 440 q 513 407 533 407 l 296 407 l 296 182 l 542 182 q 572 165 563 182 q 581 113 581 149 l 581 69 q 572 17 581 33 q 542 0 563 0 l 131 0 m 339 1040 q 290 1045 307 1040 q 263 1067 274 1050 l 181 1206 q 171 1229 171 1222 q 200 1243 171 1243 l 238 1243 q 307 1217 290 1243 l 343 1154 l 379 1218 q 450 1243 393 1243 l 489 1243 q 517 1229 517 1243 q 507 1206 517 1222 l 424 1067 q 395 1045 413 1050 q 347 1040 378 1040 l 339 1040 z "},"Ê":{"ha":635,"x_min":79,"x_max":581,"o":"m 131 0 q 92 13 104 0 q 79 56 79 26 l 79 917 q 92 959 79 946 q 131 972 104 972 l 540 972 q 571 956 561 972 q 581 903 581 939 l 581 860 q 571 807 581 824 q 540 790 561 790 l 296 790 l 296 589 l 513 589 q 543 572 533 589 q 553 519 553 556 l 553 476 q 543 424 553 440 q 513 407 533 407 l 296 407 l 296 182 l 542 182 q 572 165 563 182 q 581 113 581 149 l 581 69 q 572 17 581 33 q 542 0 563 0 l 131 0 m 200 1040 q 171 1054 171 1040 q 181 1078 171 1061 l 263 1217 q 292 1238 274 1233 q 342 1243 310 1243 l 344 1243 q 394 1238 376 1243 q 424 1217 413 1233 l 507 1078 q 517 1054 517 1061 q 489 1040 517 1040 l 450 1040 q 379 1065 393 1040 l 343 1129 l 307 1067 q 238 1040 290 1040 l 200 1040 z "},"Ế":{"ha":615,"x_min":79,"x_max":658,"o":"m 479 1185 q 456 1190 463 1185 q 450 1206 450 1194 q 469 1264 450 1215 l 499 1340 q 603 1378 518 1378 q 645 1371 632 1378 q 658 1344 658 1364 q 641 1311 658 1335 q 556 1206 624 1288 q 529 1190 546 1196 q 479 1185 513 1185 m 199 1040 q 176 1043 182 1040 q 169 1054 169 1046 q 176 1075 169 1061 l 253 1217 q 281 1238 263 1233 q 332 1243 299 1243 l 335 1243 q 386 1238 368 1243 q 414 1217 404 1233 l 492 1075 q 499 1054 499 1061 q 471 1040 499 1040 l 432 1040 q 361 1065 376 1040 l 333 1129 l 306 1067 q 280 1045 297 1050 q 236 1040 263 1040 l 199 1040 m 131 0 q 92 13 104 0 q 79 56 79 26 l 79 917 q 92 959 79 946 q 131 972 104 972 l 540 972 q 571 956 561 972 q 581 903 581 939 l 581 860 q 571 807 581 824 q 540 790 561 790 l 296 790 l 296 589 l 513 589 q 543 572 533 589 q 553 519 553 556 l 553 476 q 543 424 553 440 q 513 407 533 407 l 296 407 l 296 182 l 542 182 q 572 165 563 182 q 581 113 581 149 l 581 69 q 572 17 581 33 q 542 0 563 0 l 131 0 z "},"Ệ":{"ha":635,"x_min":79,"x_max":581,"o":"m 131 0 q 92 13 104 0 q 79 56 79 26 l 79 917 q 92 959 79 946 q 131 972 104 972 l 540 972 q 571 956 561 972 q 581 903 581 939 l 581 860 q 571 807 581 824 q 540 790 561 790 l 296 790 l 296 589 l 513 589 q 543 572 533 589 q 553 519 553 556 l 553 476 q 543 424 553 440 q 513 407 533 407 l 296 407 l 296 182 l 542 182 q 572 165 563 182 q 581 113 581 149 l 581 69 q 572 17 581 33 q 542 0 563 0 l 131 0 m 335 -283 q 238 -239 238 -283 l 238 -156 q 331 -111 238 -111 q 428 -156 428 -111 l 428 -239 q 335 -283 428 -283 m 200 1040 q 171 1054 171 1040 q 181 1078 171 1061 l 263 1217 q 292 1238 274 1233 q 342 1243 310 1243 l 344 1243 q 394 1238 376 1243 q 424 1217 413 1233 l 507 1078 q 517 1054 517 1061 q 489 1040 517 1040 l 450 1040 q 379 1065 393 1040 l 343 1129 l 307 1067 q 238 1040 290 1040 l 200 1040 z "},"Ề":{"ha":615,"x_min":79,"x_max":586,"o":"m 551 1185 q 499 1192 517 1185 q 471 1211 482 1199 l 444 1244 q 382 1324 394 1307 q 369 1350 369 1340 q 384 1372 369 1365 q 429 1378 399 1378 q 539 1340 521 1378 l 553 1301 q 586 1206 586 1218 q 578 1190 586 1194 q 551 1185 571 1185 m 199 1040 q 176 1043 182 1040 q 169 1054 169 1046 q 176 1075 169 1061 l 253 1217 q 281 1238 263 1233 q 332 1243 299 1243 l 335 1243 q 386 1238 368 1243 q 414 1217 404 1233 l 492 1075 q 499 1054 499 1061 q 471 1040 499 1040 l 432 1040 q 361 1065 376 1040 l 333 1129 l 306 1067 q 280 1045 297 1050 q 236 1040 263 1040 l 199 1040 m 131 0 q 92 13 104 0 q 79 56 79 26 l 79 917 q 92 959 79 946 q 131 972 104 972 l 540 972 q 571 956 561 972 q 581 903 581 939 l 581 860 q 571 807 581 824 q 540 790 561 790 l 296 790 l 296 589 l 513 589 q 543 572 533 589 q 553 519 553 556 l 553 476 q 543 424 553 440 q 513 407 533 407 l 296 407 l 296 182 l 542 182 q 572 165 563 182 q 581 113 581 149 l 581 69 q 572 17 581 33 q 542 0 563 0 l 131 0 z "},"Ể":{"ha":615,"x_min":79,"x_max":617,"o":"m 513 1196 q 468 1204 485 1196 q 451 1225 451 1213 q 460 1235 451 1229 q 478 1247 468 1242 q 512 1266 503 1258 q 521 1286 521 1274 q 512 1303 521 1297 q 492 1310 503 1310 q 442 1298 461 1310 q 418 1286 422 1286 q 393 1308 410 1286 q 376 1344 376 1329 q 413 1371 376 1358 q 488 1383 450 1383 q 582 1358 547 1383 q 617 1292 617 1333 q 581 1226 617 1256 q 547 1206 567 1215 q 513 1196 528 1196 m 199 1040 q 176 1043 182 1040 q 169 1054 169 1046 q 176 1075 169 1061 l 253 1217 q 281 1238 263 1233 q 332 1243 299 1243 l 335 1243 q 386 1238 368 1243 q 414 1217 404 1233 l 492 1075 q 499 1054 499 1061 q 471 1040 499 1040 l 432 1040 q 361 1065 376 1040 l 333 1129 l 306 1067 q 280 1045 297 1050 q 236 1040 263 1040 l 199 1040 m 131 0 q 92 13 104 0 q 79 56 79 26 l 79 917 q 92 959 79 946 q 131 972 104 972 l 540 972 q 571 956 561 972 q 581 903 581 939 l 581 860 q 571 807 581 824 q 540 790 561 790 l 296 790 l 296 589 l 513 589 q 543 572 533 589 q 553 519 553 556 l 553 476 q 543 424 553 440 q 513 407 533 407 l 296 407 l 296 182 l 542 182 q 572 165 563 182 q 581 113 581 149 l 581 69 q 572 17 581 33 q 542 0 563 0 l 131 0 z "},"Ễ":{"ha":615,"x_min":79,"x_max":581,"o":"m 164 1242 q 142 1256 149 1246 q 135 1278 135 1267 q 140 1301 135 1289 q 184 1369 154 1343 q 254 1396 214 1396 q 339 1374 281 1396 q 400 1356 383 1356 q 433 1378 415 1356 q 468 1401 446 1401 q 485 1399 474 1401 l 499 1394 q 526 1358 526 1385 q 524 1338 526 1349 q 478 1268 510 1296 q 408 1240 447 1240 q 361 1250 389 1240 q 328 1261 333 1260 q 261 1281 278 1281 q 229 1258 244 1281 q 194 1235 214 1235 q 178 1238 189 1235 l 164 1242 m 199 1040 q 176 1043 182 1040 q 169 1054 169 1046 q 182 1083 169 1061 l 253 1186 q 281 1207 264 1201 q 333 1213 299 1213 l 336 1213 q 387 1207 369 1213 q 415 1186 404 1201 l 486 1083 q 495 1067 492 1075 q 499 1054 499 1060 q 471 1040 499 1040 l 432 1040 q 390 1046 403 1040 q 364 1065 376 1051 l 335 1121 l 304 1067 q 277 1046 290 1051 q 236 1040 264 1040 l 199 1040 m 131 0 q 92 13 104 0 q 79 56 79 26 l 79 917 q 92 959 79 946 q 131 972 104 972 l 540 972 q 571 956 561 972 q 581 903 581 939 l 581 860 q 571 807 581 824 q 540 790 561 790 l 296 790 l 296 589 l 513 589 q 543 572 533 589 q 553 519 553 556 l 553 476 q 543 424 553 440 q 513 407 533 407 l 296 407 l 296 182 l 542 182 q 572 165 563 182 q 581 113 581 149 l 581 69 q 572 17 581 33 q 542 0 563 0 l 131 0 z "},"Ë":{"ha":635,"x_min":79,"x_max":581,"o":"m 131 0 q 92 13 104 0 q 79 56 79 26 l 79 917 q 92 959 79 946 q 131 972 104 972 l 540 972 q 571 956 561 972 q 581 903 581 939 l 581 860 q 571 807 581 824 q 540 790 561 790 l 296 790 l 296 589 l 513 589 q 543 572 533 589 q 553 519 553 556 l 553 476 q 543 424 553 440 q 513 407 533 407 l 296 407 l 296 182 l 542 182 q 572 165 563 182 q 581 113 581 149 l 581 69 q 572 17 581 33 q 542 0 563 0 l 131 0 m 235 1049 q 154 1093 154 1049 l 154 1176 q 232 1221 154 1221 q 313 1176 313 1221 l 313 1093 q 235 1049 313 1049 m 460 1049 q 379 1093 379 1049 l 379 1176 q 457 1221 379 1221 q 538 1176 538 1221 l 538 1093 q 460 1049 538 1049 z "},"Ė":{"ha":635,"x_min":79,"x_max":581,"o":"m 131 0 q 92 13 104 0 q 79 56 79 26 l 79 917 q 92 959 79 946 q 131 972 104 972 l 540 972 q 571 956 561 972 q 581 903 581 939 l 581 860 q 571 807 581 824 q 540 790 561 790 l 296 790 l 296 589 l 513 589 q 543 572 533 589 q 553 519 553 556 l 553 476 q 543 424 553 440 q 513 407 533 407 l 296 407 l 296 182 l 542 182 q 572 165 563 182 q 581 113 581 149 l 581 69 q 572 17 581 33 q 542 0 563 0 l 131 0 m 347 1049 q 250 1093 250 1049 l 250 1176 q 343 1221 250 1221 q 440 1176 440 1221 l 440 1093 q 347 1049 440 1049 z "},"Ẹ":{"ha":635,"x_min":79,"x_max":581,"o":"m 131 0 q 92 13 104 0 q 79 56 79 26 l 79 917 q 92 959 79 946 q 131 972 104 972 l 540 972 q 571 956 561 972 q 581 903 581 939 l 581 860 q 571 807 581 824 q 540 790 561 790 l 296 790 l 296 589 l 513 589 q 543 572 533 589 q 553 519 553 556 l 553 476 q 543 424 553 440 q 513 407 533 407 l 296 407 l 296 182 l 542 182 q 572 165 563 182 q 581 113 581 149 l 581 69 q 572 17 581 33 q 542 0 563 0 l 131 0 m 335 -283 q 238 -239 238 -283 l 238 -156 q 331 -111 238 -111 q 428 -156 428 -111 l 428 -239 q 335 -283 428 -283 z "},"È":{"ha":635,"x_min":79,"x_max":581,"o":"m 131 0 q 92 13 104 0 q 79 56 79 26 l 79 917 q 92 959 79 946 q 131 972 104 972 l 540 972 q 571 956 561 972 q 581 903 581 939 l 581 860 q 571 807 581 824 q 540 790 561 790 l 296 790 l 296 589 l 513 589 q 543 572 533 589 q 553 519 553 556 l 553 476 q 543 424 553 440 q 513 407 533 407 l 296 407 l 296 182 l 542 182 q 572 165 563 182 q 581 113 581 149 l 581 69 q 572 17 581 33 q 542 0 563 0 l 131 0 m 365 1044 q 299 1054 319 1044 q 267 1079 278 1064 l 196 1168 q 155 1221 167 1204 q 143 1246 143 1238 q 161 1261 143 1257 q 218 1265 179 1265 q 329 1228 308 1265 q 386 1117 367 1157 q 406 1065 406 1076 q 397 1049 406 1053 q 365 1044 389 1044 z "},"Ẻ":{"ha":635,"x_min":79,"x_max":581,"o":"m 131 0 q 92 13 104 0 q 79 56 79 26 l 79 917 q 92 959 79 946 q 131 972 104 972 l 540 972 q 571 956 561 972 q 581 903 581 939 l 581 860 q 571 807 581 824 q 540 790 561 790 l 296 790 l 296 589 l 513 589 q 543 572 533 589 q 553 519 553 556 l 553 476 q 543 424 553 440 q 513 407 533 407 l 296 407 l 296 182 l 542 182 q 572 165 563 182 q 581 113 581 149 l 581 69 q 572 17 581 33 q 542 0 563 0 l 131 0 m 378 1038 q 328 1049 354 1038 q 303 1069 303 1061 q 339 1107 303 1081 q 381 1142 365 1126 q 396 1174 396 1158 q 383 1196 396 1188 q 351 1204 369 1204 q 316 1196 333 1204 q 293 1188 299 1188 q 268 1209 285 1188 q 251 1246 251 1231 q 289 1274 251 1260 q 363 1289 326 1289 q 476 1260 436 1289 q 517 1179 517 1231 q 489 1113 517 1146 q 426 1059 461 1081 q 378 1038 392 1038 z "},"Ē":{"ha":635,"x_min":79,"x_max":581,"o":"m 131 0 q 92 13 104 0 q 79 56 79 26 l 79 917 q 92 959 79 946 q 131 972 104 972 l 540 972 q 571 956 561 972 q 581 903 581 939 l 581 860 q 571 807 581 824 q 540 790 561 790 l 296 790 l 296 589 l 513 589 q 543 572 533 589 q 553 519 553 556 l 553 476 q 543 424 553 440 q 513 407 533 407 l 296 407 l 296 182 l 542 182 q 572 165 563 182 q 581 113 581 149 l 581 69 q 572 17 581 33 q 542 0 563 0 l 131 0 m 211 1075 q 181 1088 190 1075 q 171 1131 171 1101 l 171 1151 q 181 1194 171 1181 q 211 1207 190 1207 l 476 1207 q 508 1194 499 1207 q 517 1151 517 1181 l 517 1131 q 508 1088 517 1101 q 476 1075 499 1075 l 211 1075 z "},"Ę":{"ha":635,"x_min":79,"x_max":689,"o":"m 647 -144 q 679 -153 669 -144 q 689 -186 689 -162 q 665 -229 689 -215 q 588 -246 629 -246 q 481 -204 508 -246 q 453 -115 453 -162 q 481 0 453 -57 l 131 0 q 92 13 104 0 q 79 56 79 26 l 79 917 q 92 959 79 946 q 131 972 104 972 l 540 972 q 571 956 561 972 q 581 903 581 939 l 581 860 q 571 807 581 824 q 540 790 561 790 l 296 790 l 296 589 l 513 589 q 543 572 533 589 q 553 519 553 556 l 553 476 q 543 424 553 440 q 513 407 533 407 l 296 407 l 296 182 l 542 182 q 572 165 563 182 q 581 113 581 149 l 581 69 q 568 13 581 28 q 546 -89 546 -40 q 614 -150 546 -150 q 633 -147 625 -150 q 647 -144 642 -144 z "},"Ẽ":{"ha":635,"x_min":79,"x_max":581,"o":"m 131 0 q 92 13 104 0 q 79 56 79 26 l 79 917 q 92 959 79 946 q 131 972 104 972 l 540 972 q 571 956 561 972 q 581 903 581 939 l 581 860 q 571 807 581 824 q 540 790 561 790 l 296 790 l 296 589 l 513 589 q 543 572 533 589 q 553 519 553 556 l 553 476 q 543 424 553 440 q 513 407 533 407 l 296 407 l 296 182 l 542 182 q 572 165 563 182 q 581 113 581 149 l 581 69 q 572 17 581 33 q 542 0 563 0 l 131 0 m 149 1056 q 117 1092 117 1064 q 122 1114 117 1101 q 170 1183 138 1156 q 247 1210 203 1210 q 339 1188 275 1210 q 372 1177 349 1185 q 408 1169 396 1169 q 444 1192 426 1169 q 461 1210 453 1204 q 482 1215 469 1215 q 501 1213 488 1215 l 515 1208 q 547 1172 547 1199 q 543 1151 547 1168 q 494 1082 528 1110 q 417 1054 460 1054 q 326 1076 390 1054 q 293 1087 318 1079 q 256 1094 268 1094 q 221 1072 236 1094 q 202 1054 211 1060 q 182 1049 193 1049 q 164 1051 175 1049 l 149 1056 z "},"F":{"ha":588,"x_min":79,"x_max":553,"o":"m 160 -3 q 79 42 79 -3 l 79 917 q 92 959 79 946 q 131 972 104 972 l 513 972 q 543 956 533 972 q 553 903 553 939 l 553 860 q 543 807 553 824 q 513 790 533 790 l 296 790 l 296 588 l 500 588 q 531 571 521 588 q 540 518 540 554 l 540 475 q 531 422 540 439 q 500 406 521 406 l 296 406 l 296 42 q 215 -3 296 -3 l 160 -3 z "},"G":{"ha":767,"x_min":51,"x_max":697,"o":"m 646 569 q 685 556 672 569 q 697 514 697 543 l 697 100 q 655 42 697 68 q 550 3 613 17 q 431 -11 488 -11 q 144 110 236 -11 q 51 489 51 232 q 144 861 51 739 q 433 983 238 983 q 554 969 496 983 q 649 931 613 954 q 685 885 685 908 q 670 836 685 867 q 635 783 656 806 q 597 760 614 760 q 568 770 592 760 q 515 788 544 781 q 446 796 486 796 q 315 721 357 796 q 274 488 274 646 q 313 248 274 318 q 431 178 353 178 q 488 183 464 178 l 488 386 l 417 386 q 386 403 396 386 q 376 456 376 419 l 376 500 q 386 553 376 536 q 417 569 396 569 l 646 569 z "},"Ğ":{"ha":767,"x_min":51,"x_max":697,"o":"m 646 569 q 685 556 672 569 q 697 514 697 543 l 697 100 q 655 42 697 68 q 550 3 613 17 q 431 -11 488 -11 q 144 110 236 -11 q 51 489 51 232 q 144 861 51 739 q 433 983 238 983 q 554 969 496 983 q 649 931 613 954 q 685 885 685 908 q 670 836 685 867 q 635 783 656 806 q 597 760 614 760 q 568 770 592 760 q 515 788 544 781 q 446 796 486 796 q 315 721 357 796 q 274 488 274 646 q 313 248 274 318 q 431 178 353 178 q 488 183 464 178 l 488 386 l 417 386 q 386 403 396 386 q 376 456 376 419 l 376 500 q 386 553 376 536 q 417 569 396 569 l 646 569 m 413 1044 q 278 1089 325 1044 q 232 1192 232 1133 q 288 1239 232 1239 q 329 1214 318 1239 q 338 1199 331 1211 q 363 1178 344 1186 q 414 1171 382 1171 q 472 1182 456 1171 q 494 1203 489 1193 q 500 1217 499 1214 q 515 1233 504 1226 q 539 1239 525 1239 q 594 1192 594 1239 q 575 1122 594 1156 q 515 1067 556 1089 q 413 1044 474 1044 z "},"Ĝ":{"ha":767,"x_min":51,"x_max":697,"o":"m 646 569 q 685 556 672 569 q 697 514 697 543 l 697 100 q 655 42 697 68 q 550 3 613 17 q 431 -11 488 -11 q 144 110 236 -11 q 51 489 51 232 q 144 861 51 739 q 433 983 238 983 q 554 969 496 983 q 649 931 613 954 q 685 885 685 908 q 670 836 685 867 q 635 783 656 806 q 597 760 614 760 q 568 770 592 760 q 515 788 544 781 q 446 796 486 796 q 315 721 357 796 q 274 488 274 646 q 313 248 274 318 q 431 178 353 178 q 488 183 464 178 l 488 386 l 417 386 q 386 403 396 386 q 376 456 376 419 l 376 500 q 386 553 376 536 q 417 569 396 569 l 646 569 m 269 1040 q 240 1054 240 1040 q 250 1078 240 1061 l 332 1217 q 361 1238 343 1233 q 411 1243 379 1243 l 414 1243 q 464 1238 446 1243 q 493 1217 482 1233 l 576 1078 q 586 1054 586 1061 q 558 1040 586 1040 l 519 1040 q 449 1065 463 1040 l 413 1129 l 376 1067 q 307 1040 360 1040 l 269 1040 z "},"Ģ":{"ha":767,"x_min":51,"x_max":697,"o":"m 646 569 q 685 556 672 569 q 697 514 697 543 l 697 100 q 655 42 697 68 q 550 3 613 17 q 431 -11 488 -11 q 144 110 236 -11 q 51 489 51 232 q 144 861 51 739 q 433 983 238 983 q 554 969 496 983 q 649 931 613 954 q 685 885 685 908 q 670 836 685 867 q 635 783 656 806 q 597 760 614 760 q 568 770 592 760 q 515 788 544 781 q 446 796 486 796 q 315 721 357 796 q 274 488 274 646 q 313 248 274 318 q 431 178 353 178 q 488 183 464 178 l 488 386 l 417 386 q 386 403 396 386 q 376 456 376 419 l 376 500 q 386 553 376 536 q 417 569 396 569 l 646 569 m 382 -333 q 340 -326 360 -333 q 321 -303 321 -318 q 324 -274 321 -299 q 335 -132 335 -203 q 415 -71 335 -71 l 443 -71 q 506 -132 506 -71 q 484 -223 506 -176 q 433 -301 463 -269 q 382 -333 403 -333 z "},"Ġ":{"ha":767,"x_min":51,"x_max":697,"o":"m 646 569 q 685 556 672 569 q 697 514 697 543 l 697 100 q 655 42 697 68 q 550 3 613 17 q 431 -11 488 -11 q 144 110 236 -11 q 51 489 51 232 q 144 861 51 739 q 433 983 238 983 q 554 969 496 983 q 649 931 613 954 q 685 885 685 908 q 670 836 685 867 q 635 783 656 806 q 597 760 614 760 q 568 770 592 760 q 515 788 544 781 q 446 796 486 796 q 315 721 357 796 q 274 488 274 646 q 313 248 274 318 q 431 178 353 178 q 488 183 464 178 l 488 386 l 417 386 q 386 403 396 386 q 376 456 376 419 l 376 500 q 386 553 376 536 q 417 569 396 569 l 646 569 m 417 1049 q 319 1093 319 1049 l 319 1176 q 413 1221 319 1221 q 510 1176 510 1221 l 510 1093 q 417 1049 510 1049 z "},"H":{"ha":833,"x_min":79,"x_max":753,"o":"m 160 -3 q 79 42 79 -3 l 79 931 q 160 975 79 975 l 218 975 q 297 931 297 975 l 297 588 l 535 588 l 535 931 q 615 975 535 975 l 672 975 q 753 931 753 975 l 753 42 q 672 -3 753 -3 l 615 -3 q 535 42 535 -3 l 535 404 l 297 404 l 297 42 q 218 -3 297 -3 l 160 -3 z "},"Ħ":{"ha":814,"x_min":17,"x_max":803,"o":"m 763 793 q 794 780 785 793 q 803 738 803 767 l 803 717 q 794 674 803 688 q 763 661 785 661 l 753 661 l 753 42 q 672 -3 753 -3 l 615 -3 q 535 42 535 -3 l 535 404 l 297 404 l 297 42 q 218 -3 297 -3 l 160 -3 q 79 42 79 -3 l 79 661 l 57 661 q 26 674 36 661 q 17 717 17 688 l 17 738 q 26 780 17 767 q 57 793 36 793 l 79 793 l 79 931 q 160 975 79 975 l 218 975 q 297 931 297 975 l 297 793 l 535 793 l 535 931 q 615 975 535 975 l 672 975 q 753 931 753 975 l 753 793 l 763 793 m 535 588 l 535 661 l 297 661 l 297 588 l 535 588 z "},"Ĥ":{"ha":833,"x_min":79,"x_max":753,"o":"m 160 -3 q 79 42 79 -3 l 79 931 q 160 975 79 975 l 218 975 q 297 931 297 975 l 297 588 l 535 588 l 535 931 q 615 975 535 975 l 672 975 q 753 931 753 975 l 753 42 q 672 -3 753 -3 l 615 -3 q 535 42 535 -3 l 535 404 l 297 404 l 297 42 q 218 -3 297 -3 l 160 -3 m 272 1040 q 243 1054 243 1040 q 253 1078 243 1061 l 335 1217 q 364 1238 346 1233 q 414 1243 382 1243 l 417 1243 q 467 1238 449 1243 q 496 1217 485 1233 l 579 1078 q 589 1054 589 1061 q 561 1040 589 1040 l 522 1040 q 451 1065 465 1040 l 415 1129 l 379 1067 q 310 1040 363 1040 l 272 1040 z "},"Ḥ":{"ha":833,"x_min":79,"x_max":753,"o":"m 160 -3 q 79 42 79 -3 l 79 931 q 160 975 79 975 l 218 975 q 297 931 297 975 l 297 588 l 535 588 l 535 931 q 615 975 535 975 l 672 975 q 753 931 753 975 l 753 42 q 672 -3 753 -3 l 615 -3 q 535 42 535 -3 l 535 404 l 297 404 l 297 42 q 218 -3 297 -3 l 160 -3 m 422 -283 q 325 -239 325 -283 l 325 -156 q 418 -111 325 -111 q 515 -156 515 -111 l 515 -239 q 422 -283 515 -283 z "},"I":{"ha":364,"x_min":72,"x_max":290,"o":"m 153 -4 q 72 42 72 -4 l 72 931 q 153 976 72 976 l 211 976 q 290 931 290 976 l 290 42 q 211 -4 290 -4 l 153 -4 z "},"Ĳ":{"ha":857,"x_min":72,"x_max":785,"o":"m 153 -4 q 72 42 72 -4 l 72 931 q 153 976 72 976 l 211 976 q 290 931 290 976 l 290 42 q 211 -4 290 -4 l 153 -4 m 533 -11 q 424 7 472 -11 q 375 53 375 25 q 393 137 375 93 q 433 182 411 181 q 458 178 439 182 q 499 174 476 174 q 551 207 536 174 q 567 315 567 240 l 567 931 q 646 976 567 976 l 704 976 q 785 931 785 976 l 785 281 q 533 -11 785 -11 z "},"Í":{"ha":364,"x_min":72,"x_max":375,"o":"m 153 -4 q 72 42 72 -4 l 72 931 q 153 976 72 976 l 211 976 q 290 931 290 976 l 290 42 q 211 -4 290 -4 l 153 -4 m 153 1044 q 121 1049 129 1044 q 113 1065 113 1054 q 122 1093 113 1074 q 147 1143 131 1113 l 190 1228 q 300 1265 210 1265 q 357 1261 339 1265 q 375 1246 375 1257 q 365 1224 375 1238 q 331 1179 356 1210 q 299 1139 318 1163 q 253 1079 281 1115 q 219 1053 240 1063 q 153 1044 199 1044 z "},"Ĭ":{"ha":364,"x_min":0,"x_max":363,"o":"m 153 -4 q 72 42 72 -4 l 72 931 q 153 976 72 976 l 211 976 q 290 931 290 976 l 290 42 q 211 -4 290 -4 l 153 -4 m 181 1044 q 47 1089 93 1044 q 0 1192 0 1133 q 56 1239 0 1239 q 97 1214 86 1239 q 106 1199 99 1211 q 131 1178 113 1186 q 182 1171 150 1171 q 240 1182 224 1171 q 262 1203 257 1193 q 268 1217 267 1214 q 283 1233 272 1226 q 307 1239 293 1239 q 363 1192 363 1239 q 343 1122 363 1156 q 283 1067 324 1089 q 181 1044 242 1044 z "},"Î":{"ha":364,"x_min":8,"x_max":354,"o":"m 153 -4 q 72 42 72 -4 l 72 931 q 153 976 72 976 l 211 976 q 290 931 290 976 l 290 42 q 211 -4 290 -4 l 153 -4 m 38 1040 q 8 1054 8 1040 q 18 1078 8 1061 l 100 1217 q 129 1238 111 1233 q 179 1243 147 1243 l 182 1243 q 232 1238 214 1243 q 261 1217 250 1233 l 344 1078 q 354 1054 354 1061 q 326 1040 354 1040 l 288 1040 q 217 1065 231 1040 l 181 1129 l 144 1067 q 75 1040 128 1040 l 38 1040 z "},"Ï":{"ha":364,"x_min":-8,"x_max":375,"o":"m 153 -4 q 72 42 72 -4 l 72 931 q 153 976 72 976 l 211 976 q 290 931 290 976 l 290 42 q 211 -4 290 -4 l 153 -4 m 72 1049 q -8 1093 -8 1049 l -8 1176 q 69 1221 -8 1221 q 150 1176 150 1221 l 150 1093 q 72 1049 150 1049 m 297 1049 q 217 1093 217 1049 l 217 1176 q 294 1221 217 1221 q 375 1176 375 1221 l 375 1093 q 297 1049 375 1049 z "},"İ":{"ha":364,"x_min":72,"x_max":290,"o":"m 153 -4 q 72 42 72 -4 l 72 931 q 153 976 72 976 l 211 976 q 290 931 290 976 l 290 42 q 211 -4 290 -4 l 153 -4 m 185 1049 q 88 1093 88 1049 l 88 1176 q 181 1221 88 1221 q 278 1176 278 1221 l 278 1093 q 185 1049 278 1049 z "},"Ị":{"ha":364,"x_min":72,"x_max":290,"o":"m 153 -4 q 72 42 72 -4 l 72 931 q 153 976 72 976 l 211 976 q 290 931 290 976 l 290 42 q 211 -4 290 -4 l 153 -4 m 188 -283 q 90 -239 90 -283 l 90 -156 q 183 -111 90 -111 q 281 -156 281 -111 l 281 -239 q 188 -283 281 -283 z "},"Ì":{"ha":364,"x_min":-19,"x_max":290,"o":"m 153 -4 q 72 42 72 -4 l 72 931 q 153 976 72 976 l 211 976 q 290 931 290 976 l 290 42 q 211 -4 290 -4 l 153 -4 m 203 1044 q 136 1054 157 1044 q 104 1079 115 1064 l 33 1168 q -8 1221 4 1204 q -19 1246 -19 1238 q -1 1261 -19 1257 q 56 1265 17 1265 q 167 1228 146 1265 q 224 1117 204 1157 q 243 1065 243 1076 q 235 1049 243 1053 q 203 1044 226 1044 z "},"Ỉ":{"ha":364,"x_min":72,"x_max":354,"o":"m 153 -4 q 72 42 72 -4 l 72 931 q 153 976 72 976 l 211 976 q 290 931 290 976 l 290 42 q 211 -4 290 -4 l 153 -4 m 215 1038 q 166 1049 192 1038 q 140 1069 140 1061 q 176 1107 140 1081 q 218 1142 203 1126 q 233 1174 233 1158 q 220 1196 233 1188 q 189 1204 207 1204 q 153 1196 171 1204 q 131 1188 136 1188 q 106 1209 122 1188 q 89 1246 89 1231 q 126 1274 89 1260 q 200 1289 164 1289 q 314 1260 274 1289 q 354 1179 354 1231 q 326 1113 354 1146 q 264 1059 299 1081 q 215 1038 229 1038 z "},"Ī":{"ha":364,"x_min":8,"x_max":354,"o":"m 153 -4 q 72 42 72 -4 l 72 931 q 153 976 72 976 l 211 976 q 290 931 290 976 l 290 42 q 211 -4 290 -4 l 153 -4 m 49 1075 q 18 1088 28 1075 q 8 1131 8 1101 l 8 1151 q 18 1194 8 1181 q 49 1207 28 1207 l 314 1207 q 345 1194 336 1207 q 354 1151 354 1181 l 354 1131 q 345 1088 354 1101 q 314 1075 336 1075 l 49 1075 z "},"Į":{"ha":364,"x_min":72,"x_max":404,"o":"m 363 -137 q 394 -147 385 -137 q 404 -179 404 -156 q 381 -222 404 -208 q 303 -239 346 -239 q 196 -197 224 -239 q 168 -108 168 -156 q 190 -4 168 -60 l 153 -4 q 72 42 72 -4 l 72 931 q 153 976 72 976 l 211 976 q 290 931 290 976 l 290 42 q 285 19 290 29 q 261 -82 261 -32 q 329 -143 261 -143 q 349 -140 340 -143 q 363 -137 357 -137 z "},"Ĩ":{"ha":364,"x_min":-46,"x_max":385,"o":"m 153 -4 q 72 42 72 -4 l 72 931 q 153 976 72 976 l 211 976 q 290 931 290 976 l 290 42 q 211 -4 290 -4 l 153 -4 m -14 1056 q -46 1092 -46 1064 q -40 1114 -46 1101 q 8 1183 -25 1156 q 85 1210 40 1210 q 176 1188 113 1210 q 210 1177 186 1185 q 246 1169 233 1169 q 282 1192 264 1169 q 299 1210 290 1204 q 319 1215 307 1215 q 339 1213 325 1215 l 353 1208 q 385 1172 385 1199 q 381 1151 385 1168 q 331 1082 365 1110 q 254 1054 297 1054 q 164 1076 228 1054 q 131 1087 156 1079 q 93 1094 106 1094 q 58 1072 74 1094 q 40 1054 49 1060 q 19 1049 31 1049 q 1 1051 13 1049 l -14 1056 z "},"J":{"ha":493,"x_min":11,"x_max":421,"o":"m 169 -11 q 60 7 108 -11 q 11 53 11 25 q 29 137 11 93 q 69 182 47 181 q 94 178 75 182 q 135 174 113 174 q 188 207 172 174 q 203 315 203 240 l 203 931 q 282 976 203 976 l 340 976 q 421 931 421 976 l 421 281 q 169 -11 421 -11 z "},"Ĵ":{"ha":493,"x_min":11,"x_max":482,"o":"m 169 -11 q 60 7 108 -11 q 11 53 11 25 q 29 137 11 93 q 69 182 47 181 q 94 178 75 182 q 135 174 113 174 q 188 207 172 174 q 203 315 203 240 l 203 931 q 282 976 203 976 l 340 976 q 421 931 421 976 l 421 281 q 169 -11 421 -11 m 165 1040 q 136 1054 136 1040 q 146 1078 136 1061 l 228 1217 q 257 1238 239 1233 q 307 1243 275 1243 l 310 1243 q 360 1238 342 1243 q 389 1217 378 1233 l 472 1078 q 482 1054 482 1061 q 454 1040 482 1040 l 415 1040 q 344 1065 358 1040 l 308 1129 l 272 1067 q 203 1040 256 1040 l 165 1040 z "},"K":{"ha":708,"x_min":75,"x_max":725,"o":"m 717 47 q 725 18 725 32 q 653 -3 725 -3 l 561 -3 q 511 3 529 -3 q 486 24 493 8 l 297 460 l 293 458 l 293 42 q 211 -3 293 -3 l 156 -3 q 75 42 75 -3 l 75 931 q 156 975 75 975 l 211 975 q 293 931 293 975 l 293 517 l 299 515 l 486 949 q 510 969 493 964 q 557 975 526 975 l 633 975 q 710 954 710 975 q 701 925 710 944 l 486 496 l 717 47 z "},"Ķ":{"ha":708,"x_min":75,"x_max":725,"o":"m 717 47 q 725 18 725 32 q 653 -3 725 -3 l 561 -3 q 511 3 529 -3 q 486 24 493 8 l 297 460 l 293 458 l 293 42 q 211 -3 293 -3 l 156 -3 q 75 42 75 -3 l 75 931 q 156 975 75 975 l 211 975 q 293 931 293 975 l 293 517 l 299 515 l 486 949 q 510 969 493 964 q 557 975 526 975 l 633 975 q 710 954 710 975 q 701 925 710 944 l 486 496 l 717 47 m 325 -333 q 283 -326 303 -333 q 264 -303 264 -318 q 267 -274 264 -299 q 278 -132 278 -203 q 358 -71 278 -71 l 386 -71 q 449 -132 449 -71 q 427 -223 449 -176 q 376 -301 406 -269 q 325 -333 346 -333 z "},"L":{"ha":567,"x_min":79,"x_max":544,"o":"m 131 0 q 92 13 104 0 q 79 56 79 26 l 79 931 q 160 975 79 975 l 215 975 q 296 931 296 975 l 296 182 l 503 182 q 535 165 525 182 q 544 113 544 149 l 544 69 q 535 17 544 33 q 503 0 525 0 l 131 0 z "},"Ǉ":{"ha":886,"x_min":69,"x_max":828,"o":"m 576 -251 q 467 -233 515 -251 q 418 -187 418 -215 q 436 -103 418 -147 q 476 -58 454 -60 q 501 -62 482 -58 q 542 -67 519 -67 q 594 -33 579 -67 q 610 75 610 0 l 610 931 q 689 976 610 976 l 747 976 q 828 931 828 976 l 828 49 q 766 -174 828 -96 q 576 -251 704 -251 m 121 0 q 82 13 94 0 q 69 56 69 26 l 69 931 q 150 975 69 975 l 206 975 q 286 931 286 975 l 286 182 l 450 182 q 482 165 472 182 q 492 113 492 149 l 492 69 q 482 17 492 33 q 450 0 472 0 l 121 0 z "},"Ĺ":{"ha":567,"x_min":79,"x_max":544,"o":"m 131 0 q 92 13 104 0 q 79 56 79 26 l 79 931 q 160 975 79 975 l 215 975 q 296 931 296 975 l 296 182 l 503 182 q 535 165 525 182 q 544 113 544 149 l 544 69 q 535 17 544 33 q 503 0 525 0 l 131 0 m 161 1044 q 129 1049 138 1044 q 121 1065 121 1054 q 130 1093 121 1074 q 156 1143 139 1113 l 199 1228 q 308 1265 218 1265 q 365 1261 347 1265 q 383 1246 383 1257 q 374 1224 383 1238 q 339 1179 364 1210 q 308 1139 326 1163 q 261 1079 289 1115 q 228 1053 249 1063 q 161 1044 207 1044 z "},"Ľ":{"ha":567,"x_min":79,"x_max":544,"o":"m 131 0 q 92 13 104 0 q 79 56 79 26 l 79 931 q 160 975 79 975 l 215 975 q 296 931 296 975 l 296 182 l 503 182 q 535 165 525 182 q 544 113 544 149 l 544 69 q 535 17 544 33 q 503 0 525 0 l 131 0 m 425 710 q 383 717 403 710 q 363 740 363 725 q 365 842 363 783 q 368 911 368 892 q 438 972 368 972 l 464 972 q 516 956 499 972 q 533 911 533 939 q 515 822 533 868 q 469 743 496 775 q 425 710 443 711 z "},"Ļ":{"ha":567,"x_min":79,"x_max":544,"o":"m 131 0 q 92 13 104 0 q 79 56 79 26 l 79 931 q 160 975 79 975 l 215 975 q 296 931 296 975 l 296 182 l 503 182 q 535 165 525 182 q 544 113 544 149 l 544 69 q 535 17 544 33 q 503 0 525 0 l 131 0 m 260 -333 q 218 -326 238 -333 q 199 -303 199 -318 q 201 -274 199 -299 q 213 -132 213 -203 q 293 -71 213 -71 l 321 -71 q 383 -132 383 -71 q 362 -223 383 -176 q 310 -301 340 -269 q 260 -333 281 -333 z "},"Ŀ":{"ha":567,"x_min":79,"x_max":544,"o":"m 131 0 q 92 13 104 0 q 79 56 79 26 l 79 931 q 160 975 79 975 l 215 975 q 296 931 296 975 l 296 182 l 503 182 q 535 165 525 182 q 544 113 544 149 l 544 69 q 535 17 544 33 q 503 0 525 0 l 131 0 m 438 401 q 369 427 396 401 q 343 499 343 453 q 369 570 343 544 q 438 596 396 596 q 506 570 479 596 q 532 499 532 544 q 506 427 532 453 q 438 401 479 401 z "},"ǈ":{"ha":913,"x_min":79,"x_max":846,"o":"m 131 0 q 92 13 104 0 q 79 56 79 26 l 79 931 q 160 975 79 975 l 215 975 q 296 931 296 975 l 296 182 l 503 182 q 535 165 525 182 q 544 113 544 149 l 544 69 q 535 17 544 33 q 503 0 525 0 l 131 0 m 660 -294 q 556 -278 590 -294 q 522 -224 522 -262 q 534 -160 522 -193 q 565 -126 546 -126 q 585 -129 572 -126 q 607 -132 599 -132 q 633 -118 625 -132 q 640 -72 640 -104 l 640 685 q 724 729 640 729 l 763 729 q 846 685 846 729 l 846 -69 q 794 -237 846 -179 q 660 -294 743 -294 m 747 803 q 650 847 650 803 l 650 931 q 743 975 650 975 q 840 931 840 975 l 840 847 q 747 803 840 803 z "},"Ł":{"ha":567,"x_min":8,"x_max":544,"o":"m 503 182 q 535 165 525 182 q 544 113 544 149 l 544 69 q 535 17 544 33 q 503 0 525 0 l 131 0 q 92 13 104 0 q 79 56 79 26 l 79 422 l 44 401 q 24 394 33 394 q 8 422 8 394 l 8 450 q 17 487 8 472 q 44 513 25 501 l 79 533 l 79 931 q 160 975 79 975 l 215 975 q 296 931 296 975 l 296 667 l 376 715 q 397 724 389 724 q 413 696 413 724 l 413 668 q 376 604 413 626 l 296 556 l 296 182 l 503 182 z "},"M":{"ha":957,"x_min":72,"x_max":882,"o":"m 465 310 q 432 317 444 310 q 410 343 419 325 l 307 535 q 290 570 299 550 q 278 600 282 590 l 272 599 q 281 522 281 549 l 281 42 q 262 8 281 18 q 200 -3 243 -3 l 153 -3 q 91 8 110 -3 q 72 42 72 18 l 72 931 q 91 965 72 954 q 153 975 110 975 l 196 975 q 249 966 229 975 q 279 936 268 957 l 451 610 q 478 543 465 585 q 503 610 488 581 l 675 936 q 706 966 686 957 q 758 975 725 975 l 801 975 q 863 965 844 975 q 882 931 882 954 l 882 42 q 863 8 882 18 q 801 -3 844 -3 l 754 -3 q 692 8 711 -3 q 674 42 674 18 l 674 522 q 683 599 674 556 l 678 600 q 647 535 668 574 l 544 343 q 522 317 535 325 q 489 310 510 310 l 465 310 z "},"N":{"ha":819,"x_min":72,"x_max":747,"o":"m 153 -3 q 72 42 72 -3 l 72 931 q 153 975 72 975 l 189 975 q 233 967 217 975 q 261 936 250 960 l 511 483 q 558 375 531 447 l 564 378 q 553 488 553 450 l 553 931 q 633 975 553 975 l 667 975 q 747 931 747 975 l 747 42 q 667 -3 747 -3 l 640 -3 q 594 5 613 -3 q 565 36 576 13 l 300 508 q 263 597 288 529 l 256 593 q 267 499 267 529 l 267 42 q 186 -3 267 -3 l 153 -3 z "},"Ǌ":{"ha":1313,"x_min":72,"x_max":1240,"o":"m 153 -3 q 72 42 72 -3 l 72 931 q 153 975 72 975 l 189 975 q 233 967 217 975 q 261 936 250 960 l 511 483 q 558 375 531 447 l 564 378 q 553 488 553 450 l 553 931 q 633 975 553 975 l 667 975 q 747 931 747 975 l 747 42 q 667 -3 747 -3 l 640 -3 q 594 5 613 -3 q 565 36 576 13 l 300 508 q 263 597 288 529 l 256 593 q 267 499 267 529 l 267 42 q 186 -3 267 -3 l 153 -3 m 989 -11 q 879 7 928 -11 q 831 53 831 25 q 849 137 831 93 q 889 182 867 181 q 913 178 894 182 q 954 174 932 174 q 1007 207 992 174 q 1022 315 1022 240 l 1022 931 q 1101 976 1022 976 l 1160 976 q 1240 931 1240 976 l 1240 281 q 989 -11 1240 -11 z "},"Ń":{"ha":819,"x_min":72,"x_max":747,"o":"m 153 -3 q 72 42 72 -3 l 72 931 q 153 975 72 975 l 189 975 q 233 967 217 975 q 261 936 250 960 l 511 483 q 558 375 531 447 l 564 378 q 553 488 553 450 l 553 931 q 633 975 553 975 l 667 975 q 747 931 747 975 l 747 42 q 667 -3 747 -3 l 640 -3 q 594 5 613 -3 q 565 36 576 13 l 300 508 q 263 597 288 529 l 256 593 q 267 499 267 529 l 267 42 q 186 -3 267 -3 l 153 -3 m 381 1044 q 349 1049 357 1044 q 340 1065 340 1054 q 349 1093 340 1074 q 375 1143 358 1113 l 418 1228 q 528 1265 438 1265 q 585 1261 567 1265 q 603 1246 603 1257 q 593 1224 603 1238 q 558 1179 583 1210 q 527 1139 546 1163 q 481 1079 508 1115 q 447 1053 468 1063 q 381 1044 426 1044 z "},"Ň":{"ha":819,"x_min":72,"x_max":747,"o":"m 153 -3 q 72 42 72 -3 l 72 931 q 153 975 72 975 l 189 975 q 233 967 217 975 q 261 936 250 960 l 511 483 q 558 375 531 447 l 564 378 q 553 488 553 450 l 553 931 q 633 975 553 975 l 667 975 q 747 931 747 975 l 747 42 q 667 -3 747 -3 l 640 -3 q 594 5 613 -3 q 565 36 576 13 l 300 508 q 263 597 288 529 l 256 593 q 267 499 267 529 l 267 42 q 186 -3 267 -3 l 153 -3 m 404 1040 q 356 1045 372 1040 q 328 1067 339 1050 l 246 1206 q 236 1229 236 1222 q 265 1243 236 1243 l 303 1243 q 372 1217 356 1243 l 408 1154 l 444 1218 q 515 1243 458 1243 l 554 1243 q 582 1229 582 1243 q 572 1206 582 1222 l 489 1067 q 460 1045 478 1050 q 413 1040 443 1040 l 404 1040 z "},"Ņ":{"ha":819,"x_min":72,"x_max":747,"o":"m 153 -3 q 72 42 72 -3 l 72 931 q 153 975 72 975 l 189 975 q 233 967 217 975 q 261 936 250 960 l 511 483 q 558 375 531 447 l 564 378 q 553 488 553 450 l 553 931 q 633 975 553 975 l 667 975 q 747 931 747 975 l 747 42 q 667 -3 747 -3 l 640 -3 q 594 5 613 -3 q 565 36 576 13 l 300 508 q 263 597 288 529 l 256 593 q 267 499 267 529 l 267 42 q 186 -3 267 -3 l 153 -3 m 371 -333 q 329 -326 349 -333 q 310 -303 310 -318 q 313 -274 310 -299 q 324 -132 324 -203 q 404 -71 324 -71 l 432 -71 q 494 -132 494 -71 q 473 -223 494 -176 q 422 -301 451 -269 q 371 -333 392 -333 z "},"Ṅ":{"ha":819,"x_min":72,"x_max":747,"o":"m 153 -3 q 72 42 72 -3 l 72 931 q 153 975 72 975 l 189 975 q 233 967 217 975 q 261 936 250 960 l 511 483 q 558 375 531 447 l 564 378 q 553 488 553 450 l 553 931 q 633 975 553 975 l 667 975 q 747 931 747 975 l 747 42 q 667 -3 747 -3 l 640 -3 q 594 5 613 -3 q 565 36 576 13 l 300 508 q 263 597 288 529 l 256 593 q 267 499 267 529 l 267 42 q 186 -3 267 -3 l 153 -3 m 413 1049 q 315 1093 315 1049 l 315 1176 q 408 1221 315 1221 q 506 1176 506 1221 l 506 1093 q 413 1049 506 1049 z "},"Ŋ":{"ha":819,"x_min":72,"x_max":747,"o":"m 667 975 q 747 931 747 975 l 747 -69 q 696 -237 747 -179 q 561 -294 644 -294 q 458 -278 492 -294 q 424 -224 424 -262 q 435 -160 424 -193 q 467 -126 447 -126 q 487 -129 474 -126 q 508 -132 500 -132 q 543 -118 533 -132 q 553 -72 553 -104 l 553 58 l 300 508 q 263 597 288 529 l 256 593 q 267 499 267 529 l 267 42 q 186 -3 267 -3 l 153 -3 q 72 42 72 -3 l 72 931 q 153 975 72 975 l 189 975 q 233 967 217 975 q 261 936 250 960 l 511 483 q 558 375 531 447 l 564 378 q 553 488 553 450 l 553 931 q 633 975 553 975 l 667 975 z "},"ǋ":{"ha":1165,"x_min":72,"x_max":1099,"o":"m 153 -3 q 72 42 72 -3 l 72 931 q 153 975 72 975 l 189 975 q 233 967 217 975 q 261 936 250 960 l 511 483 q 558 375 531 447 l 564 378 q 553 488 553 450 l 553 931 q 633 975 553 975 l 667 975 q 747 931 747 975 l 747 42 q 667 -3 747 -3 l 640 -3 q 594 5 613 -3 q 565 36 576 13 l 300 508 q 263 597 288 529 l 256 593 q 267 499 267 529 l 267 42 q 186 -3 267 -3 l 153 -3 m 913 -294 q 809 -278 843 -294 q 775 -224 775 -262 q 787 -160 775 -193 q 818 -126 799 -126 q 838 -129 825 -126 q 860 -132 851 -132 q 885 -118 878 -132 q 893 -72 893 -104 l 893 685 q 976 729 893 729 l 1015 729 q 1099 685 1099 729 l 1099 -69 q 1047 -237 1099 -179 q 913 -294 996 -294 m 1000 803 q 903 847 903 803 l 903 931 q 996 975 903 975 q 1093 931 1093 975 l 1093 847 q 1000 803 1093 803 z "},"Ñ":{"ha":819,"x_min":72,"x_max":747,"o":"m 153 -3 q 72 42 72 -3 l 72 931 q 153 975 72 975 l 189 975 q 233 967 217 975 q 261 936 250 960 l 511 483 q 558 375 531 447 l 564 378 q 553 488 553 450 l 553 931 q 633 975 553 975 l 667 975 q 747 931 747 975 l 747 42 q 667 -3 747 -3 l 640 -3 q 594 5 613 -3 q 565 36 576 13 l 300 508 q 263 597 288 529 l 256 593 q 267 499 267 529 l 267 42 q 186 -3 267 -3 l 153 -3 m 214 1056 q 182 1092 182 1064 q 188 1114 182 1101 q 235 1183 203 1156 q 313 1210 268 1210 q 404 1188 340 1210 q 438 1177 414 1185 q 474 1169 461 1169 q 510 1192 492 1169 q 526 1210 518 1204 q 547 1215 535 1215 q 567 1213 553 1215 l 581 1208 q 613 1172 613 1199 q 608 1151 613 1168 q 559 1082 593 1110 q 482 1054 525 1054 q 392 1076 456 1054 q 358 1087 383 1079 q 321 1094 333 1094 q 286 1072 301 1094 q 267 1054 276 1060 q 247 1049 258 1049 q 229 1051 240 1049 l 214 1056 z "},"O":{"ha":832,"x_min":53,"x_max":779,"o":"m 417 -11 q 53 486 53 -11 q 417 983 53 983 q 687 863 594 983 q 779 486 779 742 q 687 110 779 231 q 417 -11 594 -11 m 418 171 q 499 199 468 171 q 544 295 529 226 q 560 486 560 364 q 544 676 560 607 q 499 772 529 744 q 418 800 468 800 q 337 772 368 800 q 290 676 306 744 q 274 486 274 607 q 290 296 274 365 q 337 199 306 226 q 418 171 368 171 z "},"Ó":{"ha":832,"x_min":53,"x_max":779,"o":"m 417 -11 q 53 486 53 -11 q 417 983 53 983 q 687 863 594 983 q 779 486 779 742 q 687 110 779 231 q 417 -11 594 -11 m 418 171 q 499 199 468 171 q 544 295 529 226 q 560 486 560 364 q 544 676 560 607 q 499 772 529 744 q 418 800 468 800 q 337 772 368 800 q 290 676 306 744 q 274 486 274 607 q 290 296 274 365 q 337 199 306 226 q 418 171 368 171 m 388 1044 q 356 1049 364 1044 q 347 1065 347 1054 q 356 1093 347 1074 q 382 1143 365 1113 l 425 1228 q 535 1265 444 1265 q 592 1261 574 1265 q 610 1246 610 1257 q 600 1224 610 1238 q 565 1179 590 1210 q 534 1139 553 1163 q 488 1079 515 1115 q 454 1053 475 1063 q 388 1044 433 1044 z "},"Ŏ":{"ha":832,"x_min":53,"x_max":779,"o":"m 417 -11 q 53 486 53 -11 q 417 983 53 983 q 687 863 594 983 q 779 486 779 742 q 687 110 779 231 q 417 -11 594 -11 m 418 171 q 499 199 468 171 q 544 295 529 226 q 560 486 560 364 q 544 676 560 607 q 499 772 529 744 q 418 800 468 800 q 337 772 368 800 q 290 676 306 744 q 274 486 274 607 q 290 296 274 365 q 337 199 306 226 q 418 171 368 171 m 415 1044 q 281 1089 328 1044 q 235 1192 235 1133 q 290 1239 235 1239 q 332 1214 321 1239 q 340 1199 333 1211 q 366 1178 347 1186 q 417 1171 385 1171 q 475 1182 458 1171 q 497 1203 492 1193 q 503 1217 501 1214 q 517 1233 507 1226 q 542 1239 528 1239 q 597 1192 597 1239 q 578 1122 597 1156 q 517 1067 558 1089 q 415 1044 476 1044 z "},"Ô":{"ha":832,"x_min":53,"x_max":779,"o":"m 417 -11 q 53 486 53 -11 q 417 983 53 983 q 687 863 594 983 q 779 486 779 742 q 687 110 779 231 q 417 -11 594 -11 m 418 171 q 499 199 468 171 q 544 295 529 226 q 560 486 560 364 q 544 676 560 607 q 499 772 529 744 q 418 800 468 800 q 337 772 368 800 q 290 676 306 744 q 274 486 274 607 q 290 296 274 365 q 337 199 306 226 q 418 171 368 171 m 272 1040 q 243 1054 243 1040 q 253 1078 243 1061 l 335 1217 q 364 1238 346 1233 q 414 1243 382 1243 l 417 1243 q 467 1238 449 1243 q 496 1217 485 1233 l 579 1078 q 589 1054 589 1061 q 561 1040 589 1040 l 522 1040 q 451 1065 465 1040 l 415 1129 l 379 1067 q 310 1040 363 1040 l 272 1040 z "},"Ố":{"ha":813,"x_min":53,"x_max":779,"o":"m 551 1185 q 528 1190 535 1185 q 522 1206 522 1194 q 542 1264 522 1215 l 571 1340 q 675 1378 590 1378 q 717 1371 704 1378 q 731 1344 731 1364 q 713 1311 731 1335 q 628 1206 696 1288 q 601 1190 618 1196 q 551 1185 585 1185 m 271 1040 q 248 1043 254 1040 q 242 1054 242 1046 q 249 1075 242 1061 l 325 1217 q 353 1238 335 1233 q 404 1243 371 1243 l 407 1243 q 458 1238 440 1243 q 486 1217 476 1233 l 564 1075 q 571 1054 571 1061 q 543 1040 571 1040 l 504 1040 q 433 1065 447 1040 l 406 1129 l 378 1067 q 352 1045 369 1050 q 308 1040 335 1040 l 271 1040 m 417 -11 q 53 486 53 -11 q 417 983 53 983 q 687 863 594 983 q 779 486 779 742 q 687 110 779 231 q 417 -11 594 -11 m 418 171 q 499 199 468 171 q 544 295 529 226 q 560 486 560 364 q 544 676 560 607 q 499 772 529 744 q 418 800 468 800 q 337 772 368 800 q 290 676 306 744 q 274 486 274 607 q 290 296 274 365 q 337 199 306 226 q 418 171 368 171 z "},"Ộ":{"ha":832,"x_min":53,"x_max":779,"o":"m 417 -11 q 53 486 53 -11 q 417 983 53 983 q 687 863 594 983 q 779 486 779 742 q 687 110 779 231 q 417 -11 594 -11 m 418 171 q 499 199 468 171 q 544 295 529 226 q 560 486 560 364 q 544 676 560 607 q 499 772 529 744 q 418 800 468 800 q 337 772 368 800 q 290 676 306 744 q 274 486 274 607 q 290 296 274 365 q 337 199 306 226 q 418 171 368 171 m 422 -283 q 325 -239 325 -283 l 325 -156 q 418 -111 325 -111 q 515 -156 515 -111 l 515 -239 q 422 -283 515 -283 m 272 1040 q 243 1054 243 1040 q 253 1078 243 1061 l 335 1217 q 364 1238 346 1233 q 414 1243 382 1243 l 417 1243 q 467 1238 449 1243 q 496 1217 485 1233 l 579 1078 q 589 1054 589 1061 q 561 1040 589 1040 l 522 1040 q 451 1065 465 1040 l 415 1129 l 379 1067 q 310 1040 363 1040 l 272 1040 z "},"Ồ":{"ha":813,"x_min":53,"x_max":779,"o":"m 624 1185 q 572 1192 589 1185 q 543 1211 554 1199 l 517 1244 q 454 1324 467 1307 q 442 1350 442 1340 q 456 1372 442 1365 q 501 1378 471 1378 q 611 1340 593 1378 l 625 1301 q 658 1206 658 1218 q 651 1190 658 1194 q 624 1185 643 1185 m 271 1040 q 248 1043 254 1040 q 242 1054 242 1046 q 249 1075 242 1061 l 325 1217 q 353 1238 335 1233 q 404 1243 371 1243 l 407 1243 q 458 1238 440 1243 q 486 1217 476 1233 l 564 1075 q 571 1054 571 1061 q 543 1040 571 1040 l 504 1040 q 433 1065 447 1040 l 406 1129 l 378 1067 q 352 1045 369 1050 q 308 1040 335 1040 l 271 1040 m 417 -11 q 53 486 53 -11 q 417 983 53 983 q 687 863 594 983 q 779 486 779 742 q 687 110 779 231 q 417 -11 594 -11 m 418 171 q 499 199 468 171 q 544 295 529 226 q 560 486 560 364 q 544 676 560 607 q 499 772 529 744 q 418 800 468 800 q 337 772 368 800 q 290 676 306 744 q 274 486 274 607 q 290 296 274 365 q 337 199 306 226 q 418 171 368 171 z "},"Ổ":{"ha":813,"x_min":53,"x_max":779,"o":"m 585 1196 q 540 1204 557 1196 q 524 1225 524 1213 q 532 1235 524 1229 q 550 1247 540 1242 q 584 1266 575 1258 q 593 1286 593 1274 q 584 1303 593 1297 q 564 1310 575 1310 q 514 1298 533 1310 q 490 1286 494 1286 q 465 1308 482 1286 q 449 1344 449 1329 q 485 1371 449 1358 q 560 1383 522 1383 q 654 1358 619 1383 q 689 1292 689 1333 q 653 1226 689 1256 q 619 1206 639 1215 q 585 1196 600 1196 m 271 1040 q 248 1043 254 1040 q 242 1054 242 1046 q 249 1075 242 1061 l 325 1217 q 353 1238 335 1233 q 404 1243 371 1243 l 407 1243 q 458 1238 440 1243 q 486 1217 476 1233 l 564 1075 q 571 1054 571 1061 q 543 1040 571 1040 l 504 1040 q 433 1065 447 1040 l 406 1129 l 378 1067 q 352 1045 369 1050 q 308 1040 335 1040 l 271 1040 m 417 -11 q 53 486 53 -11 q 417 983 53 983 q 687 863 594 983 q 779 486 779 742 q 687 110 779 231 q 417 -11 594 -11 m 418 171 q 499 199 468 171 q 544 295 529 226 q 560 486 560 364 q 544 676 560 607 q 499 772 529 744 q 418 800 468 800 q 337 772 368 800 q 290 676 306 744 q 274 486 274 607 q 290 296 274 365 q 337 199 306 226 q 418 171 368 171 z "},"Ỗ":{"ha":813,"x_min":53,"x_max":779,"o":"m 243 1239 q 214 1275 214 1249 q 219 1297 214 1285 q 263 1366 233 1339 q 333 1393 293 1393 q 415 1371 360 1393 q 445 1360 424 1368 q 479 1353 467 1353 q 511 1375 496 1353 q 546 1399 528 1399 q 564 1396 553 1399 l 576 1392 q 606 1354 606 1382 q 603 1343 606 1349 q 601 1335 601 1338 q 558 1265 588 1293 q 488 1238 528 1238 q 406 1260 464 1238 q 376 1270 399 1263 q 340 1278 354 1278 q 308 1256 324 1278 q 292 1238 300 1243 q 274 1232 285 1232 q 257 1235 268 1232 l 243 1239 m 271 1040 q 248 1043 254 1040 q 242 1054 242 1046 q 254 1083 242 1061 l 325 1186 q 353 1207 336 1201 q 406 1213 371 1213 l 408 1213 q 459 1207 442 1213 q 488 1186 476 1201 l 558 1083 q 567 1067 564 1075 q 571 1054 571 1060 q 543 1040 571 1040 l 504 1040 q 462 1046 475 1040 q 436 1065 449 1051 l 407 1121 l 376 1067 q 349 1046 363 1051 q 308 1040 336 1040 l 271 1040 m 417 -11 q 53 486 53 -11 q 417 983 53 983 q 687 863 594 983 q 779 486 779 742 q 687 110 779 231 q 417 -11 594 -11 m 418 171 q 499 199 468 171 q 544 295 529 226 q 560 486 560 364 q 544 676 560 607 q 499 772 529 744 q 418 800 468 800 q 337 772 368 800 q 290 676 306 744 q 274 486 274 607 q 290 296 274 365 q 337 199 306 226 q 418 171 368 171 z "},"Ö":{"ha":832,"x_min":53,"x_max":779,"o":"m 417 -11 q 53 486 53 -11 q 417 983 53 983 q 687 863 594 983 q 779 486 779 742 q 687 110 779 231 q 417 -11 594 -11 m 418 171 q 499 199 468 171 q 544 295 529 226 q 560 486 560 364 q 544 676 560 607 q 499 772 529 744 q 418 800 468 800 q 337 772 368 800 q 290 676 306 744 q 274 486 274 607 q 290 296 274 365 q 337 199 306 226 q 418 171 368 171 m 307 1049 q 226 1093 226 1049 l 226 1176 q 304 1221 226 1221 q 385 1176 385 1221 l 385 1093 q 307 1049 385 1049 m 532 1049 q 451 1093 451 1049 l 451 1176 q 529 1221 451 1221 q 610 1176 610 1221 l 610 1093 q 532 1049 610 1049 z "},"Ọ":{"ha":832,"x_min":53,"x_max":779,"o":"m 417 -11 q 53 486 53 -11 q 417 983 53 983 q 687 863 594 983 q 779 486 779 742 q 687 110 779 231 q 417 -11 594 -11 m 418 171 q 499 199 468 171 q 544 295 529 226 q 560 486 560 364 q 544 676 560 607 q 499 772 529 744 q 418 800 468 800 q 337 772 368 800 q 290 676 306 744 q 274 486 274 607 q 290 296 274 365 q 337 199 306 226 q 418 171 368 171 m 422 -283 q 325 -239 325 -283 l 325 -156 q 418 -111 325 -111 q 515 -156 515 -111 l 515 -239 q 422 -283 515 -283 z "},"Ò":{"ha":832,"x_min":53,"x_max":779,"o":"m 417 -11 q 53 486 53 -11 q 417 983 53 983 q 687 863 594 983 q 779 486 779 742 q 687 110 779 231 q 417 -11 594 -11 m 418 171 q 499 199 468 171 q 544 295 529 226 q 560 486 560 364 q 544 676 560 607 q 499 772 529 744 q 418 800 468 800 q 337 772 368 800 q 290 676 306 744 q 274 486 274 607 q 290 296 274 365 q 337 199 306 226 q 418 171 368 171 m 438 1044 q 371 1054 392 1044 q 339 1079 350 1064 l 268 1168 q 227 1221 239 1204 q 215 1246 215 1238 q 233 1261 215 1257 q 290 1265 251 1265 q 401 1228 381 1265 q 458 1117 439 1157 q 478 1065 478 1076 q 469 1049 478 1053 q 438 1044 461 1044 z "},"Ỏ":{"ha":832,"x_min":53,"x_max":779,"o":"m 417 -11 q 53 486 53 -11 q 417 983 53 983 q 687 863 594 983 q 779 486 779 742 q 687 110 779 231 q 417 -11 594 -11 m 418 171 q 499 199 468 171 q 544 295 529 226 q 560 486 560 364 q 544 676 560 607 q 499 772 529 744 q 418 800 468 800 q 337 772 368 800 q 290 676 306 744 q 274 486 274 607 q 290 296 274 365 q 337 199 306 226 q 418 171 368 171 m 450 1038 q 401 1049 426 1038 q 375 1069 375 1061 q 411 1107 375 1081 q 453 1142 438 1126 q 468 1174 468 1158 q 455 1196 468 1188 q 424 1204 442 1204 q 388 1196 406 1204 q 365 1188 371 1188 q 340 1209 357 1188 q 324 1246 324 1231 q 361 1274 324 1260 q 435 1289 399 1289 q 549 1260 508 1289 q 589 1179 589 1231 q 561 1113 589 1146 q 499 1059 533 1081 q 450 1038 464 1038 z "},"Ơ":{"ha":832,"x_min":53,"x_max":838,"o":"m 417 -11 q 53 486 53 -11 q 417 983 53 983 q 626 919 542 983 q 679 904 649 904 q 728 947 728 904 q 704 1000 728 971 q 697 1010 703 1001 q 690 1026 690 1019 q 706 1053 690 1043 l 750 1083 q 772 1090 758 1090 q 817 1050 797 1090 q 838 975 838 1010 q 803 884 838 918 q 697 844 768 850 q 779 486 779 719 q 687 110 779 231 q 417 -11 594 -11 m 418 171 q 499 199 468 171 q 544 295 529 226 q 560 486 560 364 q 544 676 560 607 q 499 772 529 744 q 418 800 468 800 q 337 772 368 800 q 290 676 306 744 q 274 486 274 607 q 290 296 274 365 q 337 199 306 226 q 418 171 368 171 z "},"Ớ":{"ha":832,"x_min":53,"x_max":838,"o":"m 417 -11 q 53 486 53 -11 q 417 983 53 983 q 626 919 542 983 q 679 904 649 904 q 728 947 728 904 q 704 1000 728 971 q 697 1010 703 1001 q 690 1026 690 1019 q 706 1053 690 1043 l 750 1083 q 772 1090 758 1090 q 817 1050 797 1090 q 838 975 838 1010 q 803 884 838 918 q 697 844 768 850 q 779 486 779 719 q 687 110 779 231 q 417 -11 594 -11 m 418 171 q 499 199 468 171 q 544 295 529 226 q 560 486 560 364 q 544 676 560 607 q 499 772 529 744 q 418 800 468 800 q 337 772 368 800 q 290 676 306 744 q 274 486 274 607 q 290 296 274 365 q 337 199 306 226 q 418 171 368 171 m 388 1044 q 356 1049 364 1044 q 347 1065 347 1054 q 356 1093 347 1074 q 382 1143 365 1113 l 425 1228 q 535 1265 444 1265 q 592 1261 574 1265 q 610 1246 610 1257 q 600 1224 610 1238 q 565 1179 590 1210 q 534 1139 553 1163 q 488 1079 515 1115 q 454 1053 475 1063 q 388 1044 433 1044 z "},"Ợ":{"ha":832,"x_min":53,"x_max":838,"o":"m 417 -11 q 53 486 53 -11 q 417 983 53 983 q 626 919 542 983 q 679 904 649 904 q 728 947 728 904 q 704 1000 728 971 q 697 1010 703 1001 q 690 1026 690 1019 q 706 1053 690 1043 l 750 1083 q 772 1090 758 1090 q 817 1050 797 1090 q 838 975 838 1010 q 803 884 838 918 q 697 844 768 850 q 779 486 779 719 q 687 110 779 231 q 417 -11 594 -11 m 418 171 q 499 199 468 171 q 544 295 529 226 q 560 486 560 364 q 544 676 560 607 q 499 772 529 744 q 418 800 468 800 q 337 772 368 800 q 290 676 306 744 q 274 486 274 607 q 290 296 274 365 q 337 199 306 226 q 418 171 368 171 m 422 -283 q 325 -239 325 -283 l 325 -156 q 418 -111 325 -111 q 515 -156 515 -111 l 515 -239 q 422 -283 515 -283 z "},"Ờ":{"ha":832,"x_min":53,"x_max":838,"o":"m 417 -11 q 53 486 53 -11 q 417 983 53 983 q 626 919 542 983 q 679 904 649 904 q 728 947 728 904 q 704 1000 728 971 q 697 1010 703 1001 q 690 1026 690 1019 q 706 1053 690 1043 l 750 1083 q 772 1090 758 1090 q 817 1050 797 1090 q 838 975 838 1010 q 803 884 838 918 q 697 844 768 850 q 779 486 779 719 q 687 110 779 231 q 417 -11 594 -11 m 418 171 q 499 199 468 171 q 544 295 529 226 q 560 486 560 364 q 544 676 560 607 q 499 772 529 744 q 418 800 468 800 q 337 772 368 800 q 290 676 306 744 q 274 486 274 607 q 290 296 274 365 q 337 199 306 226 q 418 171 368 171 m 438 1044 q 371 1054 392 1044 q 339 1079 350 1064 l 268 1168 q 227 1221 239 1204 q 215 1246 215 1238 q 233 1261 215 1257 q 290 1265 251 1265 q 401 1228 381 1265 q 458 1117 439 1157 q 478 1065 478 1076 q 469 1049 478 1053 q 438 1044 461 1044 z "},"Ở":{"ha":832,"x_min":53,"x_max":838,"o":"m 417 -11 q 53 486 53 -11 q 417 983 53 983 q 626 919 542 983 q 679 904 649 904 q 728 947 728 904 q 704 1000 728 971 q 697 1010 703 1001 q 690 1026 690 1019 q 706 1053 690 1043 l 750 1083 q 772 1090 758 1090 q 817 1050 797 1090 q 838 975 838 1010 q 803 884 838 918 q 697 844 768 850 q 779 486 779 719 q 687 110 779 231 q 417 -11 594 -11 m 418 171 q 499 199 468 171 q 544 295 529 226 q 560 486 560 364 q 544 676 560 607 q 499 772 529 744 q 418 800 468 800 q 337 772 368 800 q 290 676 306 744 q 274 486 274 607 q 290 296 274 365 q 337 199 306 226 q 418 171 368 171 m 450 1038 q 401 1049 426 1038 q 375 1069 375 1061 q 411 1107 375 1081 q 453 1142 438 1126 q 468 1174 468 1158 q 455 1196 468 1188 q 424 1204 442 1204 q 388 1196 406 1204 q 365 1188 371 1188 q 340 1209 357 1188 q 324 1246 324 1231 q 361 1274 324 1260 q 435 1289 399 1289 q 549 1260 508 1289 q 589 1179 589 1231 q 561 1113 589 1146 q 499 1059 533 1081 q 450 1038 464 1038 z "},"Ỡ":{"ha":832,"x_min":53,"x_max":838,"o":"m 417 -11 q 53 486 53 -11 q 417 983 53 983 q 626 919 542 983 q 679 904 649 904 q 728 947 728 904 q 704 1000 728 971 q 697 1010 703 1001 q 690 1026 690 1019 q 706 1053 690 1043 l 750 1083 q 772 1090 758 1090 q 817 1050 797 1090 q 838 975 838 1010 q 803 884 838 918 q 697 844 768 850 q 779 486 779 719 q 687 110 779 231 q 417 -11 594 -11 m 418 171 q 499 199 468 171 q 544 295 529 226 q 560 486 560 364 q 544 676 560 607 q 499 772 529 744 q 418 800 468 800 q 337 772 368 800 q 290 676 306 744 q 274 486 274 607 q 290 296 274 365 q 337 199 306 226 q 418 171 368 171 m 221 1056 q 189 1092 189 1064 q 194 1114 189 1101 q 242 1183 210 1156 q 319 1210 275 1210 q 411 1188 347 1210 q 444 1177 421 1185 q 481 1169 468 1169 q 517 1192 499 1169 q 533 1210 525 1204 q 554 1215 542 1215 q 574 1213 560 1215 l 588 1208 q 619 1172 619 1199 q 615 1151 619 1168 q 566 1082 600 1110 q 489 1054 532 1054 q 399 1076 463 1054 q 365 1087 390 1079 q 328 1094 340 1094 q 293 1072 308 1094 q 274 1054 283 1060 q 254 1049 265 1049 q 236 1051 247 1049 l 221 1056 z "},"Ő":{"ha":832,"x_min":53,"x_max":779,"o":"m 417 -11 q 53 486 53 -11 q 417 983 53 983 q 687 863 594 983 q 779 486 779 742 q 687 110 779 231 q 417 -11 594 -11 m 418 171 q 499 199 468 171 q 544 295 529 226 q 560 486 560 364 q 544 676 560 607 q 499 772 529 744 q 418 800 468 800 q 337 772 368 800 q 290 676 306 744 q 274 486 274 607 q 290 296 274 365 q 337 199 306 226 q 418 171 368 171 m 265 1044 q 233 1049 242 1044 q 225 1065 225 1053 q 247 1118 225 1074 q 301 1228 269 1160 q 413 1265 319 1265 q 469 1261 451 1265 q 488 1246 488 1257 q 478 1224 488 1238 q 444 1179 468 1210 q 367 1079 414 1143 q 332 1053 353 1063 q 265 1044 311 1044 m 494 1044 q 463 1049 471 1044 q 454 1065 454 1054 q 465 1093 454 1072 q 478 1119 475 1114 l 532 1228 q 642 1265 550 1265 q 699 1261 681 1265 q 717 1246 717 1257 q 707 1224 717 1238 q 672 1179 697 1210 q 641 1139 660 1163 q 594 1079 622 1115 q 562 1053 582 1063 q 494 1044 542 1044 z "},"Ō":{"ha":832,"x_min":53,"x_max":779,"o":"m 417 -11 q 53 486 53 -11 q 417 983 53 983 q 687 863 594 983 q 779 486 779 742 q 687 110 779 231 q 417 -11 594 -11 m 418 171 q 499 199 468 171 q 544 295 529 226 q 560 486 560 364 q 544 676 560 607 q 499 772 529 744 q 418 800 468 800 q 337 772 368 800 q 290 676 306 744 q 274 486 274 607 q 290 296 274 365 q 337 199 306 226 q 418 171 368 171 m 283 1075 q 253 1088 263 1075 q 243 1131 243 1101 l 243 1151 q 253 1194 243 1181 q 283 1207 263 1207 l 549 1207 q 580 1194 571 1207 q 589 1151 589 1181 l 589 1131 q 580 1088 589 1101 q 549 1075 571 1075 l 283 1075 z "},"Ǫ":{"ha":832,"x_min":53,"x_max":779,"o":"m 779 486 q 518 0 779 63 q 497 -97 497 -53 q 565 -158 497 -158 q 585 -156 576 -158 q 599 -153 593 -153 q 631 -162 621 -153 q 640 -194 640 -171 q 617 -237 640 -224 q 539 -254 582 -254 q 432 -212 460 -254 q 404 -124 404 -171 q 431 -11 404 -68 l 417 -11 q 53 486 53 -11 q 417 983 53 983 q 687 863 594 983 q 779 486 779 742 m 274 486 q 290 296 274 365 q 337 199 306 226 q 418 171 368 171 q 499 199 468 171 q 544 295 529 226 q 560 486 560 364 q 544 676 560 607 q 499 772 529 744 q 418 800 468 800 q 337 772 368 800 q 290 676 306 744 q 274 486 274 607 z "},"Ø":{"ha":832,"x_min":40,"x_max":779,"o":"m 701 840 q 779 486 779 718 q 687 110 779 231 q 417 -11 594 -11 q 192 61 278 -11 l 144 -10 q 111 -32 131 -32 q 66 -12 92 -32 q 40 25 40 7 q 50 50 40 36 l 118 154 q 53 486 53 274 q 417 983 53 983 q 624 925 540 983 l 668 992 q 683 1008 676 1003 q 700 1014 690 1014 q 745 994 719 1014 q 771 957 771 975 q 761 931 771 943 l 701 840 m 274 486 q 276 394 274 450 l 513 756 q 418 800 482 800 q 337 772 368 800 q 290 676 306 744 q 274 486 274 607 m 418 171 q 499 199 468 171 q 544 295 529 226 q 560 486 560 364 q 554 615 560 567 l 308 240 q 352 187 325 203 q 418 171 379 171 z "},"Ǿ":{"ha":832,"x_min":40,"x_max":779,"o":"m 701 840 q 779 486 779 718 q 687 110 779 231 q 417 -11 594 -11 q 192 61 278 -11 l 144 -10 q 111 -32 131 -32 q 66 -12 92 -32 q 40 25 40 7 q 50 50 40 36 l 118 154 q 53 486 53 274 q 417 983 53 983 q 624 925 540 983 l 668 992 q 683 1008 676 1003 q 700 1014 690 1014 q 745 994 719 1014 q 771 957 771 975 q 761 931 771 943 l 701 840 m 274 486 q 276 394 274 450 l 513 756 q 418 800 482 800 q 337 772 368 800 q 290 676 306 744 q 274 486 274 607 m 418 171 q 499 199 468 171 q 544 295 529 226 q 560 486 560 364 q 554 615 560 567 l 308 240 q 352 187 325 203 q 418 171 379 171 m 388 1044 q 356 1049 364 1044 q 347 1065 347 1054 q 356 1093 347 1074 q 382 1143 365 1113 l 425 1228 q 535 1265 444 1265 q 592 1261 574 1265 q 610 1246 610 1257 q 600 1224 610 1238 q 565 1179 590 1210 q 534 1139 553 1163 q 488 1079 515 1115 q 454 1053 475 1063 q 388 1044 433 1044 z "},"Õ":{"ha":832,"x_min":53,"x_max":779,"o":"m 417 -11 q 53 486 53 -11 q 417 983 53 983 q 687 863 594 983 q 779 486 779 742 q 687 110 779 231 q 417 -11 594 -11 m 418 171 q 499 199 468 171 q 544 295 529 226 q 560 486 560 364 q 544 676 560 607 q 499 772 529 744 q 418 800 468 800 q 337 772 368 800 q 290 676 306 744 q 274 486 274 607 q 290 296 274 365 q 337 199 306 226 q 418 171 368 171 m 221 1056 q 189 1092 189 1064 q 194 1114 189 1101 q 242 1183 210 1156 q 319 1210 275 1210 q 411 1188 347 1210 q 444 1177 421 1185 q 481 1169 468 1169 q 517 1192 499 1169 q 533 1210 525 1204 q 554 1215 542 1215 q 574 1213 560 1215 l 588 1208 q 619 1172 619 1199 q 615 1151 619 1168 q 566 1082 600 1110 q 489 1054 532 1054 q 399 1076 463 1054 q 365 1087 390 1079 q 328 1094 340 1094 q 293 1072 308 1094 q 274 1054 283 1060 q 254 1049 265 1049 q 236 1051 247 1049 l 221 1056 z "},"Œ":{"ha":1143,"x_min":51,"x_max":1086,"o":"m 1047 182 q 1076 165 1067 182 q 1086 113 1086 149 l 1086 69 q 1076 17 1086 33 q 1047 0 1067 0 l 613 0 q 576 10 589 0 q 563 42 564 19 q 483 1 524 14 q 393 -11 442 -11 q 140 112 229 -11 q 51 486 51 235 q 140 861 51 739 q 393 983 229 983 q 483 971 443 983 q 561 929 524 958 q 576 962 564 951 q 613 972 588 972 l 1046 972 q 1076 956 1067 972 q 1085 903 1085 939 l 1085 860 q 1076 807 1085 824 q 1046 790 1067 790 l 778 790 l 778 589 l 1017 589 q 1048 572 1039 589 q 1057 519 1057 556 l 1057 476 q 1048 424 1057 440 q 1017 407 1039 407 l 778 407 l 778 182 l 1047 182 m 418 171 q 498 199 467 171 q 544 297 529 228 q 560 486 560 365 q 544 675 560 607 q 499 772 529 743 q 418 800 468 800 q 337 772 368 800 q 290 675 306 743 q 274 486 274 607 q 290 297 274 365 q 337 199 306 228 q 418 171 368 171 z "},"P":{"ha":669,"x_min":76,"x_max":650,"o":"m 160 -3 q 76 42 76 -3 l 76 917 q 90 959 76 946 q 132 972 103 972 l 372 972 q 566 909 482 972 q 650 668 650 846 q 601 478 650 546 q 493 388 553 411 q 386 364 433 364 l 290 364 l 290 42 q 207 -3 290 -3 l 160 -3 m 363 543 q 418 571 394 543 q 442 668 442 599 q 418 763 442 736 q 363 790 394 790 l 289 790 l 289 543 l 363 543 z "},"Þ":{"ha":669,"x_min":76,"x_max":650,"o":"m 157 -3 q 76 42 76 -3 l 76 931 q 157 975 76 975 l 213 975 q 293 931 293 975 l 293 821 l 372 821 q 566 758 482 821 q 650 517 650 694 q 601 327 650 394 q 493 236 553 260 q 386 213 433 213 l 293 213 l 293 42 q 213 -3 293 -3 l 157 -3 m 363 392 q 419 419 396 392 q 442 517 442 447 q 419 612 442 585 q 363 639 396 639 l 293 639 l 293 392 l 363 392 z "},"Q":{"ha":832,"x_min":53,"x_max":811,"o":"m 718 -221 q 699 -213 713 -221 q 678 -201 685 -206 q 254 22 518 -106 q 103 185 154 72 q 53 486 53 299 q 417 983 53 983 q 687 863 594 983 q 779 486 779 742 q 601 36 779 139 l 601 31 l 794 -65 q 811 -90 811 -72 q 794 -135 810 -103 q 758 -194 779 -168 q 718 -221 738 -221 m 418 168 q 499 197 468 168 q 544 294 529 225 q 560 486 560 364 q 544 676 560 607 q 499 772 529 744 q 418 800 468 800 q 337 772 368 800 q 290 676 306 744 q 274 486 274 607 q 290 294 274 364 q 337 197 306 225 q 418 168 368 168 z "},"R":{"ha":713,"x_min":75,"x_max":693,"o":"m 158 -3 q 75 42 75 -3 l 75 917 q 88 959 75 946 q 131 972 101 972 l 363 972 q 568 909 490 972 q 646 699 646 846 q 514 464 646 536 l 514 458 q 569 403 544 442 q 607 319 594 364 l 689 53 q 693 36 693 36 q 607 -1 693 -1 l 558 -1 q 475 36 485 -1 l 401 300 q 373 343 389 331 q 322 356 357 356 l 289 356 l 289 42 q 206 -3 289 -3 l 158 -3 m 367 558 q 419 589 397 558 q 440 678 440 619 q 419 763 440 736 q 363 790 397 790 l 289 790 l 289 558 l 367 558 z "},"Ŕ":{"ha":713,"x_min":75,"x_max":693,"o":"m 158 -3 q 75 42 75 -3 l 75 917 q 88 959 75 946 q 131 972 101 972 l 363 972 q 568 909 490 972 q 646 699 646 846 q 514 464 646 536 l 514 458 q 569 403 544 442 q 607 319 594 364 l 689 53 q 693 36 693 36 q 607 -1 693 -1 l 558 -1 q 475 36 485 -1 l 401 300 q 373 343 389 331 q 322 356 357 356 l 289 356 l 289 42 q 206 -3 289 -3 l 158 -3 m 367 558 q 419 589 397 558 q 440 678 440 619 q 419 763 440 736 q 363 790 397 790 l 289 790 l 289 558 l 367 558 m 319 1044 q 288 1049 296 1044 q 279 1065 279 1054 q 288 1093 279 1074 q 314 1143 297 1113 l 357 1228 q 467 1265 376 1265 q 524 1261 506 1265 q 542 1246 542 1257 q 532 1224 542 1238 q 497 1179 522 1210 q 466 1139 485 1163 q 419 1079 447 1115 q 386 1053 407 1063 q 319 1044 365 1044 z "},"Ř":{"ha":713,"x_min":75,"x_max":693,"o":"m 158 -3 q 75 42 75 -3 l 75 917 q 88 959 75 946 q 131 972 101 972 l 363 972 q 568 909 490 972 q 646 699 646 846 q 514 464 646 536 l 514 458 q 569 403 544 442 q 607 319 594 364 l 689 53 q 693 36 693 36 q 607 -1 693 -1 l 558 -1 q 475 36 485 -1 l 401 300 q 373 343 389 331 q 322 356 357 356 l 289 356 l 289 42 q 206 -3 289 -3 l 158 -3 m 367 558 q 419 589 397 558 q 440 678 440 619 q 419 763 440 736 q 363 790 397 790 l 289 790 l 289 558 l 367 558 m 343 1040 q 294 1045 311 1040 q 267 1067 278 1050 l 185 1206 q 175 1229 175 1222 q 204 1243 175 1243 l 242 1243 q 311 1217 294 1243 l 347 1154 l 383 1218 q 454 1243 397 1243 l 493 1243 q 521 1229 521 1243 q 511 1206 521 1222 l 428 1067 q 399 1045 417 1050 q 351 1040 382 1040 l 343 1040 z "},"Ŗ":{"ha":713,"x_min":75,"x_max":693,"o":"m 158 -3 q 75 42 75 -3 l 75 917 q 88 959 75 946 q 131 972 101 972 l 363 972 q 568 909 490 972 q 646 699 646 846 q 514 464 646 536 l 514 458 q 569 403 544 442 q 607 319 594 364 l 689 53 q 693 36 693 36 q 607 -1 693 -1 l 558 -1 q 475 36 485 -1 l 401 300 q 373 343 389 331 q 322 356 357 356 l 289 356 l 289 42 q 206 -3 289 -3 l 158 -3 m 367 558 q 419 589 397 558 q 440 678 440 619 q 419 763 440 736 q 363 790 397 790 l 289 790 l 289 558 l 367 558 m 325 -333 q 283 -326 303 -333 q 264 -303 264 -318 q 267 -274 264 -299 q 278 -132 278 -203 q 358 -71 278 -71 l 386 -71 q 449 -132 449 -71 q 427 -223 449 -176 q 376 -301 406 -269 q 325 -333 346 -333 z "},"Ṛ":{"ha":713,"x_min":75,"x_max":693,"o":"m 158 -3 q 75 42 75 -3 l 75 917 q 88 959 75 946 q 131 972 101 972 l 363 972 q 568 909 490 972 q 646 699 646 846 q 514 464 646 536 l 514 458 q 569 403 544 442 q 607 319 594 364 l 689 53 q 693 36 693 36 q 607 -1 693 -1 l 558 -1 q 475 36 485 -1 l 401 300 q 373 343 389 331 q 322 356 357 356 l 289 356 l 289 42 q 206 -3 289 -3 l 158 -3 m 367 558 q 419 589 397 558 q 440 678 440 619 q 419 763 440 736 q 363 790 397 790 l 289 790 l 289 558 l 367 558 m 369 -283 q 272 -239 272 -283 l 272 -156 q 365 -111 272 -111 q 463 -156 463 -111 l 463 -239 q 369 -283 463 -283 z "},"S":{"ha":607,"x_min":36,"x_max":589,"o":"m 286 -11 q 151 9 218 -11 q 54 64 85 29 q 36 113 36 89 q 57 192 36 151 q 103 232 78 232 q 138 218 114 232 q 174 199 163 204 q 269 171 228 171 q 344 192 313 171 q 376 263 376 213 q 360 326 376 300 q 319 369 343 353 q 249 411 294 386 q 96 538 143 471 q 49 717 49 604 q 128 913 49 842 q 340 983 208 983 q 440 969 388 983 q 522 933 493 954 q 547 885 547 915 q 531 808 547 849 q 492 768 515 768 q 451 779 481 768 q 361 800 397 800 q 285 776 306 800 q 264 722 264 753 q 291 644 264 671 q 376 585 318 617 l 408 567 q 547 447 504 511 q 589 279 589 383 q 556 135 589 201 q 454 29 522 69 q 286 -11 386 -11 z "},"Ś":{"ha":607,"x_min":36,"x_max":589,"o":"m 286 -11 q 151 9 218 -11 q 54 64 85 29 q 36 113 36 89 q 57 192 36 151 q 103 232 78 232 q 138 218 114 232 q 174 199 163 204 q 269 171 228 171 q 344 192 313 171 q 376 263 376 213 q 360 326 376 300 q 319 369 343 353 q 249 411 294 386 q 96 538 143 471 q 49 717 49 604 q 128 913 49 842 q 340 983 208 983 q 440 969 388 983 q 522 933 493 954 q 547 885 547 915 q 531 808 547 849 q 492 768 515 768 q 451 779 481 768 q 361 800 397 800 q 285 776 306 800 q 264 722 264 753 q 291 644 264 671 q 376 585 318 617 l 408 567 q 547 447 504 511 q 589 279 589 383 q 556 135 589 201 q 454 29 522 69 q 286 -11 386 -11 m 274 1044 q 242 1049 250 1044 q 233 1065 233 1054 q 242 1093 233 1074 q 268 1143 251 1113 l 311 1228 q 421 1265 331 1265 q 478 1261 460 1265 q 496 1246 496 1257 q 486 1224 496 1238 q 451 1179 476 1210 q 420 1139 439 1163 q 374 1079 401 1115 q 340 1053 361 1063 q 274 1044 319 1044 z "},"Š":{"ha":607,"x_min":36,"x_max":589,"o":"m 286 -11 q 151 9 218 -11 q 54 64 85 29 q 36 113 36 89 q 57 192 36 151 q 103 232 78 232 q 138 218 114 232 q 174 199 163 204 q 269 171 228 171 q 344 192 313 171 q 376 263 376 213 q 360 326 376 300 q 319 369 343 353 q 249 411 294 386 q 96 538 143 471 q 49 717 49 604 q 128 913 49 842 q 340 983 208 983 q 440 969 388 983 q 522 933 493 954 q 547 885 547 915 q 531 808 547 849 q 492 768 515 768 q 451 779 481 768 q 361 800 397 800 q 285 776 306 800 q 264 722 264 753 q 291 644 264 671 q 376 585 318 617 l 408 567 q 547 447 504 511 q 589 279 589 383 q 556 135 589 201 q 454 29 522 69 q 286 -11 386 -11 m 297 1040 q 249 1045 265 1040 q 221 1067 232 1050 l 139 1206 q 129 1229 129 1222 q 158 1243 129 1243 l 196 1243 q 265 1217 249 1243 l 301 1154 l 338 1218 q 408 1243 351 1243 l 447 1243 q 475 1229 475 1243 q 465 1206 475 1222 l 382 1067 q 353 1045 371 1050 q 306 1040 336 1040 l 297 1040 z "},"Ş":{"ha":607,"x_min":36,"x_max":589,"o":"m 589 279 q 528 92 589 172 q 351 -6 468 13 l 333 -67 q 398 -99 374 -74 q 422 -169 422 -125 q 383 -262 422 -231 q 278 -294 344 -294 q 174 -273 218 -294 q 131 -222 131 -251 q 147 -181 131 -197 q 175 -164 163 -164 q 210 -176 188 -164 q 229 -185 213 -178 q 265 -193 246 -193 q 293 -171 293 -193 q 285 -153 293 -160 q 261 -140 278 -147 q 236 -127 244 -133 q 228 -110 228 -121 q 260 -10 228 -96 q 140 13 197 -7 q 54 64 82 33 q 36 113 36 89 q 57 192 36 151 q 103 232 78 232 q 138 218 114 232 q 174 199 163 204 q 269 171 228 171 q 344 192 313 171 q 376 263 376 213 q 360 326 376 300 q 319 369 343 353 q 249 411 294 386 q 96 538 143 471 q 49 717 49 604 q 128 913 49 842 q 340 983 208 983 q 440 969 388 983 q 522 933 493 954 q 547 885 547 915 q 531 808 547 849 q 492 768 515 768 q 451 779 481 768 q 361 800 397 800 q 285 776 306 800 q 264 722 264 753 q 291 644 264 671 q 376 585 318 617 l 408 567 q 547 447 504 511 q 589 279 589 383 z "},"Ŝ":{"ha":607,"x_min":36,"x_max":589,"o":"m 286 -11 q 151 9 218 -11 q 54 64 85 29 q 36 113 36 89 q 57 192 36 151 q 103 232 78 232 q 138 218 114 232 q 174 199 163 204 q 269 171 228 171 q 344 192 313 171 q 376 263 376 213 q 360 326 376 300 q 319 369 343 353 q 249 411 294 386 q 96 538 143 471 q 49 717 49 604 q 128 913 49 842 q 340 983 208 983 q 440 969 388 983 q 522 933 493 954 q 547 885 547 915 q 531 808 547 849 q 492 768 515 768 q 451 779 481 768 q 361 800 397 800 q 285 776 306 800 q 264 722 264 753 q 291 644 264 671 q 376 585 318 617 l 408 567 q 547 447 504 511 q 589 279 589 383 q 556 135 589 201 q 454 29 522 69 q 286 -11 386 -11 m 158 1040 q 129 1054 129 1040 q 139 1078 129 1061 l 221 1217 q 250 1238 232 1233 q 300 1243 268 1243 l 303 1243 q 353 1238 335 1243 q 382 1217 371 1233 l 465 1078 q 475 1054 475 1061 q 447 1040 475 1040 l 408 1040 q 338 1065 351 1040 l 301 1129 l 265 1067 q 196 1040 249 1040 l 158 1040 z "},"Ș":{"ha":607,"x_min":36,"x_max":589,"o":"m 286 -11 q 151 9 218 -11 q 54 64 85 29 q 36 113 36 89 q 57 192 36 151 q 103 232 78 232 q 138 218 114 232 q 174 199 163 204 q 269 171 228 171 q 344 192 313 171 q 376 263 376 213 q 360 326 376 300 q 319 369 343 353 q 249 411 294 386 q 96 538 143 471 q 49 717 49 604 q 128 913 49 842 q 340 983 208 983 q 440 969 388 983 q 522 933 493 954 q 547 885 547 915 q 531 808 547 849 q 492 768 515 768 q 451 779 481 768 q 361 800 397 800 q 285 776 306 800 q 264 722 264 753 q 291 644 264 671 q 376 585 318 617 l 408 567 q 547 447 504 511 q 589 279 589 383 q 556 135 589 201 q 454 29 522 69 q 286 -11 386 -11 m 264 -333 q 222 -326 242 -333 q 203 -303 203 -318 q 206 -274 203 -299 q 217 -132 217 -203 q 297 -71 217 -71 l 325 -71 q 388 -132 388 -71 q 366 -223 388 -176 q 315 -301 344 -269 q 264 -333 285 -333 z "},"Ṣ":{"ha":607,"x_min":36,"x_max":589,"o":"m 286 -11 q 151 9 218 -11 q 54 64 85 29 q 36 113 36 89 q 57 192 36 151 q 103 232 78 232 q 138 218 114 232 q 174 199 163 204 q 269 171 228 171 q 344 192 313 171 q 376 263 376 213 q 360 326 376 300 q 319 369 343 353 q 249 411 294 386 q 96 538 143 471 q 49 717 49 604 q 128 913 49 842 q 340 983 208 983 q 440 969 388 983 q 522 933 493 954 q 547 885 547 915 q 531 808 547 849 q 492 768 515 768 q 451 779 481 768 q 361 800 397 800 q 285 776 306 800 q 264 722 264 753 q 291 644 264 671 q 376 585 318 617 l 408 567 q 547 447 504 511 q 589 279 589 383 q 556 135 589 201 q 454 29 522 69 q 286 -11 386 -11 m 308 -283 q 211 -239 211 -283 l 211 -156 q 304 -111 211 -111 q 401 -156 401 -111 l 401 -239 q 308 -283 401 -283 z "},"ẞ":{"ha":824,"x_min":65,"x_max":792,"o":"m 525 -11 q 442 -1 490 -11 q 358 30 394 8 q 322 83 322 51 q 333 123 322 97 q 360 169 344 149 q 390 189 375 189 q 417 178 396 189 q 457 159 438 167 q 499 151 476 151 q 562 186 540 151 q 583 286 583 221 q 556 392 583 356 q 475 428 528 428 l 453 428 q 417 474 436 428 q 399 551 399 521 q 401 565 399 560 l 515 793 q 408 800 464 800 q 281 599 281 800 l 281 42 q 197 -3 281 -3 l 149 -3 q 65 42 65 -3 l 65 600 q 153 886 65 789 q 413 983 242 983 q 563 976 485 983 q 701 958 642 969 q 735 908 717 957 q 753 831 753 860 q 751 819 753 822 l 628 569 q 747 468 703 531 q 792 283 792 406 q 721 67 792 146 q 525 -11 650 -11 z "},"Ə":{"ha":778,"x_min":43,"x_max":706,"o":"m 365 -1 q 116 116 189 -1 q 43 440 43 233 q 72 490 43 457 q 114 522 100 522 l 493 522 q 471 703 490 639 q 418 790 451 767 q 333 813 385 813 q 249 801 285 813 q 168 772 213 790 q 131 758 140 758 q 84 798 110 758 q 58 865 58 838 q 105 927 58 900 q 219 969 151 954 q 343 983 286 983 q 617 852 529 983 q 706 460 706 721 q 618 110 706 221 q 365 -1 531 -1 m 363 165 q 453 214 424 165 q 494 385 483 263 l 242 385 q 267 220 242 275 q 363 165 292 165 z "},"T":{"ha":631,"x_min":11,"x_max":621,"o":"m 286 -3 q 206 42 206 -3 l 206 790 l 51 790 q 21 807 31 790 q 11 860 11 824 l 11 903 q 21 956 11 939 q 51 972 31 972 l 579 972 q 611 956 601 972 q 621 903 621 939 l 621 860 q 611 807 621 824 q 579 790 601 790 l 424 790 l 424 42 q 343 -3 424 -3 l 286 -3 z "},"Ŧ":{"ha":610,"x_min":11,"x_max":621,"o":"m 579 972 q 611 956 601 972 q 621 903 621 939 l 621 860 q 611 807 621 824 q 579 790 601 790 l 424 790 l 424 553 l 501 553 q 533 540 524 553 q 542 497 542 526 l 542 476 q 533 434 542 447 q 501 421 524 421 l 424 421 l 424 42 q 343 -3 424 -3 l 286 -3 q 206 42 206 -3 l 206 421 l 113 421 q 82 434 92 421 q 72 476 72 447 l 72 497 q 82 540 72 526 q 113 553 92 553 l 206 553 l 206 790 l 51 790 q 21 807 31 790 q 11 860 11 824 l 11 903 q 21 956 11 939 q 51 972 31 972 l 579 972 z "},"Ť":{"ha":631,"x_min":11,"x_max":621,"o":"m 286 -3 q 206 42 206 -3 l 206 790 l 51 790 q 21 807 31 790 q 11 860 11 824 l 11 903 q 21 956 11 939 q 51 972 31 972 l 579 972 q 611 956 601 972 q 621 903 621 939 l 621 860 q 611 807 621 824 q 579 790 601 790 l 424 790 l 424 42 q 343 -3 424 -3 l 286 -3 m 310 1040 q 261 1045 278 1040 q 233 1067 244 1050 l 151 1206 q 142 1229 142 1222 q 171 1243 142 1243 l 208 1243 q 278 1217 261 1243 l 314 1154 l 350 1218 q 421 1243 364 1243 l 460 1243 q 488 1229 488 1243 q 478 1206 488 1222 l 394 1067 q 366 1045 383 1050 q 318 1040 349 1040 l 310 1040 z "},"Ţ":{"ha":631,"x_min":11,"x_max":621,"o":"m 579 972 q 611 956 601 972 q 621 903 621 939 l 621 860 q 611 807 621 824 q 579 790 601 790 l 424 790 l 424 42 q 365 -1 424 3 l 346 -67 q 410 -99 386 -74 q 435 -169 435 -125 q 396 -262 435 -231 q 290 -294 357 -294 q 187 -273 231 -294 q 143 -222 143 -251 q 159 -181 143 -197 q 188 -164 175 -164 q 222 -176 200 -164 q 242 -185 225 -178 q 278 -193 258 -193 q 306 -171 306 -193 q 298 -153 306 -160 q 274 -140 290 -147 q 249 -127 257 -133 q 240 -110 240 -121 q 249 -75 240 -103 q 275 -3 258 -47 q 222 10 239 -1 q 206 42 206 21 l 206 790 l 51 790 q 21 807 31 790 q 11 860 11 824 l 11 903 q 21 956 11 939 q 51 972 31 972 l 579 972 z "},"Ț":{"ha":631,"x_min":11,"x_max":621,"o":"m 286 -3 q 206 42 206 -3 l 206 790 l 51 790 q 21 807 31 790 q 11 860 11 824 l 11 903 q 21 956 11 939 q 51 972 31 972 l 579 972 q 611 956 601 972 q 621 903 621 939 l 621 860 q 611 807 621 824 q 579 790 601 790 l 424 790 l 424 42 q 343 -3 424 -3 l 286 -3 m 276 -333 q 235 -326 254 -333 q 215 -303 215 -318 q 218 -274 215 -299 q 229 -132 229 -203 q 310 -71 229 -71 l 338 -71 q 400 -132 400 -71 q 378 -223 400 -176 q 327 -301 357 -269 q 276 -333 297 -333 z "},"Ṭ":{"ha":631,"x_min":11,"x_max":621,"o":"m 286 -3 q 206 42 206 -3 l 206 790 l 51 790 q 21 807 31 790 q 11 860 11 824 l 11 903 q 21 956 11 939 q 51 972 31 972 l 579 972 q 611 956 601 972 q 621 903 621 939 l 621 860 q 611 807 621 824 q 579 790 601 790 l 424 790 l 424 42 q 343 -3 424 -3 l 286 -3 m 321 -283 q 224 -239 224 -283 l 224 -156 q 317 -111 224 -111 q 414 -156 414 -111 l 414 -239 q 321 -283 414 -283 z "},"U":{"ha":810,"x_min":71,"x_max":739,"o":"m 406 -11 q 160 67 249 -11 q 71 285 71 144 l 71 931 q 151 975 71 975 l 207 975 q 288 931 288 975 l 288 299 q 319 206 288 242 q 406 171 351 171 q 491 207 458 171 q 524 299 524 243 l 524 931 q 604 975 524 975 l 658 975 q 739 931 739 975 l 739 285 q 651 67 739 144 q 406 -11 563 -11 z "},"Ú":{"ha":810,"x_min":71,"x_max":739,"o":"m 406 -11 q 160 67 249 -11 q 71 285 71 144 l 71 931 q 151 975 71 975 l 207 975 q 288 931 288 975 l 288 299 q 319 206 288 242 q 406 171 351 171 q 491 207 458 171 q 524 299 524 243 l 524 931 q 604 975 524 975 l 658 975 q 739 931 739 975 l 739 285 q 651 67 739 144 q 406 -11 563 -11 m 376 1044 q 344 1049 353 1044 q 336 1065 336 1054 q 345 1093 336 1074 q 371 1143 354 1113 l 414 1228 q 524 1265 433 1265 q 581 1261 563 1265 q 599 1246 599 1257 q 589 1224 599 1238 q 554 1179 579 1210 q 523 1139 542 1163 q 476 1079 504 1115 q 443 1053 464 1063 q 376 1044 422 1044 z "},"Ŭ":{"ha":810,"x_min":71,"x_max":739,"o":"m 406 -11 q 160 67 249 -11 q 71 285 71 144 l 71 931 q 151 975 71 975 l 207 975 q 288 931 288 975 l 288 299 q 319 206 288 242 q 406 171 351 171 q 491 207 458 171 q 524 299 524 243 l 524 931 q 604 975 524 975 l 658 975 q 739 931 739 975 l 739 285 q 651 67 739 144 q 406 -11 563 -11 m 404 1044 q 270 1089 317 1044 q 224 1192 224 1133 q 279 1239 224 1239 q 321 1214 310 1239 q 329 1199 322 1211 q 355 1178 336 1186 q 406 1171 374 1171 q 464 1182 447 1171 q 485 1203 481 1193 q 492 1217 490 1214 q 506 1233 496 1226 q 531 1239 517 1239 q 586 1192 586 1239 q 567 1122 586 1156 q 506 1067 547 1089 q 404 1044 465 1044 z "},"Û":{"ha":810,"x_min":71,"x_max":739,"o":"m 406 -11 q 160 67 249 -11 q 71 285 71 144 l 71 931 q 151 975 71 975 l 207 975 q 288 931 288 975 l 288 299 q 319 206 288 242 q 406 171 351 171 q 491 207 458 171 q 524 299 524 243 l 524 931 q 604 975 524 975 l 658 975 q 739 931 739 975 l 739 285 q 651 67 739 144 q 406 -11 563 -11 m 261 1040 q 232 1054 232 1040 q 242 1078 232 1061 l 324 1217 q 353 1238 335 1233 q 403 1243 371 1243 l 406 1243 q 456 1238 438 1243 q 485 1217 474 1233 l 568 1078 q 578 1054 578 1061 q 550 1040 578 1040 l 511 1040 q 440 1065 454 1040 l 404 1129 l 368 1067 q 299 1040 351 1040 l 261 1040 z "},"Ü":{"ha":810,"x_min":71,"x_max":739,"o":"m 406 -11 q 160 67 249 -11 q 71 285 71 144 l 71 931 q 151 975 71 975 l 207 975 q 288 931 288 975 l 288 299 q 319 206 288 242 q 406 171 351 171 q 491 207 458 171 q 524 299 524 243 l 524 931 q 604 975 524 975 l 658 975 q 739 931 739 975 l 739 285 q 651 67 739 144 q 406 -11 563 -11 m 296 1049 q 215 1093 215 1049 l 215 1176 q 293 1221 215 1221 q 374 1176 374 1221 l 374 1093 q 296 1049 374 1049 m 521 1049 q 440 1093 440 1049 l 440 1176 q 518 1221 440 1221 q 599 1176 599 1221 l 599 1093 q 521 1049 599 1049 z "},"Ụ":{"ha":810,"x_min":71,"x_max":739,"o":"m 406 -11 q 160 67 249 -11 q 71 285 71 144 l 71 931 q 151 975 71 975 l 207 975 q 288 931 288 975 l 288 299 q 319 206 288 242 q 406 171 351 171 q 491 207 458 171 q 524 299 524 243 l 524 931 q 604 975 524 975 l 658 975 q 739 931 739 975 l 739 285 q 651 67 739 144 q 406 -11 563 -11 m 411 -283 q 314 -239 314 -283 l 314 -156 q 407 -111 314 -111 q 504 -156 504 -111 l 504 -239 q 411 -283 504 -283 z "},"Ù":{"ha":810,"x_min":71,"x_max":739,"o":"m 406 -11 q 160 67 249 -11 q 71 285 71 144 l 71 931 q 151 975 71 975 l 207 975 q 288 931 288 975 l 288 299 q 319 206 288 242 q 406 171 351 171 q 491 207 458 171 q 524 299 524 243 l 524 931 q 604 975 524 975 l 658 975 q 739 931 739 975 l 739 285 q 651 67 739 144 q 406 -11 563 -11 m 426 1044 q 360 1054 381 1044 q 328 1079 339 1064 l 257 1168 q 216 1221 228 1204 q 204 1246 204 1238 q 222 1261 204 1257 q 279 1265 240 1265 q 390 1228 369 1265 q 447 1117 428 1157 q 467 1065 467 1076 q 458 1049 467 1053 q 426 1044 450 1044 z "},"Ủ":{"ha":810,"x_min":71,"x_max":739,"o":"m 406 -11 q 160 67 249 -11 q 71 285 71 144 l 71 931 q 151 975 71 975 l 207 975 q 288 931 288 975 l 288 299 q 319 206 288 242 q 406 171 351 171 q 491 207 458 171 q 524 299 524 243 l 524 931 q 604 975 524 975 l 658 975 q 739 931 739 975 l 739 285 q 651 67 739 144 q 406 -11 563 -11 m 439 1038 q 390 1049 415 1038 q 364 1069 364 1061 q 400 1107 364 1081 q 442 1142 426 1126 q 457 1174 457 1158 q 444 1196 457 1188 q 413 1204 431 1204 q 377 1196 394 1204 q 354 1188 360 1188 q 329 1209 346 1188 q 313 1246 313 1231 q 350 1274 313 1260 q 424 1289 388 1289 q 538 1260 497 1289 q 578 1179 578 1231 q 550 1113 578 1146 q 488 1059 522 1081 q 439 1038 453 1038 z "},"Ư":{"ha":792,"x_min":61,"x_max":835,"o":"m 835 1046 q 808 965 835 997 q 729 922 782 933 l 729 285 q 641 67 729 144 q 396 -11 553 -11 q 150 67 239 -11 q 61 285 61 144 l 61 931 q 142 975 61 975 l 197 975 q 278 931 278 975 l 278 299 q 310 206 278 242 q 396 171 342 171 q 481 207 449 171 q 514 299 514 243 l 514 931 q 594 975 514 975 l 665 975 q 709 988 693 975 q 725 1021 725 1000 q 719 1046 725 1035 q 701 1071 713 1057 q 688 1097 688 1090 q 703 1124 688 1114 l 747 1154 q 769 1161 756 1161 q 815 1121 794 1161 q 835 1046 835 1081 z "},"Ứ":{"ha":792,"x_min":61,"x_max":835,"o":"m 835 1046 q 808 965 835 997 q 729 922 782 933 l 729 285 q 641 67 729 144 q 396 -11 553 -11 q 150 67 239 -11 q 61 285 61 144 l 61 931 q 142 975 61 975 l 197 975 q 278 931 278 975 l 278 299 q 310 206 278 242 q 396 171 342 171 q 481 207 449 171 q 514 299 514 243 l 514 931 q 594 975 514 975 l 665 975 q 709 988 693 975 q 725 1021 725 1000 q 719 1046 725 1035 q 701 1071 713 1057 q 688 1097 688 1090 q 703 1124 688 1114 l 747 1154 q 769 1161 756 1161 q 815 1121 794 1161 q 835 1046 835 1081 m 367 1044 q 335 1049 343 1044 q 326 1065 326 1054 q 335 1093 326 1074 q 361 1143 344 1113 l 404 1228 q 514 1265 424 1265 q 571 1261 553 1265 q 589 1246 589 1257 q 579 1224 589 1238 q 544 1179 569 1210 q 513 1139 532 1163 q 467 1079 494 1115 q 433 1053 454 1063 q 367 1044 413 1044 z "},"Ự":{"ha":792,"x_min":61,"x_max":835,"o":"m 835 1046 q 808 965 835 997 q 729 922 782 933 l 729 285 q 641 67 729 144 q 396 -11 553 -11 q 150 67 239 -11 q 61 285 61 144 l 61 931 q 142 975 61 975 l 197 975 q 278 931 278 975 l 278 299 q 310 206 278 242 q 396 171 342 171 q 481 207 449 171 q 514 299 514 243 l 514 931 q 594 975 514 975 l 665 975 q 709 988 693 975 q 725 1021 725 1000 q 719 1046 725 1035 q 701 1071 713 1057 q 688 1097 688 1090 q 703 1124 688 1114 l 747 1154 q 769 1161 756 1161 q 815 1121 794 1161 q 835 1046 835 1081 m 401 -283 q 304 -239 304 -283 l 304 -156 q 397 -111 304 -111 q 494 -156 494 -111 l 494 -239 q 401 -283 494 -283 z "},"Ừ":{"ha":792,"x_min":61,"x_max":835,"o":"m 835 1046 q 808 965 835 997 q 729 922 782 933 l 729 285 q 641 67 729 144 q 396 -11 553 -11 q 150 67 239 -11 q 61 285 61 144 l 61 931 q 142 975 61 975 l 197 975 q 278 931 278 975 l 278 299 q 310 206 278 242 q 396 171 342 171 q 481 207 449 171 q 514 299 514 243 l 514 931 q 594 975 514 975 l 665 975 q 709 988 693 975 q 725 1021 725 1000 q 719 1046 725 1035 q 701 1071 713 1057 q 688 1097 688 1090 q 703 1124 688 1114 l 747 1154 q 769 1161 756 1161 q 815 1121 794 1161 q 835 1046 835 1081 m 417 1044 q 350 1054 371 1044 q 318 1079 329 1064 l 247 1168 q 206 1221 218 1204 q 194 1246 194 1238 q 213 1261 194 1257 q 269 1265 231 1265 q 381 1228 360 1265 q 438 1117 418 1157 q 457 1065 457 1076 q 449 1049 457 1053 q 417 1044 440 1044 z "},"Ử":{"ha":792,"x_min":61,"x_max":835,"o":"m 835 1046 q 808 965 835 997 q 729 922 782 933 l 729 285 q 641 67 729 144 q 396 -11 553 -11 q 150 67 239 -11 q 61 285 61 144 l 61 931 q 142 975 61 975 l 197 975 q 278 931 278 975 l 278 299 q 310 206 278 242 q 396 171 342 171 q 481 207 449 171 q 514 299 514 243 l 514 931 q 594 975 514 975 l 665 975 q 709 988 693 975 q 725 1021 725 1000 q 719 1046 725 1035 q 701 1071 713 1057 q 688 1097 688 1090 q 703 1124 688 1114 l 747 1154 q 769 1161 756 1161 q 815 1121 794 1161 q 835 1046 835 1081 m 429 1038 q 380 1049 406 1038 q 354 1069 354 1061 q 390 1107 354 1081 q 432 1142 417 1126 q 447 1174 447 1158 q 434 1196 447 1188 q 403 1204 421 1204 q 367 1196 385 1204 q 344 1188 350 1188 q 319 1209 336 1188 q 303 1246 303 1231 q 340 1274 303 1260 q 414 1289 378 1289 q 528 1260 488 1289 q 568 1179 568 1231 q 540 1113 568 1146 q 478 1059 513 1081 q 429 1038 443 1038 z "},"Ữ":{"ha":792,"x_min":61,"x_max":835,"o":"m 835 1046 q 808 965 835 997 q 729 922 782 933 l 729 285 q 641 67 729 144 q 396 -11 553 -11 q 150 67 239 -11 q 61 285 61 144 l 61 931 q 142 975 61 975 l 197 975 q 278 931 278 975 l 278 299 q 310 206 278 242 q 396 171 342 171 q 481 207 449 171 q 514 299 514 243 l 514 931 q 594 975 514 975 l 665 975 q 709 988 693 975 q 725 1021 725 1000 q 719 1046 725 1035 q 701 1071 713 1057 q 688 1097 688 1090 q 703 1124 688 1114 l 747 1154 q 769 1161 756 1161 q 815 1121 794 1161 q 835 1046 835 1081 m 200 1056 q 168 1092 168 1064 q 174 1114 168 1101 q 222 1183 189 1156 q 299 1210 254 1210 q 390 1188 326 1210 q 424 1177 400 1185 q 460 1169 447 1169 q 496 1192 478 1169 q 513 1210 504 1204 q 533 1215 521 1215 q 553 1213 539 1215 l 567 1208 q 599 1172 599 1199 q 594 1151 599 1168 q 545 1082 579 1110 q 468 1054 511 1054 q 378 1076 442 1054 q 344 1087 369 1079 q 307 1094 319 1094 q 272 1072 288 1094 q 253 1054 263 1060 q 233 1049 244 1049 q 215 1051 226 1049 l 200 1056 z "},"Ű":{"ha":810,"x_min":71,"x_max":739,"o":"m 406 -11 q 160 67 249 -11 q 71 285 71 144 l 71 931 q 151 975 71 975 l 207 975 q 288 931 288 975 l 288 299 q 319 206 288 242 q 406 171 351 171 q 491 207 458 171 q 524 299 524 243 l 524 931 q 604 975 524 975 l 658 975 q 739 931 739 975 l 739 285 q 651 67 739 144 q 406 -11 563 -11 m 254 1044 q 222 1049 231 1044 q 214 1065 214 1053 q 236 1118 214 1074 q 290 1228 258 1160 q 401 1265 308 1265 q 458 1261 440 1265 q 476 1246 476 1257 q 467 1224 476 1238 q 433 1179 457 1210 q 356 1079 403 1143 q 321 1053 342 1063 q 254 1044 300 1044 m 483 1044 q 451 1049 460 1044 q 443 1065 443 1054 q 453 1093 443 1072 q 467 1119 464 1114 l 521 1228 q 631 1265 539 1265 q 688 1261 669 1265 q 706 1246 706 1257 q 696 1224 706 1238 q 661 1179 686 1210 q 630 1139 649 1163 q 583 1079 611 1115 q 551 1053 571 1063 q 483 1044 531 1044 z "},"Ū":{"ha":810,"x_min":71,"x_max":739,"o":"m 406 -11 q 160 67 249 -11 q 71 285 71 144 l 71 931 q 151 975 71 975 l 207 975 q 288 931 288 975 l 288 299 q 319 206 288 242 q 406 171 351 171 q 491 207 458 171 q 524 299 524 243 l 524 931 q 604 975 524 975 l 658 975 q 739 931 739 975 l 739 285 q 651 67 739 144 q 406 -11 563 -11 m 272 1075 q 242 1088 251 1075 q 232 1131 232 1101 l 232 1151 q 242 1194 232 1181 q 272 1207 251 1207 l 538 1207 q 569 1194 560 1207 q 578 1151 578 1181 l 578 1131 q 569 1088 578 1101 q 538 1075 560 1075 l 272 1075 z "},"Ų":{"ha":810,"x_min":71,"x_max":739,"o":"m 739 285 q 705 136 739 199 q 607 36 671 74 q 585 -65 585 -17 q 653 -126 585 -126 q 672 -124 664 -126 q 686 -121 681 -121 q 718 -130 708 -121 q 728 -162 728 -139 q 704 -206 728 -192 q 626 -222 669 -222 q 519 -181 547 -222 q 492 -92 492 -139 q 508 -1 492 -50 q 406 -11 465 -11 q 160 67 249 -11 q 71 285 71 144 l 71 931 q 151 975 71 975 l 207 975 q 288 931 288 975 l 288 299 q 319 206 288 242 q 406 171 351 171 q 491 207 458 171 q 524 299 524 243 l 524 931 q 604 975 524 975 l 658 975 q 739 931 739 975 l 739 285 z "},"Ů":{"ha":810,"x_min":71,"x_max":739,"o":"m 406 -11 q 160 67 249 -11 q 71 285 71 144 l 71 931 q 151 975 71 975 l 207 975 q 288 931 288 975 l 288 299 q 319 206 288 242 q 406 171 351 171 q 491 207 458 171 q 524 299 524 243 l 524 931 q 604 975 524 975 l 658 975 q 739 931 739 975 l 739 285 q 651 67 739 144 q 406 -11 563 -11 m 403 1010 q 303 1048 339 1010 q 267 1147 267 1086 q 303 1247 267 1208 q 403 1286 339 1286 q 503 1248 467 1286 q 540 1147 540 1210 q 503 1048 540 1086 q 403 1010 467 1010 m 404 1096 q 442 1109 428 1096 q 456 1146 456 1122 q 442 1183 456 1169 q 404 1197 428 1197 q 366 1183 379 1197 q 353 1146 353 1169 q 366 1109 353 1122 q 404 1096 379 1096 z "},"Ũ":{"ha":810,"x_min":71,"x_max":739,"o":"m 406 -11 q 160 67 249 -11 q 71 285 71 144 l 71 931 q 151 975 71 975 l 207 975 q 288 931 288 975 l 288 299 q 319 206 288 242 q 406 171 351 171 q 491 207 458 171 q 524 299 524 243 l 524 931 q 604 975 524 975 l 658 975 q 739 931 739 975 l 739 285 q 651 67 739 144 q 406 -11 563 -11 m 210 1056 q 178 1092 178 1064 q 183 1114 178 1101 q 231 1183 199 1156 q 308 1210 264 1210 q 400 1188 336 1210 q 433 1177 410 1185 q 469 1169 457 1169 q 506 1192 488 1169 q 522 1210 514 1204 q 543 1215 531 1215 q 563 1213 549 1215 l 576 1208 q 608 1172 608 1199 q 604 1151 608 1168 q 555 1082 589 1110 q 478 1054 521 1054 q 388 1076 451 1054 q 354 1087 379 1079 q 317 1094 329 1094 q 282 1072 297 1094 q 263 1054 272 1060 q 243 1049 254 1049 q 225 1051 236 1049 l 210 1056 z "},"V":{"ha":706,"x_min":6,"x_max":696,"o":"m 296 -3 q 222 26 229 -3 l 11 919 q 6 944 6 939 q 86 975 6 975 l 139 975 q 215 935 208 975 l 333 307 l 346 211 l 351 211 l 364 307 l 489 935 q 565 975 496 975 l 617 975 q 696 944 696 975 q 692 919 696 935 l 481 26 q 407 -3 474 -3 l 296 -3 z "},"W":{"ha":1044,"x_min":7,"x_max":1038,"o":"m 256 -3 q 208 4 224 -3 q 190 26 193 11 l 8 918 q 8 930 7 924 q 8 939 8 936 q 90 975 8 975 l 131 975 q 219 932 214 975 l 285 419 l 297 319 l 310 211 l 335 379 q 342 419 340 407 l 426 946 q 444 969 429 963 q 492 975 458 975 l 561 975 q 609 969 594 975 q 626 946 624 963 l 710 419 l 740 207 l 760 356 l 768 419 l 835 932 q 924 975 840 975 l 956 975 q 1038 939 1038 975 q 1036 918 1038 926 l 851 26 q 786 -3 846 -3 l 694 -3 q 632 26 639 -3 l 538 517 l 522 665 l 506 517 l 410 26 q 347 -3 404 -3 l 256 -3 z "},"Ẃ":{"ha":1044,"x_min":8,"x_max":1038,"o":"m 256 -3 q 208 4 224 -3 q 190 26 193 11 l 8 918 q 8 930 7 924 q 8 939 8 936 q 90 975 8 975 l 131 975 q 219 932 214 975 l 285 419 l 297 319 l 310 211 l 335 379 q 342 419 340 407 l 426 946 q 444 969 429 963 q 492 975 458 975 l 561 975 q 609 969 594 975 q 626 946 624 963 l 710 419 l 740 207 l 760 356 l 768 419 l 835 932 q 924 975 840 975 l 956 975 q 1038 939 1038 975 q 1036 918 1038 926 l 851 26 q 786 -3 846 -3 l 694 -3 q 632 26 639 -3 l 538 517 l 522 665 l 506 517 l 410 26 q 347 -3 404 -3 l 256 -3 m 493 1044 q 461 1049 469 1044 q 453 1065 453 1054 q 462 1093 453 1074 q 488 1143 471 1113 l 531 1228 q 640 1265 550 1265 q 697 1261 679 1265 q 715 1246 715 1257 q 706 1224 715 1238 q 671 1179 696 1210 q 640 1139 658 1163 q 593 1079 621 1115 q 560 1053 581 1063 q 493 1044 539 1044 z "},"Ŵ":{"ha":1044,"x_min":8,"x_max":1038,"o":"m 256 -3 q 208 4 224 -3 q 190 26 193 11 l 8 918 q 8 930 7 924 q 8 939 8 936 q 90 975 8 975 l 131 975 q 219 932 214 975 l 285 419 l 297 319 l 310 211 l 335 379 q 342 419 340 407 l 426 946 q 444 969 429 963 q 492 975 458 975 l 561 975 q 609 969 594 975 q 626 946 624 963 l 710 419 l 740 207 l 760 356 l 768 419 l 835 932 q 924 975 840 975 l 956 975 q 1038 939 1038 975 q 1036 918 1038 926 l 851 26 q 786 -3 846 -3 l 694 -3 q 632 26 639 -3 l 538 517 l 522 665 l 506 517 l 410 26 q 347 -3 404 -3 l 256 -3 m 378 1040 q 349 1054 349 1040 q 358 1078 349 1061 l 440 1217 q 469 1238 451 1233 q 519 1243 488 1243 l 522 1243 q 572 1238 554 1243 q 601 1217 590 1233 l 685 1078 q 694 1054 694 1061 q 667 1040 694 1040 l 628 1040 q 557 1065 571 1040 l 521 1129 l 485 1067 q 415 1040 468 1040 l 378 1040 z "},"Ẅ":{"ha":1044,"x_min":8,"x_max":1038,"o":"m 256 -3 q 208 4 224 -3 q 190 26 193 11 l 8 918 q 8 930 7 924 q 8 939 8 936 q 90 975 8 975 l 131 975 q 219 932 214 975 l 285 419 l 297 319 l 310 211 l 335 379 q 342 419 340 407 l 426 946 q 444 969 429 963 q 492 975 458 975 l 561 975 q 609 969 594 975 q 626 946 624 963 l 710 419 l 740 207 l 760 356 l 768 419 l 835 932 q 924 975 840 975 l 956 975 q 1038 939 1038 975 q 1036 918 1038 926 l 851 26 q 786 -3 846 -3 l 694 -3 q 632 26 639 -3 l 538 517 l 522 665 l 506 517 l 410 26 q 347 -3 404 -3 l 256 -3 m 413 1049 q 332 1093 332 1049 l 332 1176 q 410 1221 332 1221 q 490 1176 490 1221 l 490 1093 q 413 1049 490 1049 m 638 1049 q 557 1093 557 1049 l 557 1176 q 635 1221 557 1221 q 715 1176 715 1221 l 715 1093 q 638 1049 715 1049 z "},"Ẁ":{"ha":1044,"x_min":8,"x_max":1038,"o":"m 256 -3 q 208 4 224 -3 q 190 26 193 11 l 8 918 q 8 930 7 924 q 8 939 8 936 q 90 975 8 975 l 131 975 q 219 932 214 975 l 285 419 l 297 319 l 310 211 l 335 379 q 342 419 340 407 l 426 946 q 444 969 429 963 q 492 975 458 975 l 561 975 q 609 969 594 975 q 626 946 624 963 l 710 419 l 740 207 l 760 356 l 768 419 l 835 932 q 924 975 840 975 l 956 975 q 1038 939 1038 975 q 1036 918 1038 926 l 851 26 q 786 -3 846 -3 l 694 -3 q 632 26 639 -3 l 538 517 l 522 665 l 506 517 l 410 26 q 347 -3 404 -3 l 256 -3 m 543 1044 q 476 1054 497 1044 q 444 1079 456 1064 l 374 1168 q 333 1221 344 1204 q 321 1246 321 1238 q 339 1261 321 1257 q 396 1265 357 1265 q 507 1228 486 1265 q 564 1117 544 1157 q 583 1065 583 1076 q 575 1049 583 1053 q 543 1044 567 1044 z "},"X":{"ha":703,"x_min":11,"x_max":689,"o":"m 93 -3 q 11 24 11 -3 q 22 58 11 32 l 224 507 l 49 914 q 36 949 36 939 q 58 968 36 961 q 119 975 79 975 l 185 975 q 236 969 217 975 q 260 949 256 964 l 357 621 l 463 947 q 487 969 468 964 q 540 975 506 975 l 606 975 q 688 949 688 975 q 676 914 688 939 l 488 504 l 678 58 q 685 41 681 51 q 689 24 689 31 q 607 -3 689 -3 l 547 -3 q 471 24 479 -3 l 357 378 l 232 25 q 209 1 225 6 q 156 -3 193 -3 l 93 -3 z "},"Y":{"ha":672,"x_min":1,"x_max":669,"o":"m 310 -3 q 228 42 228 -3 l 228 419 l 14 913 q 1 947 1 938 q 23 967 1 960 q 85 975 44 975 l 156 975 q 232 949 224 975 l 340 607 l 447 949 q 471 969 451 964 q 524 975 490 975 l 582 975 q 669 947 669 975 q 660 913 669 939 l 446 415 l 446 42 q 425 8 444 19 q 364 -3 406 -3 l 310 -3 z "},"Ý":{"ha":672,"x_min":1,"x_max":669,"o":"m 310 -3 q 228 42 228 -3 l 228 419 l 14 913 q 1 947 1 938 q 23 967 1 960 q 85 975 44 975 l 156 975 q 232 949 224 975 l 340 607 l 447 949 q 471 969 451 964 q 524 975 490 975 l 582 975 q 669 947 669 975 q 660 913 669 939 l 446 415 l 446 42 q 425 8 444 19 q 364 -3 406 -3 l 310 -3 m 307 1044 q 275 1049 283 1044 q 267 1065 267 1054 q 276 1093 267 1074 q 301 1143 285 1113 l 344 1228 q 454 1265 364 1265 q 511 1261 493 1265 q 529 1246 529 1257 q 519 1224 529 1238 q 485 1179 510 1210 q 453 1139 472 1163 q 407 1079 435 1115 q 374 1053 394 1063 q 307 1044 353 1044 z "},"Ŷ":{"ha":672,"x_min":1,"x_max":669,"o":"m 310 -3 q 228 42 228 -3 l 228 419 l 14 913 q 1 947 1 938 q 23 967 1 960 q 85 975 44 975 l 156 975 q 232 949 224 975 l 340 607 l 447 949 q 471 969 451 964 q 524 975 490 975 l 582 975 q 669 947 669 975 q 660 913 669 939 l 446 415 l 446 42 q 425 8 444 19 q 364 -3 406 -3 l 310 -3 m 192 1040 q 163 1054 163 1040 q 172 1078 163 1061 l 254 1217 q 283 1238 265 1233 q 333 1243 301 1243 l 336 1243 q 386 1238 368 1243 q 415 1217 404 1233 l 499 1078 q 508 1054 508 1061 q 481 1040 508 1040 l 442 1040 q 371 1065 385 1040 l 335 1129 l 299 1067 q 229 1040 282 1040 l 192 1040 z "},"Ÿ":{"ha":672,"x_min":1,"x_max":669,"o":"m 310 -3 q 228 42 228 -3 l 228 419 l 14 913 q 1 947 1 938 q 23 967 1 960 q 85 975 44 975 l 156 975 q 232 949 224 975 l 340 607 l 447 949 q 471 969 451 964 q 524 975 490 975 l 582 975 q 669 947 669 975 q 660 913 669 939 l 446 415 l 446 42 q 425 8 444 19 q 364 -3 406 -3 l 310 -3 m 226 1049 q 146 1093 146 1049 l 146 1176 q 224 1221 146 1221 q 304 1176 304 1221 l 304 1093 q 226 1049 304 1049 m 451 1049 q 371 1093 371 1049 l 371 1176 q 449 1221 371 1221 q 529 1176 529 1221 l 529 1093 q 451 1049 529 1049 z "},"Ỵ":{"ha":672,"x_min":1,"x_max":669,"o":"m 310 -3 q 228 42 228 -3 l 228 419 l 14 913 q 1 947 1 938 q 23 967 1 960 q 85 975 44 975 l 156 975 q 232 949 224 975 l 340 607 l 447 949 q 471 969 451 964 q 524 975 490 975 l 582 975 q 669 947 669 975 q 660 913 669 939 l 446 415 l 446 42 q 425 8 444 19 q 364 -3 406 -3 l 310 -3 m 344 -283 q 247 -239 247 -283 l 247 -156 q 340 -111 247 -111 q 438 -156 438 -111 l 438 -239 q 344 -283 438 -283 z "},"Ỳ":{"ha":672,"x_min":1,"x_max":669,"o":"m 310 -3 q 228 42 228 -3 l 228 419 l 14 913 q 1 947 1 938 q 23 967 1 960 q 85 975 44 975 l 156 975 q 232 949 224 975 l 340 607 l 447 949 q 471 969 451 964 q 524 975 490 975 l 582 975 q 669 947 669 975 q 660 913 669 939 l 446 415 l 446 42 q 425 8 444 19 q 364 -3 406 -3 l 310 -3 m 357 1044 q 290 1054 311 1044 q 258 1079 269 1064 l 188 1168 q 147 1221 158 1204 q 135 1246 135 1238 q 153 1261 135 1257 q 210 1265 171 1265 q 321 1228 300 1265 q 378 1117 358 1157 q 397 1065 397 1076 q 389 1049 397 1053 q 357 1044 381 1044 z "},"Ỷ":{"ha":672,"x_min":1,"x_max":669,"o":"m 310 -3 q 228 42 228 -3 l 228 419 l 14 913 q 1 947 1 938 q 23 967 1 960 q 85 975 44 975 l 156 975 q 232 949 224 975 l 340 607 l 447 949 q 471 969 451 964 q 524 975 490 975 l 582 975 q 669 947 669 975 q 660 913 669 939 l 446 415 l 446 42 q 425 8 444 19 q 364 -3 406 -3 l 310 -3 m 369 1038 q 320 1049 346 1038 q 294 1069 294 1061 q 331 1107 294 1081 q 372 1142 357 1126 q 388 1174 388 1158 q 374 1196 388 1188 q 343 1204 361 1204 q 308 1196 325 1204 q 285 1188 290 1188 q 260 1209 276 1188 q 243 1246 243 1231 q 281 1274 243 1260 q 354 1289 318 1289 q 468 1260 428 1289 q 508 1179 508 1231 q 481 1113 508 1146 q 418 1059 453 1081 q 369 1038 383 1038 z "},"Ỹ":{"ha":672,"x_min":1,"x_max":669,"o":"m 310 -3 q 228 42 228 -3 l 228 419 l 14 913 q 1 947 1 938 q 23 967 1 960 q 85 975 44 975 l 156 975 q 232 949 224 975 l 340 607 l 447 949 q 471 969 451 964 q 524 975 490 975 l 582 975 q 669 947 669 975 q 660 913 669 939 l 446 415 l 446 42 q 425 8 444 19 q 364 -3 406 -3 l 310 -3 m 140 1056 q 108 1092 108 1064 q 114 1114 108 1101 q 162 1183 129 1156 q 239 1210 194 1210 q 331 1188 267 1210 q 364 1177 340 1185 q 400 1169 388 1169 q 436 1192 418 1169 q 453 1210 444 1204 q 474 1215 461 1215 q 493 1213 479 1215 l 507 1208 q 539 1172 539 1199 q 535 1151 539 1168 q 485 1082 519 1110 q 408 1054 451 1054 q 318 1076 382 1054 q 285 1087 310 1079 q 247 1094 260 1094 q 213 1072 228 1094 q 194 1054 203 1060 q 174 1049 185 1049 q 156 1051 167 1049 l 140 1056 z "},"Z":{"ha":704,"x_min":32,"x_max":663,"o":"m 86 0 q 50 46 68 0 q 32 124 32 92 q 33 138 32 135 l 386 790 l 101 790 q 72 807 81 790 q 63 860 63 824 l 63 903 q 72 956 63 939 q 101 972 81 972 l 608 972 q 642 924 625 972 q 660 844 660 876 q 661 838 660 840 q 661 833 663 836 l 310 182 l 622 182 q 653 165 643 182 q 663 113 663 149 l 663 69 q 653 17 663 33 q 622 0 643 0 l 86 0 z "},"Ź":{"ha":704,"x_min":32,"x_max":663,"o":"m 86 0 q 50 46 68 0 q 32 124 32 92 q 33 138 32 135 l 386 790 l 101 790 q 72 807 81 790 q 63 860 63 824 l 63 903 q 72 956 63 939 q 101 972 81 972 l 608 972 q 642 924 625 972 q 660 844 660 876 q 661 838 660 840 q 661 833 663 836 l 310 182 l 622 182 q 653 165 643 182 q 663 113 663 149 l 663 69 q 653 17 663 33 q 622 0 643 0 l 86 0 m 326 1044 q 294 1049 303 1044 q 286 1065 286 1054 q 295 1093 286 1074 q 321 1143 304 1113 l 364 1228 q 474 1265 383 1265 q 531 1261 513 1265 q 549 1246 549 1257 q 539 1224 549 1238 q 504 1179 529 1210 q 473 1139 492 1163 q 426 1079 454 1115 q 393 1053 414 1063 q 326 1044 372 1044 z "},"Ž":{"ha":704,"x_min":32,"x_max":663,"o":"m 86 0 q 50 46 68 0 q 32 124 32 92 q 33 138 32 135 l 386 790 l 101 790 q 72 807 81 790 q 63 860 63 824 l 63 903 q 72 956 63 939 q 101 972 81 972 l 608 972 q 642 924 625 972 q 660 844 660 876 q 661 838 660 840 q 661 833 663 836 l 310 182 l 622 182 q 653 165 643 182 q 663 113 663 149 l 663 69 q 653 17 663 33 q 622 0 643 0 l 86 0 m 350 1040 q 301 1045 318 1040 q 274 1067 285 1050 l 192 1206 q 182 1229 182 1222 q 211 1243 182 1243 l 249 1243 q 318 1217 301 1243 l 354 1154 l 390 1218 q 461 1243 404 1243 l 500 1243 q 528 1229 528 1243 q 518 1206 528 1222 l 435 1067 q 406 1045 424 1050 q 358 1040 389 1040 l 350 1040 z "},"Ż":{"ha":704,"x_min":32,"x_max":663,"o":"m 86 0 q 50 46 68 0 q 32 124 32 92 q 33 138 32 135 l 386 790 l 101 790 q 72 807 81 790 q 63 860 63 824 l 63 903 q 72 956 63 939 q 101 972 81 972 l 608 972 q 642 924 625 972 q 660 844 660 876 q 661 838 660 840 q 661 833 663 836 l 310 182 l 622 182 q 653 165 643 182 q 663 113 663 149 l 663 69 q 653 17 663 33 q 622 0 643 0 l 86 0 m 358 1049 q 261 1093 261 1049 l 261 1176 q 354 1221 261 1221 q 451 1176 451 1221 l 451 1093 q 358 1049 451 1049 z "},"Ẓ":{"ha":704,"x_min":32,"x_max":663,"o":"m 86 0 q 50 46 68 0 q 32 124 32 92 q 33 138 32 135 l 386 790 l 101 790 q 72 807 81 790 q 63 860 63 824 l 63 903 q 72 956 63 939 q 101 972 81 972 l 608 972 q 642 924 625 972 q 660 844 660 876 q 661 838 660 840 q 661 833 663 836 l 310 182 l 622 182 q 653 165 643 182 q 663 113 663 149 l 663 69 q 653 17 663 33 q 622 0 643 0 l 86 0 m 356 -283 q 258 -239 258 -283 l 258 -156 q 351 -111 258 -111 q 449 -156 449 -111 l 449 -239 q 356 -283 449 -283 z "},"a":{"ha":668,"x_min":53,"x_max":599,"o":"m 243 -11 q 102 47 151 -11 q 53 207 53 106 q 376 465 53 467 l 376 488 q 356 553 376 532 q 292 575 336 575 q 238 567 261 575 q 185 546 214 560 q 156 535 165 535 q 125 556 142 535 q 96 603 108 576 q 83 646 83 631 q 116 691 83 669 q 201 725 149 713 q 307 738 253 738 q 517 674 451 738 q 582 497 582 610 l 582 244 q 585 147 582 181 q 594 74 589 114 q 599 43 599 56 q 542 10 599 21 q 443 -1 486 -1 q 412 15 421 -1 q 393 69 403 32 q 336 14 375 39 q 243 -11 297 -11 m 306 138 q 347 150 328 138 q 376 183 365 163 l 376 346 q 238 222 238 346 q 256 160 238 183 q 306 138 274 138 z "},"á":{"ha":668,"x_min":53,"x_max":599,"o":"m 243 -11 q 102 47 151 -11 q 53 207 53 106 q 376 465 53 467 l 376 488 q 356 553 376 532 q 292 575 336 575 q 238 567 261 575 q 185 546 214 560 q 156 535 165 535 q 125 556 142 535 q 96 603 108 576 q 83 646 83 631 q 116 691 83 669 q 201 725 149 713 q 307 738 253 738 q 517 674 451 738 q 582 497 582 610 l 582 244 q 585 147 582 181 q 594 74 589 114 q 599 43 599 56 q 542 10 599 21 q 443 -1 486 -1 q 412 15 421 -1 q 393 69 403 32 q 336 14 375 39 q 243 -11 297 -11 m 306 138 q 347 150 328 138 q 376 183 365 163 l 376 346 q 238 222 238 346 q 256 160 238 183 q 306 138 274 138 m 297 799 q 265 803 274 799 q 257 819 257 808 q 266 847 257 828 q 292 897 275 867 l 335 982 q 444 1019 354 1019 q 501 1015 483 1019 q 519 1000 519 1011 q 510 978 519 992 q 475 933 500 964 q 444 893 463 917 q 397 833 425 869 q 364 808 385 817 q 297 799 343 799 z "},"ă":{"ha":668,"x_min":53,"x_max":599,"o":"m 243 -11 q 102 47 151 -11 q 53 207 53 106 q 376 465 53 467 l 376 488 q 356 553 376 532 q 292 575 336 575 q 238 567 261 575 q 185 546 214 560 q 156 535 165 535 q 125 556 142 535 q 96 603 108 576 q 83 646 83 631 q 116 691 83 669 q 201 725 149 713 q 307 738 253 738 q 517 674 451 738 q 582 497 582 610 l 582 244 q 585 147 582 181 q 594 74 589 114 q 599 43 599 56 q 542 10 599 21 q 443 -1 486 -1 q 412 15 421 -1 q 393 69 403 32 q 336 14 375 39 q 243 -11 297 -11 m 306 138 q 347 150 328 138 q 376 183 365 163 l 376 346 q 238 222 238 346 q 256 160 238 183 q 306 138 274 138 m 325 799 q 191 843 238 799 q 144 946 144 888 q 200 993 144 993 q 242 968 231 993 q 250 953 243 965 q 276 933 257 940 q 326 925 294 925 q 385 936 368 925 q 406 958 401 947 q 413 971 411 968 q 427 987 417 981 q 451 993 438 993 q 507 946 507 993 q 488 876 507 910 q 427 821 468 843 q 325 799 386 799 z "},"ắ":{"ha":668,"x_min":53,"x_max":599,"o":"m 243 -11 q 102 47 151 -11 q 53 207 53 106 q 376 465 53 467 l 376 488 q 356 553 376 532 q 292 575 336 575 q 238 567 261 575 q 185 546 214 560 q 156 535 165 535 q 125 556 142 535 q 96 603 108 576 q 83 646 83 631 q 116 691 83 669 q 201 725 149 713 q 307 738 253 738 q 517 674 451 738 q 582 497 582 610 l 582 244 q 585 147 582 181 q 594 74 589 114 q 599 43 599 56 q 542 10 599 21 q 443 -1 486 -1 q 412 15 421 -1 q 393 69 403 32 q 336 14 375 39 q 243 -11 297 -11 m 306 138 q 347 150 328 138 q 376 183 365 163 l 376 346 q 238 222 238 346 q 256 160 238 183 q 306 138 274 138 m 325 799 q 191 843 238 799 q 144 946 144 888 q 200 993 144 993 q 242 968 231 993 q 250 953 243 965 q 276 933 257 940 q 326 925 294 925 q 385 936 368 925 q 406 958 401 947 q 413 971 411 968 q 427 987 417 981 q 451 993 438 993 q 507 946 507 993 q 488 876 507 910 q 427 821 468 843 q 325 799 386 799 m 297 1044 q 265 1049 274 1044 q 257 1065 257 1054 q 266 1093 257 1074 q 292 1143 275 1113 l 335 1228 q 444 1265 354 1265 q 501 1261 483 1265 q 519 1246 519 1257 q 510 1224 519 1238 q 475 1179 500 1210 q 444 1139 463 1163 q 397 1079 425 1115 q 364 1053 385 1063 q 297 1044 343 1044 z "},"ặ":{"ha":668,"x_min":53,"x_max":599,"o":"m 243 -11 q 102 47 151 -11 q 53 207 53 106 q 376 465 53 467 l 376 488 q 356 553 376 532 q 292 575 336 575 q 238 567 261 575 q 185 546 214 560 q 156 535 165 535 q 125 556 142 535 q 96 603 108 576 q 83 646 83 631 q 116 691 83 669 q 201 725 149 713 q 307 738 253 738 q 517 674 451 738 q 582 497 582 610 l 582 244 q 585 147 582 181 q 594 74 589 114 q 599 43 599 56 q 542 10 599 21 q 443 -1 486 -1 q 412 15 421 -1 q 393 69 403 32 q 336 14 375 39 q 243 -11 297 -11 m 306 138 q 347 150 328 138 q 376 183 365 163 l 376 346 q 238 222 238 346 q 256 160 238 183 q 306 138 274 138 m 332 -283 q 235 -239 235 -283 l 235 -156 q 328 -111 235 -111 q 425 -156 425 -111 l 425 -239 q 332 -283 425 -283 m 325 799 q 191 843 238 799 q 144 946 144 888 q 200 993 144 993 q 242 968 231 993 q 250 953 243 965 q 276 933 257 940 q 326 925 294 925 q 385 936 368 925 q 406 958 401 947 q 413 971 411 968 q 427 987 417 981 q 451 993 438 993 q 507 946 507 993 q 488 876 507 910 q 427 821 468 843 q 325 799 386 799 z "},"ằ":{"ha":668,"x_min":53,"x_max":599,"o":"m 243 -11 q 102 47 151 -11 q 53 207 53 106 q 376 465 53 467 l 376 488 q 356 553 376 532 q 292 575 336 575 q 238 567 261 575 q 185 546 214 560 q 156 535 165 535 q 125 556 142 535 q 96 603 108 576 q 83 646 83 631 q 116 691 83 669 q 201 725 149 713 q 307 738 253 738 q 517 674 451 738 q 582 497 582 610 l 582 244 q 585 147 582 181 q 594 74 589 114 q 599 43 599 56 q 542 10 599 21 q 443 -1 486 -1 q 412 15 421 -1 q 393 69 403 32 q 336 14 375 39 q 243 -11 297 -11 m 306 138 q 347 150 328 138 q 376 183 365 163 l 376 346 q 238 222 238 346 q 256 160 238 183 q 306 138 274 138 m 325 799 q 191 843 238 799 q 144 946 144 888 q 200 993 144 993 q 242 968 231 993 q 250 953 243 965 q 276 933 257 940 q 326 925 294 925 q 385 936 368 925 q 406 958 401 947 q 413 971 411 968 q 427 987 417 981 q 451 993 438 993 q 507 946 507 993 q 488 876 507 910 q 427 821 468 843 q 325 799 386 799 m 347 1044 q 281 1054 301 1044 q 249 1079 260 1064 l 178 1168 q 137 1221 149 1204 q 125 1246 125 1238 q 143 1261 125 1257 q 200 1265 161 1265 q 311 1228 290 1265 q 368 1117 349 1157 q 388 1065 388 1076 q 379 1049 388 1053 q 347 1044 371 1044 z "},"ẳ":{"ha":668,"x_min":53,"x_max":599,"o":"m 243 -11 q 102 47 151 -11 q 53 207 53 106 q 376 465 53 467 l 376 488 q 356 553 376 532 q 292 575 336 575 q 238 567 261 575 q 185 546 214 560 q 156 535 165 535 q 125 556 142 535 q 96 603 108 576 q 83 646 83 631 q 116 691 83 669 q 201 725 149 713 q 307 738 253 738 q 517 674 451 738 q 582 497 582 610 l 582 244 q 585 147 582 181 q 594 74 589 114 q 599 43 599 56 q 542 10 599 21 q 443 -1 486 -1 q 412 15 421 -1 q 393 69 403 32 q 336 14 375 39 q 243 -11 297 -11 m 306 138 q 347 150 328 138 q 376 183 365 163 l 376 346 q 238 222 238 346 q 256 160 238 183 q 306 138 274 138 m 325 799 q 191 843 238 799 q 144 946 144 888 q 200 993 144 993 q 242 968 231 993 q 250 953 243 965 q 276 933 257 940 q 326 925 294 925 q 385 936 368 925 q 406 958 401 947 q 413 971 411 968 q 427 987 417 981 q 451 993 438 993 q 507 946 507 993 q 488 876 507 910 q 427 821 468 843 q 325 799 386 799 m 360 1038 q 310 1049 336 1038 q 285 1069 285 1061 q 321 1107 285 1081 q 363 1142 347 1126 q 378 1174 378 1158 q 365 1196 378 1188 q 333 1204 351 1204 q 298 1196 315 1204 q 275 1188 281 1188 q 250 1209 267 1188 q 233 1246 233 1231 q 271 1274 233 1260 q 344 1289 308 1289 q 458 1260 418 1289 q 499 1179 499 1231 q 471 1113 499 1146 q 408 1059 443 1081 q 360 1038 374 1038 z "},"ẵ":{"ha":668,"x_min":53,"x_max":599,"o":"m 243 -11 q 102 47 151 -11 q 53 207 53 106 q 376 465 53 467 l 376 488 q 356 553 376 532 q 292 575 336 575 q 238 567 261 575 q 185 546 214 560 q 156 535 165 535 q 125 556 142 535 q 96 603 108 576 q 83 646 83 631 q 116 691 83 669 q 201 725 149 713 q 307 738 253 738 q 517 674 451 738 q 582 497 582 610 l 582 244 q 585 147 582 181 q 594 74 589 114 q 599 43 599 56 q 542 10 599 21 q 443 -1 486 -1 q 412 15 421 -1 q 393 69 403 32 q 336 14 375 39 q 243 -11 297 -11 m 306 138 q 347 150 328 138 q 376 183 365 163 l 376 346 q 238 222 238 346 q 256 160 238 183 q 306 138 274 138 m 325 799 q 191 843 238 799 q 144 946 144 888 q 200 993 144 993 q 242 968 231 993 q 250 953 243 965 q 276 933 257 940 q 326 925 294 925 q 385 936 368 925 q 406 958 401 947 q 413 971 411 968 q 427 987 417 981 q 451 993 438 993 q 507 946 507 993 q 488 876 507 910 q 427 821 468 843 q 325 799 386 799 m 131 1056 q 99 1092 99 1064 q 104 1114 99 1101 q 152 1183 119 1156 q 229 1210 185 1210 q 321 1188 257 1210 q 354 1177 331 1185 q 390 1169 378 1169 q 426 1192 408 1169 q 443 1210 435 1204 q 464 1215 451 1215 q 483 1213 469 1215 l 497 1208 q 529 1172 529 1199 q 525 1151 529 1168 q 476 1082 510 1110 q 399 1054 442 1054 q 308 1076 372 1054 q 275 1087 300 1079 q 238 1094 250 1094 q 203 1072 218 1094 q 184 1054 193 1060 q 164 1049 175 1049 q 146 1051 157 1049 l 131 1056 z "},"â":{"ha":668,"x_min":53,"x_max":599,"o":"m 243 -11 q 102 47 151 -11 q 53 207 53 106 q 376 465 53 467 l 376 488 q 356 553 376 532 q 292 575 336 575 q 238 567 261 575 q 185 546 214 560 q 156 535 165 535 q 125 556 142 535 q 96 603 108 576 q 83 646 83 631 q 116 691 83 669 q 201 725 149 713 q 307 738 253 738 q 517 674 451 738 q 582 497 582 610 l 582 244 q 585 147 582 181 q 594 74 589 114 q 599 43 599 56 q 542 10 599 21 q 443 -1 486 -1 q 412 15 421 -1 q 393 69 403 32 q 336 14 375 39 q 243 -11 297 -11 m 306 138 q 347 150 328 138 q 376 183 365 163 l 376 346 q 238 222 238 346 q 256 160 238 183 q 306 138 274 138 m 182 794 q 153 808 153 794 q 163 832 153 815 l 244 971 q 274 992 256 988 q 324 997 292 997 l 326 997 q 376 992 358 997 q 406 971 394 988 l 489 832 q 499 808 499 815 q 471 794 499 794 l 432 794 q 361 819 375 794 l 325 883 l 289 821 q 219 794 272 794 l 182 794 z "},"ấ":{"ha":618,"x_min":53,"x_max":668,"o":"m 446 985 q 414 990 422 985 q 406 1006 406 994 q 415 1033 406 1014 q 440 1083 424 1053 l 483 1168 q 593 1206 503 1206 q 650 1201 632 1206 q 668 1186 668 1197 q 658 1164 668 1178 q 624 1119 649 1150 q 592 1079 611 1103 q 546 1019 574 1056 q 513 994 533 1003 q 446 985 492 985 m 167 794 q 142 797 149 794 q 136 808 136 800 q 144 829 136 817 l 221 971 q 249 992 231 988 q 300 997 267 997 l 303 997 q 354 992 336 997 q 381 971 372 988 l 458 829 q 467 808 467 817 q 439 794 467 794 l 400 794 q 329 819 342 794 l 301 883 l 274 821 q 248 799 265 804 q 204 794 231 794 l 167 794 m 243 -11 q 102 47 151 -11 q 53 207 53 106 q 376 465 53 467 l 376 488 q 356 553 376 532 q 292 575 336 575 q 238 567 261 575 q 185 546 214 560 q 156 535 165 535 q 125 556 142 535 q 96 603 108 576 q 83 646 83 631 q 116 691 83 669 q 201 725 149 713 q 307 738 253 738 q 517 674 451 738 q 582 497 582 610 l 582 244 q 585 147 582 181 q 594 74 589 114 q 599 43 599 56 q 542 10 599 21 q 443 -1 486 -1 q 412 15 421 -1 q 393 69 403 32 q 336 14 375 39 q 243 -11 297 -11 m 306 138 q 347 150 328 138 q 376 183 365 163 l 376 346 q 238 222 238 346 q 256 160 238 183 q 306 138 274 138 z "},"ậ":{"ha":668,"x_min":53,"x_max":599,"o":"m 243 -11 q 102 47 151 -11 q 53 207 53 106 q 376 465 53 467 l 376 488 q 356 553 376 532 q 292 575 336 575 q 238 567 261 575 q 185 546 214 560 q 156 535 165 535 q 125 556 142 535 q 96 603 108 576 q 83 646 83 631 q 116 691 83 669 q 201 725 149 713 q 307 738 253 738 q 517 674 451 738 q 582 497 582 610 l 582 244 q 585 147 582 181 q 594 74 589 114 q 599 43 599 56 q 542 10 599 21 q 443 -1 486 -1 q 412 15 421 -1 q 393 69 403 32 q 336 14 375 39 q 243 -11 297 -11 m 306 138 q 347 150 328 138 q 376 183 365 163 l 376 346 q 238 222 238 346 q 256 160 238 183 q 306 138 274 138 m 332 -283 q 235 -239 235 -283 l 235 -156 q 328 -111 235 -111 q 425 -156 425 -111 l 425 -239 q 332 -283 425 -283 m 182 794 q 153 808 153 794 q 163 832 153 815 l 244 971 q 274 992 256 988 q 324 997 292 997 l 326 997 q 376 992 358 997 q 406 971 394 988 l 489 832 q 499 808 499 815 q 471 794 499 794 l 432 794 q 361 819 375 794 l 325 883 l 289 821 q 219 794 272 794 l 182 794 z "},"ầ":{"ha":618,"x_min":53,"x_max":599,"o":"m 496 985 q 429 994 450 985 q 397 1019 408 1004 l 326 1108 q 285 1161 297 1144 q 274 1186 274 1178 q 292 1201 274 1197 q 349 1206 310 1206 q 460 1168 439 1206 q 517 1057 497 1097 q 536 1006 536 1017 q 528 989 536 993 q 496 985 519 985 m 167 794 q 142 797 149 794 q 136 808 136 800 q 144 829 136 817 l 221 971 q 249 992 231 988 q 300 997 267 997 l 303 997 q 354 992 336 997 q 381 971 372 988 l 458 829 q 467 808 467 817 q 439 794 467 794 l 400 794 q 329 819 342 794 l 301 883 l 274 821 q 248 799 265 804 q 204 794 231 794 l 167 794 m 243 -11 q 102 47 151 -11 q 53 207 53 106 q 376 465 53 467 l 376 488 q 356 553 376 532 q 292 575 336 575 q 238 567 261 575 q 185 546 214 560 q 156 535 165 535 q 125 556 142 535 q 96 603 108 576 q 83 646 83 631 q 116 691 83 669 q 201 725 149 713 q 307 738 253 738 q 517 674 451 738 q 582 497 582 610 l 582 244 q 585 147 582 181 q 594 74 589 114 q 599 43 599 56 q 542 10 599 21 q 443 -1 486 -1 q 412 15 421 -1 q 393 69 403 32 q 336 14 375 39 q 243 -11 297 -11 m 306 138 q 347 150 328 138 q 376 183 365 163 l 376 346 q 238 222 238 346 q 256 160 238 183 q 306 138 274 138 z "},"ẩ":{"ha":618,"x_min":53,"x_max":647,"o":"m 508 978 q 459 990 485 978 q 433 1010 433 1001 q 469 1047 433 1021 q 511 1083 496 1067 q 526 1114 526 1099 q 513 1136 526 1128 q 482 1144 500 1144 q 447 1136 464 1144 q 424 1128 429 1128 q 399 1149 415 1128 q 382 1186 382 1171 q 419 1215 382 1200 q 493 1229 457 1229 q 607 1200 567 1229 q 647 1119 647 1171 q 619 1053 647 1086 q 557 999 592 1021 q 508 978 522 978 m 167 794 q 142 797 149 794 q 136 808 136 800 q 144 829 136 817 l 221 971 q 249 992 231 988 q 300 997 267 997 l 303 997 q 354 992 336 997 q 381 971 372 988 l 458 829 q 467 808 467 817 q 439 794 467 794 l 400 794 q 329 819 342 794 l 301 883 l 274 821 q 248 799 265 804 q 204 794 231 794 l 167 794 m 243 -11 q 102 47 151 -11 q 53 207 53 106 q 376 465 53 467 l 376 488 q 356 553 376 532 q 292 575 336 575 q 238 567 261 575 q 185 546 214 560 q 156 535 165 535 q 125 556 142 535 q 96 603 108 576 q 83 646 83 631 q 116 691 83 669 q 201 725 149 713 q 307 738 253 738 q 517 674 451 738 q 582 497 582 610 l 582 244 q 585 147 582 181 q 594 74 589 114 q 599 43 599 56 q 542 10 599 21 q 443 -1 486 -1 q 412 15 421 -1 q 393 69 403 32 q 336 14 375 39 q 243 -11 297 -11 m 306 138 q 347 150 328 138 q 376 183 365 163 l 376 346 q 238 222 238 346 q 256 160 238 183 q 306 138 274 138 z "},"ẫ":{"ha":618,"x_min":53,"x_max":599,"o":"m 163 1032 q 140 1047 147 1036 q 133 1068 133 1057 q 139 1090 133 1078 q 183 1160 153 1133 q 253 1186 213 1186 q 336 1164 278 1186 q 366 1153 344 1161 q 400 1146 388 1146 q 432 1168 415 1146 q 467 1192 446 1192 q 483 1189 472 1192 l 497 1185 q 525 1149 525 1175 q 522 1128 525 1139 q 477 1058 508 1086 q 407 1031 446 1031 q 324 1053 382 1031 q 296 1063 318 1056 q 261 1071 274 1071 q 228 1049 243 1071 q 194 1025 213 1025 q 176 1028 188 1025 l 163 1032 m 167 794 q 144 797 150 794 q 138 808 138 800 q 141 822 138 814 q 150 838 144 829 l 221 940 q 249 961 232 956 q 301 967 267 967 l 304 967 q 355 961 338 967 q 383 940 372 956 l 454 838 q 467 808 467 815 q 439 794 467 794 l 400 794 q 358 800 371 794 q 331 819 344 806 l 303 875 l 271 821 q 244 800 256 806 q 204 794 232 794 l 167 794 m 243 -11 q 102 47 151 -11 q 53 207 53 106 q 376 465 53 467 l 376 488 q 356 553 376 532 q 292 575 336 575 q 238 567 261 575 q 185 546 214 560 q 156 535 165 535 q 125 556 142 535 q 96 603 108 576 q 83 646 83 631 q 116 691 83 669 q 201 725 149 713 q 307 738 253 738 q 517 674 451 738 q 582 497 582 610 l 582 244 q 585 147 582 181 q 594 74 589 114 q 599 43 599 56 q 542 10 599 21 q 443 -1 486 -1 q 412 15 421 -1 q 393 69 403 32 q 336 14 375 39 q 243 -11 297 -11 m 306 138 q 347 150 328 138 q 376 183 365 163 l 376 346 q 238 222 238 346 q 256 160 238 183 q 306 138 274 138 z "},"ä":{"ha":668,"x_min":53,"x_max":599,"o":"m 243 -11 q 102 47 151 -11 q 53 207 53 106 q 376 465 53 467 l 376 488 q 356 553 376 532 q 292 575 336 575 q 238 567 261 575 q 185 546 214 560 q 156 535 165 535 q 125 556 142 535 q 96 603 108 576 q 83 646 83 631 q 116 691 83 669 q 201 725 149 713 q 307 738 253 738 q 517 674 451 738 q 582 497 582 610 l 582 244 q 585 147 582 181 q 594 74 589 114 q 599 43 599 56 q 542 10 599 21 q 443 -1 486 -1 q 412 15 421 -1 q 393 69 403 32 q 336 14 375 39 q 243 -11 297 -11 m 306 138 q 347 150 328 138 q 376 183 365 163 l 376 346 q 238 222 238 346 q 256 160 238 183 q 306 138 274 138 m 217 803 q 136 847 136 803 l 136 931 q 214 975 136 975 q 294 931 294 975 l 294 847 q 217 803 294 803 m 442 803 q 361 847 361 803 l 361 931 q 439 975 361 975 q 519 931 519 975 l 519 847 q 442 803 519 803 z "},"ạ":{"ha":668,"x_min":53,"x_max":599,"o":"m 243 -11 q 102 47 151 -11 q 53 207 53 106 q 376 465 53 467 l 376 488 q 356 553 376 532 q 292 575 336 575 q 238 567 261 575 q 185 546 214 560 q 156 535 165 535 q 125 556 142 535 q 96 603 108 576 q 83 646 83 631 q 116 691 83 669 q 201 725 149 713 q 307 738 253 738 q 517 674 451 738 q 582 497 582 610 l 582 244 q 585 147 582 181 q 594 74 589 114 q 599 43 599 56 q 542 10 599 21 q 443 -1 486 -1 q 412 15 421 -1 q 393 69 403 32 q 336 14 375 39 q 243 -11 297 -11 m 306 138 q 347 150 328 138 q 376 183 365 163 l 376 346 q 238 222 238 346 q 256 160 238 183 q 306 138 274 138 m 332 -283 q 235 -239 235 -283 l 235 -156 q 328 -111 235 -111 q 425 -156 425 -111 l 425 -239 q 332 -283 425 -283 z "},"à":{"ha":668,"x_min":53,"x_max":599,"o":"m 243 -11 q 102 47 151 -11 q 53 207 53 106 q 376 465 53 467 l 376 488 q 356 553 376 532 q 292 575 336 575 q 238 567 261 575 q 185 546 214 560 q 156 535 165 535 q 125 556 142 535 q 96 603 108 576 q 83 646 83 631 q 116 691 83 669 q 201 725 149 713 q 307 738 253 738 q 517 674 451 738 q 582 497 582 610 l 582 244 q 585 147 582 181 q 594 74 589 114 q 599 43 599 56 q 542 10 599 21 q 443 -1 486 -1 q 412 15 421 -1 q 393 69 403 32 q 336 14 375 39 q 243 -11 297 -11 m 306 138 q 347 150 328 138 q 376 183 365 163 l 376 346 q 238 222 238 346 q 256 160 238 183 q 306 138 274 138 m 347 799 q 281 808 301 799 q 249 833 260 818 l 178 922 q 137 975 149 958 q 125 1000 125 992 q 143 1015 125 1011 q 200 1019 161 1019 q 311 982 290 1019 q 368 871 349 911 q 388 819 388 831 q 379 803 388 807 q 347 799 371 799 z "},"ả":{"ha":668,"x_min":53,"x_max":599,"o":"m 243 -11 q 102 47 151 -11 q 53 207 53 106 q 376 465 53 467 l 376 488 q 356 553 376 532 q 292 575 336 575 q 238 567 261 575 q 185 546 214 560 q 156 535 165 535 q 125 556 142 535 q 96 603 108 576 q 83 646 83 631 q 116 691 83 669 q 201 725 149 713 q 307 738 253 738 q 517 674 451 738 q 582 497 582 610 l 582 244 q 585 147 582 181 q 594 74 589 114 q 599 43 599 56 q 542 10 599 21 q 443 -1 486 -1 q 412 15 421 -1 q 393 69 403 32 q 336 14 375 39 q 243 -11 297 -11 m 306 138 q 347 150 328 138 q 376 183 365 163 l 376 346 q 238 222 238 346 q 256 160 238 183 q 306 138 274 138 m 360 792 q 310 803 336 792 q 285 824 285 815 q 321 861 285 835 q 363 897 347 881 q 378 928 378 913 q 365 950 378 942 q 333 958 351 958 q 298 950 315 958 q 275 942 281 942 q 250 963 267 942 q 233 1000 233 985 q 271 1028 233 1014 q 344 1043 308 1043 q 458 1014 418 1043 q 499 933 499 985 q 471 867 499 900 q 408 813 443 835 q 360 792 374 792 z "},"ā":{"ha":668,"x_min":53,"x_max":599,"o":"m 243 -11 q 102 47 151 -11 q 53 207 53 106 q 376 465 53 467 l 376 488 q 356 553 376 532 q 292 575 336 575 q 238 567 261 575 q 185 546 214 560 q 156 535 165 535 q 125 556 142 535 q 96 603 108 576 q 83 646 83 631 q 116 691 83 669 q 201 725 149 713 q 307 738 253 738 q 517 674 451 738 q 582 497 582 610 l 582 244 q 585 147 582 181 q 594 74 589 114 q 599 43 599 56 q 542 10 599 21 q 443 -1 486 -1 q 412 15 421 -1 q 393 69 403 32 q 336 14 375 39 q 243 -11 297 -11 m 306 138 q 347 150 328 138 q 376 183 365 163 l 376 346 q 238 222 238 346 q 256 160 238 183 q 306 138 274 138 m 193 829 q 163 842 172 829 q 153 885 153 856 l 153 906 q 163 948 153 935 q 193 961 172 961 l 458 961 q 490 948 481 961 q 499 906 499 935 l 499 885 q 490 842 499 856 q 458 829 481 829 l 193 829 z "},"ą":{"ha":668,"x_min":53,"x_max":718,"o":"m 676 -115 q 708 -124 699 -115 q 718 -157 718 -133 q 694 -200 718 -186 q 617 -217 658 -217 q 510 -175 538 -217 q 482 -86 482 -133 q 499 3 482 -46 q 443 -1 464 -1 q 412 15 421 -1 q 393 69 403 32 q 336 14 375 39 q 243 -11 297 -11 q 102 47 151 -11 q 53 207 53 106 q 376 465 53 467 l 376 488 q 356 553 376 532 q 292 575 336 575 q 238 567 261 575 q 185 546 214 560 q 156 535 165 535 q 125 556 142 535 q 96 603 108 576 q 83 646 83 631 q 116 691 83 669 q 201 725 149 713 q 307 738 253 738 q 517 674 451 738 q 582 497 582 610 l 582 244 q 585 147 582 181 q 594 74 589 114 q 599 43 599 56 q 594 32 599 39 q 575 -60 575 -12 q 643 -121 575 -121 q 663 -118 654 -121 q 676 -115 671 -115 m 376 346 q 238 222 238 346 q 256 160 238 183 q 306 138 274 138 q 347 150 328 138 q 376 183 365 163 l 376 346 z "},"å":{"ha":668,"x_min":53,"x_max":599,"o":"m 243 -11 q 102 47 151 -11 q 53 207 53 106 q 376 465 53 467 l 376 488 q 356 553 376 532 q 292 575 336 575 q 238 567 261 575 q 185 546 214 560 q 156 535 165 535 q 125 556 142 535 q 96 603 108 576 q 83 646 83 631 q 116 691 83 669 q 201 725 149 713 q 307 738 253 738 q 517 674 451 738 q 582 497 582 610 l 582 244 q 585 147 582 181 q 594 74 589 114 q 599 43 599 56 q 542 10 599 21 q 443 -1 486 -1 q 412 15 421 -1 q 393 69 403 32 q 336 14 375 39 q 243 -11 297 -11 m 306 138 q 347 150 328 138 q 376 183 365 163 l 376 346 q 238 222 238 346 q 256 160 238 183 q 306 138 274 138 m 324 764 q 224 802 260 764 q 188 901 188 840 q 224 1001 188 963 q 324 1040 260 1040 q 424 1002 388 1040 q 461 901 461 964 q 424 802 461 840 q 324 764 388 764 m 325 850 q 363 863 349 850 q 376 900 376 876 q 363 938 376 924 q 325 951 349 951 q 287 938 300 951 q 274 900 274 924 q 287 863 274 876 q 325 850 300 850 z "},"ǻ":{"ha":668,"x_min":53,"x_max":599,"o":"m 243 -11 q 102 47 151 -11 q 53 207 53 106 q 376 465 53 467 l 376 488 q 356 553 376 532 q 292 575 336 575 q 238 567 261 575 q 185 546 214 560 q 156 535 165 535 q 125 556 142 535 q 96 603 108 576 q 83 646 83 631 q 116 691 83 669 q 201 725 149 713 q 307 738 253 738 q 517 674 451 738 q 582 497 582 610 l 582 244 q 585 147 582 181 q 594 74 589 114 q 599 43 599 56 q 542 10 599 21 q 443 -1 486 -1 q 412 15 421 -1 q 393 69 403 32 q 336 14 375 39 q 243 -11 297 -11 m 306 138 q 347 150 328 138 q 376 183 365 163 l 376 346 q 238 222 238 346 q 256 160 238 183 q 306 138 274 138 m 324 764 q 224 802 260 764 q 188 901 188 840 q 224 1001 188 963 q 324 1040 260 1040 q 424 1002 388 1040 q 461 901 461 964 q 424 802 461 840 q 324 764 388 764 m 325 850 q 363 863 349 850 q 376 900 376 876 q 363 938 376 924 q 325 951 349 951 q 287 938 300 951 q 274 900 274 924 q 287 863 274 876 q 325 850 300 850 m 297 1069 q 265 1074 274 1069 q 257 1090 257 1079 q 266 1118 257 1099 q 292 1168 275 1138 l 335 1253 q 444 1290 354 1290 q 501 1286 483 1290 q 519 1271 519 1282 q 510 1249 519 1263 q 475 1204 500 1235 q 444 1164 463 1188 q 397 1104 425 1140 q 364 1078 385 1088 q 297 1069 343 1069 z "},"ã":{"ha":668,"x_min":53,"x_max":599,"o":"m 243 -11 q 102 47 151 -11 q 53 207 53 106 q 376 465 53 467 l 376 488 q 356 553 376 532 q 292 575 336 575 q 238 567 261 575 q 185 546 214 560 q 156 535 165 535 q 125 556 142 535 q 96 603 108 576 q 83 646 83 631 q 116 691 83 669 q 201 725 149 713 q 307 738 253 738 q 517 674 451 738 q 582 497 582 610 l 582 244 q 585 147 582 181 q 594 74 589 114 q 599 43 599 56 q 542 10 599 21 q 443 -1 486 -1 q 412 15 421 -1 q 393 69 403 32 q 336 14 375 39 q 243 -11 297 -11 m 306 138 q 347 150 328 138 q 376 183 365 163 l 376 346 q 238 222 238 346 q 256 160 238 183 q 306 138 274 138 m 131 810 q 99 846 99 818 q 104 868 99 856 q 152 937 119 910 q 229 964 185 964 q 321 942 257 964 q 354 931 331 939 q 390 924 378 924 q 426 946 408 924 q 443 964 435 958 q 464 969 451 969 q 483 967 469 969 l 497 963 q 529 926 529 953 q 525 906 529 922 q 476 836 510 864 q 399 808 442 808 q 308 831 372 808 q 275 841 300 833 q 238 849 250 849 q 203 826 218 849 q 184 808 193 814 q 164 803 175 803 q 146 806 157 803 l 131 810 z "},"æ":{"ha":922,"x_min":29,"x_max":896,"o":"m 238 -11 q 83 47 138 -11 q 29 207 29 106 q 354 465 29 467 q 367 525 358 497 q 271 575 347 575 q 220 568 242 575 q 165 547 199 561 q 132 535 140 535 q 101 556 118 535 q 72 603 83 576 q 60 646 60 631 q 92 691 60 669 q 178 725 125 713 q 289 738 231 738 q 394 726 346 738 q 472 694 442 714 q 635 738 535 738 q 835 644 774 738 q 896 369 896 551 q 867 320 896 353 q 825 288 839 288 l 563 288 q 593 183 563 215 q 672 151 624 151 q 726 160 701 151 q 778 181 750 168 q 807 192 800 192 q 852 151 826 192 q 878 85 878 111 q 842 34 878 56 q 753 1 806 13 q 656 -11 701 -11 q 433 71 515 -11 q 355 13 408 36 q 238 -11 301 -11 m 699 425 q 684 541 699 507 q 636 575 669 575 q 583 543 603 575 q 558 425 563 511 l 699 425 m 282 151 q 330 163 307 151 q 367 197 353 175 q 349 331 351 253 q 225 222 225 331 q 240 171 225 190 q 282 151 254 151 z "},"ǽ":{"ha":922,"x_min":29,"x_max":896,"o":"m 238 -11 q 83 47 138 -11 q 29 207 29 106 q 354 465 29 467 q 367 525 358 497 q 271 575 347 575 q 220 568 242 575 q 165 547 199 561 q 132 535 140 535 q 101 556 118 535 q 72 603 83 576 q 60 646 60 631 q 92 691 60 669 q 178 725 125 713 q 289 738 231 738 q 394 726 346 738 q 472 694 442 714 q 635 738 535 738 q 835 644 774 738 q 896 369 896 551 q 867 320 896 353 q 825 288 839 288 l 563 288 q 593 183 563 215 q 672 151 624 151 q 726 160 701 151 q 778 181 750 168 q 807 192 800 192 q 852 151 826 192 q 878 85 878 111 q 842 34 878 56 q 753 1 806 13 q 656 -11 701 -11 q 433 71 515 -11 q 355 13 408 36 q 238 -11 301 -11 m 699 425 q 684 541 699 507 q 636 575 669 575 q 583 543 603 575 q 558 425 563 511 l 699 425 m 282 151 q 330 163 307 151 q 367 197 353 175 q 349 331 351 253 q 225 222 225 331 q 240 171 225 190 q 282 151 254 151 m 440 799 q 408 803 417 799 q 400 819 400 808 q 409 847 400 828 q 435 897 418 867 l 478 982 q 588 1019 497 1019 q 644 1015 626 1019 q 663 1000 663 1011 q 653 978 663 992 q 618 933 643 964 q 587 893 606 917 q 540 833 568 869 q 507 808 528 817 q 440 799 486 799 z "},"b":{"ha":669,"x_min":69,"x_max":621,"o":"m 410 -11 q 321 16 363 -11 q 257 86 279 43 l 246 33 q 222 5 240 13 q 169 -3 204 -3 l 153 -3 q 69 42 69 -3 l 69 1003 q 153 1047 69 1047 l 192 1047 q 275 1003 275 1047 l 275 696 q 390 738 322 738 q 560 640 500 738 q 621 361 621 543 q 563 87 621 185 q 410 -11 506 -11 m 342 157 q 396 203 379 157 q 413 363 413 250 q 394 529 413 483 q 333 575 375 575 q 275 554 301 575 l 275 204 q 342 157 304 157 z "},"c":{"ha":567,"x_min":47,"x_max":550,"o":"m 342 -11 q 47 361 47 -11 q 347 738 47 738 q 444 724 397 738 q 519 689 490 711 q 549 642 549 667 q 527 576 549 617 q 486 536 506 536 q 460 547 478 536 q 415 567 435 560 q 369 575 396 575 q 285 526 313 575 q 257 364 257 478 q 283 201 257 250 q 365 151 310 151 q 411 158 390 151 q 446 172 432 165 q 464 181 460 179 q 489 190 483 190 q 530 151 510 190 q 550 85 550 111 q 515 36 550 58 q 431 1 481 14 q 342 -11 382 -11 z "},"ć":{"ha":567,"x_min":47,"x_max":550,"o":"m 342 -11 q 47 361 47 -11 q 347 738 47 738 q 444 724 397 738 q 519 689 490 711 q 549 642 549 667 q 527 576 549 617 q 486 536 506 536 q 460 547 478 536 q 415 567 435 560 q 369 575 396 575 q 285 526 313 575 q 257 364 257 478 q 283 201 257 250 q 365 151 310 151 q 411 158 390 151 q 446 172 432 165 q 464 181 460 179 q 489 190 483 190 q 530 151 510 190 q 550 85 550 111 q 515 36 550 58 q 431 1 481 14 q 342 -11 382 -11 m 288 799 q 256 803 264 799 q 247 819 247 808 q 256 847 247 828 q 282 897 265 867 l 325 982 q 435 1019 344 1019 q 492 1015 474 1019 q 510 1000 510 1011 q 500 978 510 992 q 465 933 490 964 q 434 893 453 917 q 388 833 415 869 q 354 808 375 817 q 288 799 333 799 z "},"č":{"ha":567,"x_min":47,"x_max":550,"o":"m 342 -11 q 47 361 47 -11 q 347 738 47 738 q 444 724 397 738 q 519 689 490 711 q 549 642 549 667 q 527 576 549 617 q 486 536 506 536 q 460 547 478 536 q 415 567 435 560 q 369 575 396 575 q 285 526 313 575 q 257 364 257 478 q 283 201 257 250 q 365 151 310 151 q 411 158 390 151 q 446 172 432 165 q 464 181 460 179 q 489 190 483 190 q 530 151 510 190 q 550 85 550 111 q 515 36 550 58 q 431 1 481 14 q 342 -11 382 -11 m 311 794 q 263 799 279 794 q 235 821 246 804 l 153 960 q 143 983 143 976 q 172 997 143 997 l 210 997 q 279 971 263 997 l 315 908 l 351 972 q 422 997 365 997 l 461 997 q 489 983 489 997 q 479 960 489 976 l 396 821 q 367 799 385 804 q 319 794 350 794 l 311 794 z "},"ç":{"ha":567,"x_min":47,"x_max":550,"o":"m 550 85 q 501 28 550 53 q 389 -7 451 3 l 371 -67 q 435 -99 411 -74 q 460 -169 460 -125 q 421 -262 460 -231 q 315 -294 382 -294 q 212 -273 256 -294 q 168 -222 168 -251 q 184 -181 168 -197 q 213 -164 200 -164 q 247 -176 225 -164 q 267 -185 250 -178 q 303 -193 283 -193 q 331 -171 331 -193 q 323 -153 331 -160 q 299 -140 315 -147 q 274 -127 282 -133 q 265 -110 265 -121 q 285 -46 265 -99 q 297 -8 289 -29 q 47 361 47 17 q 347 738 47 738 q 444 724 397 738 q 519 689 490 711 q 549 642 549 667 q 527 576 549 617 q 486 536 506 536 q 460 547 478 536 q 415 567 435 560 q 369 575 396 575 q 285 526 313 575 q 257 364 257 478 q 283 201 257 250 q 365 151 310 151 q 411 158 390 151 q 446 172 432 165 q 464 181 460 179 q 489 190 483 190 q 530 151 510 190 q 550 85 550 111 z "},"ĉ":{"ha":567,"x_min":47,"x_max":550,"o":"m 342 -11 q 47 361 47 -11 q 347 738 47 738 q 444 724 397 738 q 519 689 490 711 q 549 642 549 667 q 527 576 549 617 q 486 536 506 536 q 460 547 478 536 q 415 567 435 560 q 369 575 396 575 q 285 526 313 575 q 257 364 257 478 q 283 201 257 250 q 365 151 310 151 q 411 158 390 151 q 446 172 432 165 q 464 181 460 179 q 489 190 483 190 q 530 151 510 190 q 550 85 550 111 q 515 36 550 58 q 431 1 481 14 q 342 -11 382 -11 m 172 794 q 143 808 143 794 q 153 832 143 815 l 235 971 q 264 992 246 988 q 314 997 282 997 l 317 997 q 367 992 349 997 q 396 971 385 988 l 479 832 q 489 808 489 815 q 461 794 489 794 l 422 794 q 351 819 365 794 l 315 883 l 279 821 q 210 794 263 794 l 172 794 z "},"ċ":{"ha":567,"x_min":47,"x_max":550,"o":"m 342 -11 q 47 361 47 -11 q 347 738 47 738 q 444 724 397 738 q 519 689 490 711 q 549 642 549 667 q 527 576 549 617 q 486 536 506 536 q 460 547 478 536 q 415 567 435 560 q 369 575 396 575 q 285 526 313 575 q 257 364 257 478 q 283 201 257 250 q 365 151 310 151 q 411 158 390 151 q 446 172 432 165 q 464 181 460 179 q 489 190 483 190 q 530 151 510 190 q 550 85 550 111 q 515 36 550 58 q 431 1 481 14 q 342 -11 382 -11 m 319 803 q 222 847 222 803 l 222 931 q 315 975 222 975 q 413 931 413 975 l 413 847 q 319 803 413 803 z "},"d":{"ha":668,"x_min":49,"x_max":617,"o":"m 257 -11 q 149 33 196 -11 q 76 162 103 76 q 49 367 49 247 q 110 641 49 544 q 281 738 171 738 q 394 697 349 738 l 394 1003 q 478 1047 394 1047 l 517 1047 q 600 1003 600 1047 l 600 244 q 603 147 600 181 q 613 74 607 114 q 617 43 617 56 q 560 10 617 21 q 461 -1 504 -1 q 423 22 433 -1 q 404 86 413 44 q 344 16 383 43 q 257 -11 306 -11 m 326 157 q 394 213 367 157 l 394 556 q 338 575 367 575 q 276 526 296 575 q 257 363 257 476 q 274 206 257 254 q 326 157 290 157 z "},"ð":{"ha":663,"x_min":47,"x_max":615,"o":"m 481 842 q 576 624 536 753 q 615 364 615 496 q 543 85 615 182 q 331 -11 471 -11 q 119 85 192 -11 q 47 364 47 182 q 119 637 47 543 q 331 731 190 731 q 354 729 346 731 q 310 818 342 758 q 225 807 233 807 q 188 825 204 807 q 171 865 171 843 q 200 888 171 883 l 260 896 l 240 921 q 207 967 207 957 q 233 983 207 979 l 319 993 q 372 978 349 993 q 428 918 393 963 l 522 931 q 557 912 540 931 q 574 872 574 893 q 544 850 574 854 l 481 842 m 332 151 q 390 199 372 151 q 407 364 407 247 q 390 522 407 476 q 332 568 372 568 q 273 522 290 568 q 256 364 256 476 q 273 199 256 247 q 332 151 290 151 z "},"ď":{"ha":668,"x_min":49,"x_max":792,"o":"m 257 -11 q 149 33 196 -11 q 76 162 103 76 q 49 367 49 247 q 110 641 49 544 q 281 738 171 738 q 394 697 349 738 l 394 1003 q 478 1047 394 1047 l 517 1047 q 600 1003 600 1047 l 600 244 q 603 147 600 181 q 613 74 607 114 q 617 43 617 56 q 560 10 617 21 q 461 -1 504 -1 q 423 22 433 -1 q 404 86 413 44 q 344 16 383 43 q 257 -11 306 -11 m 326 157 q 394 213 367 157 l 394 556 q 338 575 367 575 q 276 526 296 575 q 257 363 257 476 q 274 206 257 254 q 326 157 290 157 m 683 710 q 641 717 661 710 q 621 740 621 725 q 624 842 621 783 q 626 911 626 892 q 696 972 626 972 l 722 972 q 774 956 757 972 q 792 911 792 939 q 773 822 792 868 q 728 743 754 775 q 683 710 701 711 z "},"đ":{"ha":649,"x_min":49,"x_max":690,"o":"m 642 942 q 679 928 668 942 q 690 886 690 915 l 690 865 q 679 823 690 836 q 642 810 668 810 l 600 810 l 600 244 q 603 147 600 181 q 613 74 607 114 q 617 43 617 56 q 560 10 617 21 q 461 -1 504 -1 q 423 22 433 -1 q 404 86 413 44 q 344 16 383 43 q 257 -11 306 -11 q 149 33 196 -11 q 76 162 103 76 q 49 367 49 247 q 110 641 49 544 q 281 738 171 738 q 394 697 349 738 l 394 810 l 315 810 q 265 865 265 810 l 265 886 q 315 942 265 942 l 394 942 l 394 1003 q 478 1047 394 1047 l 517 1047 q 600 1003 600 1047 l 600 942 l 642 942 m 394 556 q 338 575 367 575 q 276 526 296 575 q 257 363 257 476 q 274 206 257 254 q 326 157 290 157 q 394 213 367 157 l 394 556 z "},"ḍ":{"ha":668,"x_min":49,"x_max":617,"o":"m 257 -11 q 149 33 196 -11 q 76 162 103 76 q 49 367 49 247 q 110 641 49 544 q 281 738 171 738 q 394 697 349 738 l 394 1003 q 478 1047 394 1047 l 517 1047 q 600 1003 600 1047 l 600 244 q 603 147 600 181 q 613 74 607 114 q 617 43 617 56 q 560 10 617 21 q 461 -1 504 -1 q 423 22 433 -1 q 404 86 413 44 q 344 16 383 43 q 257 -11 306 -11 m 326 157 q 394 213 367 157 l 394 556 q 338 575 367 575 q 276 526 296 575 q 257 363 257 476 q 274 206 257 254 q 326 157 290 157 m 343 -283 q 246 -239 246 -283 l 246 -156 q 339 -111 246 -111 q 436 -156 436 -111 l 436 -239 q 343 -283 436 -283 z "},"ǳ":{"ha":1231,"x_min":49,"x_max":1197,"o":"m 257 -11 q 149 33 196 -11 q 76 162 103 76 q 49 367 49 247 q 110 641 49 544 q 281 738 171 738 q 394 697 349 738 l 394 1003 q 478 1047 394 1047 l 517 1047 q 600 1003 600 1047 l 600 244 q 603 147 600 181 q 613 74 607 114 q 617 43 617 56 q 560 10 617 21 q 461 -1 504 -1 q 423 22 433 -1 q 404 86 413 44 q 344 16 383 43 q 257 -11 306 -11 m 326 157 q 394 213 367 157 l 394 556 q 338 575 367 575 q 276 526 296 575 q 257 363 257 476 q 274 206 257 254 q 326 157 290 157 m 739 0 q 714 38 726 0 q 701 106 701 76 q 704 125 701 117 l 940 564 l 757 564 q 726 581 736 564 q 717 633 717 597 l 717 657 q 726 710 717 693 q 757 726 736 726 l 1153 726 q 1176 688 1163 726 q 1190 619 1190 649 q 1186 599 1190 607 l 950 163 l 1157 163 q 1188 146 1178 163 q 1197 93 1197 129 l 1197 69 q 1188 17 1197 33 q 1157 0 1178 0 l 739 0 z "},"ǆ":{"ha":1231,"x_min":49,"x_max":1197,"o":"m 257 -11 q 149 33 196 -11 q 76 162 103 76 q 49 367 49 247 q 110 641 49 544 q 281 738 171 738 q 394 697 349 738 l 394 1003 q 478 1047 394 1047 l 517 1047 q 600 1003 600 1047 l 600 244 q 603 147 600 181 q 613 74 607 114 q 617 43 617 56 q 560 10 617 21 q 461 -1 504 -1 q 423 22 433 -1 q 404 86 413 44 q 344 16 383 43 q 257 -11 306 -11 m 326 157 q 394 213 367 157 l 394 556 q 338 575 367 575 q 276 526 296 575 q 257 363 257 476 q 274 206 257 254 q 326 157 290 157 m 739 0 q 714 38 726 0 q 701 106 701 76 q 704 125 701 117 l 940 564 l 757 564 q 726 581 736 564 q 717 633 717 597 l 717 657 q 726 710 717 693 q 757 726 736 726 l 1153 726 q 1176 688 1163 726 q 1190 619 1190 649 q 1186 599 1190 607 l 950 163 l 1157 163 q 1188 146 1178 163 q 1197 93 1197 129 l 1197 69 q 1188 17 1197 33 q 1157 0 1178 0 l 739 0 m 946 794 q 897 799 914 794 q 869 821 881 804 l 788 960 q 778 983 778 976 q 807 997 778 997 l 844 997 q 914 971 897 997 l 950 908 l 986 972 q 1057 997 1000 997 l 1096 997 q 1124 983 1124 997 q 1114 960 1124 976 l 1031 821 q 1002 799 1019 804 q 954 794 985 794 l 946 794 z "},"e":{"ha":631,"x_min":47,"x_max":594,"o":"m 361 -11 q 124 83 200 -11 q 47 358 47 176 q 123 651 47 564 q 336 738 199 738 q 533 642 472 738 q 594 364 594 546 q 566 315 594 347 q 524 282 538 282 l 260 282 q 292 181 263 211 q 371 151 321 151 q 426 160 401 151 q 475 180 451 168 q 504 192 499 192 q 535 172 518 192 q 565 126 553 151 q 576 86 576 100 q 539 33 576 54 q 451 0 501 11 q 361 -11 400 -11 m 407 406 q 390 547 407 504 q 335 589 374 589 q 277 549 297 589 q 251 406 257 508 l 407 406 z "},"é":{"ha":631,"x_min":47,"x_max":594,"o":"m 361 -11 q 124 83 200 -11 q 47 358 47 176 q 123 651 47 564 q 336 738 199 738 q 533 642 472 738 q 594 364 594 546 q 566 315 594 347 q 524 282 538 282 l 260 282 q 292 181 263 211 q 371 151 321 151 q 426 160 401 151 q 475 180 451 168 q 504 192 499 192 q 535 172 518 192 q 565 126 553 151 q 576 86 576 100 q 539 33 576 54 q 451 0 501 11 q 361 -11 400 -11 m 407 406 q 390 547 407 504 q 335 589 374 589 q 277 549 297 589 q 251 406 257 508 l 407 406 m 292 799 q 260 803 268 799 q 251 819 251 808 q 260 847 251 828 q 286 897 269 867 l 329 982 q 439 1019 349 1019 q 496 1015 478 1019 q 514 1000 514 1011 q 504 978 514 992 q 469 933 494 964 q 438 893 457 917 q 392 833 419 869 q 358 808 379 817 q 292 799 338 799 z "},"ĕ":{"ha":631,"x_min":47,"x_max":594,"o":"m 361 -11 q 124 83 200 -11 q 47 358 47 176 q 123 651 47 564 q 336 738 199 738 q 533 642 472 738 q 594 364 594 546 q 566 315 594 347 q 524 282 538 282 l 260 282 q 292 181 263 211 q 371 151 321 151 q 426 160 401 151 q 475 180 451 168 q 504 192 499 192 q 535 172 518 192 q 565 126 553 151 q 576 86 576 100 q 539 33 576 54 q 451 0 501 11 q 361 -11 400 -11 m 407 406 q 390 547 407 504 q 335 589 374 589 q 277 549 297 589 q 251 406 257 508 l 407 406 m 319 799 q 185 843 232 799 q 139 946 139 888 q 194 993 139 993 q 236 968 225 993 q 244 953 238 965 q 270 933 251 940 q 321 925 289 925 q 379 936 363 925 q 401 958 396 947 q 407 971 406 968 q 422 987 411 981 q 446 993 432 993 q 501 946 501 993 q 482 876 501 910 q 422 821 463 843 q 319 799 381 799 z "},"ě":{"ha":631,"x_min":47,"x_max":594,"o":"m 361 -11 q 124 83 200 -11 q 47 358 47 176 q 123 651 47 564 q 336 738 199 738 q 533 642 472 738 q 594 364 594 546 q 566 315 594 347 q 524 282 538 282 l 260 282 q 292 181 263 211 q 371 151 321 151 q 426 160 401 151 q 475 180 451 168 q 504 192 499 192 q 535 172 518 192 q 565 126 553 151 q 576 86 576 100 q 539 33 576 54 q 451 0 501 11 q 361 -11 400 -11 m 407 406 q 390 547 407 504 q 335 589 374 589 q 277 549 297 589 q 251 406 257 508 l 407 406 m 315 794 q 267 799 283 794 q 239 821 250 804 l 157 960 q 147 983 147 976 q 176 997 147 997 l 214 997 q 283 971 267 997 l 319 908 l 356 972 q 426 997 369 997 l 465 997 q 493 983 493 997 q 483 960 493 976 l 400 821 q 372 799 389 804 q 324 794 354 794 l 315 794 z "},"ê":{"ha":631,"x_min":47,"x_max":594,"o":"m 361 -11 q 124 83 200 -11 q 47 358 47 176 q 123 651 47 564 q 336 738 199 738 q 533 642 472 738 q 594 364 594 546 q 566 315 594 347 q 524 282 538 282 l 260 282 q 292 181 263 211 q 371 151 321 151 q 426 160 401 151 q 475 180 451 168 q 504 192 499 192 q 535 172 518 192 q 565 126 553 151 q 576 86 576 100 q 539 33 576 54 q 451 0 501 11 q 361 -11 400 -11 m 407 406 q 390 547 407 504 q 335 589 374 589 q 277 549 297 589 q 251 406 257 508 l 407 406 m 176 794 q 147 808 147 794 q 157 832 147 815 l 239 971 q 268 992 250 988 q 318 997 286 997 l 321 997 q 371 992 353 997 q 400 971 389 988 l 483 832 q 493 808 493 815 q 465 794 493 794 l 426 794 q 356 819 369 794 l 319 883 l 283 821 q 214 794 267 794 l 176 794 z "},"ế":{"ha":611,"x_min":47,"x_max":676,"o":"m 454 985 q 422 990 431 985 q 414 1006 414 994 q 423 1033 414 1014 q 449 1083 432 1053 l 492 1168 q 601 1206 511 1206 q 658 1201 640 1206 q 676 1186 676 1197 q 667 1164 676 1178 q 632 1119 657 1150 q 601 1079 619 1103 q 554 1019 582 1056 q 521 994 542 1003 q 454 985 500 985 m 175 794 q 151 797 157 794 q 146 808 146 800 q 153 829 146 815 l 229 971 q 257 992 239 988 q 308 997 275 997 l 311 997 q 363 992 344 997 q 390 971 381 988 l 467 829 q 475 808 475 817 q 447 794 475 794 l 408 794 q 338 819 350 794 l 310 883 l 282 821 q 256 799 274 804 q 213 794 239 794 l 175 794 m 361 -11 q 124 83 200 -11 q 47 358 47 176 q 123 651 47 564 q 336 738 199 738 q 533 642 472 738 q 594 364 594 546 q 566 315 594 347 q 524 282 538 282 l 260 282 q 292 181 263 211 q 371 151 321 151 q 426 160 401 151 q 475 180 451 168 q 504 192 499 192 q 535 172 518 192 q 565 126 553 151 q 576 86 576 100 q 539 33 576 54 q 451 0 501 11 q 361 -11 400 -11 m 407 406 q 390 547 407 504 q 335 589 374 589 q 277 549 297 589 q 251 406 257 508 l 407 406 z "},"ệ":{"ha":631,"x_min":47,"x_max":594,"o":"m 361 -11 q 124 83 200 -11 q 47 358 47 176 q 123 651 47 564 q 336 738 199 738 q 533 642 472 738 q 594 364 594 546 q 566 315 594 347 q 524 282 538 282 l 260 282 q 292 181 263 211 q 371 151 321 151 q 426 160 401 151 q 475 180 451 168 q 504 192 499 192 q 535 172 518 192 q 565 126 553 151 q 576 86 576 100 q 539 33 576 54 q 451 0 501 11 q 361 -11 400 -11 m 407 406 q 390 547 407 504 q 335 589 374 589 q 277 549 297 589 q 251 406 257 508 l 407 406 m 326 -283 q 229 -239 229 -283 l 229 -156 q 322 -111 229 -111 q 419 -156 419 -111 l 419 -239 q 326 -283 419 -283 m 176 794 q 147 808 147 794 q 157 832 147 815 l 239 971 q 268 992 250 988 q 318 997 286 997 l 321 997 q 371 992 353 997 q 400 971 389 988 l 483 832 q 493 808 493 815 q 465 794 493 794 l 426 794 q 356 819 369 794 l 319 883 l 283 821 q 214 794 267 794 l 176 794 z "},"ề":{"ha":611,"x_min":47,"x_max":594,"o":"m 504 985 q 438 994 458 985 q 406 1019 417 1004 l 335 1108 q 294 1161 306 1144 q 282 1186 282 1178 q 300 1201 282 1197 q 357 1206 318 1206 q 468 1168 447 1206 q 525 1057 506 1097 q 544 1006 544 1017 q 536 989 544 993 q 504 985 528 985 m 175 794 q 151 797 157 794 q 146 808 146 800 q 153 829 146 815 l 229 971 q 257 992 239 988 q 308 997 275 997 l 311 997 q 363 992 344 997 q 390 971 381 988 l 467 829 q 475 808 475 817 q 447 794 475 794 l 408 794 q 338 819 350 794 l 310 883 l 282 821 q 256 799 274 804 q 213 794 239 794 l 175 794 m 361 -11 q 124 83 200 -11 q 47 358 47 176 q 123 651 47 564 q 336 738 199 738 q 533 642 472 738 q 594 364 594 546 q 566 315 594 347 q 524 282 538 282 l 260 282 q 292 181 263 211 q 371 151 321 151 q 426 160 401 151 q 475 180 451 168 q 504 192 499 192 q 535 172 518 192 q 565 126 553 151 q 576 86 576 100 q 539 33 576 54 q 451 0 501 11 q 361 -11 400 -11 m 407 406 q 390 547 407 504 q 335 589 374 589 q 277 549 297 589 q 251 406 257 508 l 407 406 z "},"ể":{"ha":611,"x_min":47,"x_max":656,"o":"m 517 978 q 467 990 493 978 q 442 1010 442 1001 q 478 1047 442 1021 q 519 1083 504 1067 q 535 1114 535 1099 q 522 1136 535 1128 q 490 1144 508 1144 q 455 1136 472 1144 q 432 1128 438 1128 q 407 1149 424 1128 q 390 1186 390 1171 q 428 1215 390 1200 q 501 1229 465 1229 q 615 1200 575 1229 q 656 1119 656 1171 q 628 1053 656 1086 q 565 999 600 1021 q 517 978 531 978 m 175 794 q 151 797 157 794 q 146 808 146 800 q 153 829 146 815 l 229 971 q 257 992 239 988 q 308 997 275 997 l 311 997 q 363 992 344 997 q 390 971 381 988 l 467 829 q 475 808 475 817 q 447 794 475 794 l 408 794 q 338 819 350 794 l 310 883 l 282 821 q 256 799 274 804 q 213 794 239 794 l 175 794 m 361 -11 q 124 83 200 -11 q 47 358 47 176 q 123 651 47 564 q 336 738 199 738 q 533 642 472 738 q 594 364 594 546 q 566 315 594 347 q 524 282 538 282 l 260 282 q 292 181 263 211 q 371 151 321 151 q 426 160 401 151 q 475 180 451 168 q 504 192 499 192 q 535 172 518 192 q 565 126 553 151 q 576 86 576 100 q 539 33 576 54 q 451 0 501 11 q 361 -11 400 -11 m 407 406 q 390 547 407 504 q 335 589 374 589 q 277 549 297 589 q 251 406 257 508 l 407 406 z "},"ễ":{"ha":611,"x_min":47,"x_max":594,"o":"m 147 1032 q 125 1047 132 1036 q 118 1068 118 1057 q 122 1090 118 1076 q 166 1159 136 1132 q 236 1186 196 1186 q 319 1164 261 1186 q 349 1153 328 1161 q 383 1146 371 1146 q 415 1168 400 1146 q 450 1192 432 1192 q 468 1189 457 1192 l 481 1185 q 510 1149 510 1175 q 506 1128 510 1144 q 462 1058 492 1086 q 392 1031 432 1031 q 308 1053 367 1031 q 278 1063 300 1056 q 244 1071 257 1071 q 213 1049 228 1071 q 178 1025 196 1025 q 161 1028 172 1025 l 147 1032 m 175 794 q 152 797 158 794 q 146 808 146 800 q 149 822 146 814 q 158 838 153 829 l 229 940 q 258 961 240 956 q 310 967 275 967 l 313 967 q 363 961 346 967 q 392 940 381 956 l 463 838 q 472 822 468 829 q 475 808 475 814 q 447 794 475 794 l 408 794 q 366 800 379 794 q 339 819 353 806 l 311 875 l 281 821 q 253 800 265 806 q 213 794 240 794 l 175 794 m 361 -11 q 124 83 200 -11 q 47 358 47 176 q 123 651 47 564 q 336 738 199 738 q 533 642 472 738 q 594 364 594 546 q 566 315 594 347 q 524 282 538 282 l 260 282 q 292 181 263 211 q 371 151 321 151 q 426 160 401 151 q 475 180 451 168 q 504 192 499 192 q 535 172 518 192 q 565 126 553 151 q 576 86 576 100 q 539 33 576 54 q 451 0 501 11 q 361 -11 400 -11 m 407 406 q 390 547 407 504 q 335 589 374 589 q 277 549 297 589 q 251 406 257 508 l 407 406 z "},"ë":{"ha":631,"x_min":47,"x_max":594,"o":"m 361 -11 q 124 83 200 -11 q 47 358 47 176 q 123 651 47 564 q 336 738 199 738 q 533 642 472 738 q 594 364 594 546 q 566 315 594 347 q 524 282 538 282 l 260 282 q 292 181 263 211 q 371 151 321 151 q 426 160 401 151 q 475 180 451 168 q 504 192 499 192 q 535 172 518 192 q 565 126 553 151 q 576 86 576 100 q 539 33 576 54 q 451 0 501 11 q 361 -11 400 -11 m 407 406 q 390 547 407 504 q 335 589 374 589 q 277 549 297 589 q 251 406 257 508 l 407 406 m 211 803 q 131 847 131 803 l 131 931 q 208 975 131 975 q 289 931 289 975 l 289 847 q 211 803 289 803 m 436 803 q 356 847 356 803 l 356 931 q 433 975 356 975 q 514 931 514 975 l 514 847 q 436 803 514 803 z "},"ė":{"ha":631,"x_min":47,"x_max":594,"o":"m 361 -11 q 124 83 200 -11 q 47 358 47 176 q 123 651 47 564 q 336 738 199 738 q 533 642 472 738 q 594 364 594 546 q 566 315 594 347 q 524 282 538 282 l 260 282 q 292 181 263 211 q 371 151 321 151 q 426 160 401 151 q 475 180 451 168 q 504 192 499 192 q 535 172 518 192 q 565 126 553 151 q 576 86 576 100 q 539 33 576 54 q 451 0 501 11 q 361 -11 400 -11 m 407 406 q 390 547 407 504 q 335 589 374 589 q 277 549 297 589 q 251 406 257 508 l 407 406 m 324 803 q 226 847 226 803 l 226 931 q 319 975 226 975 q 417 931 417 975 l 417 847 q 324 803 417 803 z "},"ẹ":{"ha":631,"x_min":47,"x_max":594,"o":"m 361 -11 q 124 83 200 -11 q 47 358 47 176 q 123 651 47 564 q 336 738 199 738 q 533 642 472 738 q 594 364 594 546 q 566 315 594 347 q 524 282 538 282 l 260 282 q 292 181 263 211 q 371 151 321 151 q 426 160 401 151 q 475 180 451 168 q 504 192 499 192 q 535 172 518 192 q 565 126 553 151 q 576 86 576 100 q 539 33 576 54 q 451 0 501 11 q 361 -11 400 -11 m 407 406 q 390 547 407 504 q 335 589 374 589 q 277 549 297 589 q 251 406 257 508 l 407 406 m 326 -283 q 229 -239 229 -283 l 229 -156 q 322 -111 229 -111 q 419 -156 419 -111 l 419 -239 q 326 -283 419 -283 z "},"è":{"ha":631,"x_min":47,"x_max":594,"o":"m 361 -11 q 124 83 200 -11 q 47 358 47 176 q 123 651 47 564 q 336 738 199 738 q 533 642 472 738 q 594 364 594 546 q 566 315 594 347 q 524 282 538 282 l 260 282 q 292 181 263 211 q 371 151 321 151 q 426 160 401 151 q 475 180 451 168 q 504 192 499 192 q 535 172 518 192 q 565 126 553 151 q 576 86 576 100 q 539 33 576 54 q 451 0 501 11 q 361 -11 400 -11 m 407 406 q 390 547 407 504 q 335 589 374 589 q 277 549 297 589 q 251 406 257 508 l 407 406 m 342 799 q 275 808 296 799 q 243 833 254 818 l 172 922 q 131 975 143 958 q 119 1000 119 992 q 138 1015 119 1011 q 194 1019 156 1019 q 306 982 285 1019 q 363 871 343 911 q 382 819 382 831 q 374 803 382 807 q 342 799 365 799 z "},"ẻ":{"ha":631,"x_min":47,"x_max":594,"o":"m 361 -11 q 124 83 200 -11 q 47 358 47 176 q 123 651 47 564 q 336 738 199 738 q 533 642 472 738 q 594 364 594 546 q 566 315 594 347 q 524 282 538 282 l 260 282 q 292 181 263 211 q 371 151 321 151 q 426 160 401 151 q 475 180 451 168 q 504 192 499 192 q 535 172 518 192 q 565 126 553 151 q 576 86 576 100 q 539 33 576 54 q 451 0 501 11 q 361 -11 400 -11 m 407 406 q 390 547 407 504 q 335 589 374 589 q 277 549 297 589 q 251 406 257 508 l 407 406 m 354 792 q 305 803 331 792 q 279 824 279 815 q 315 861 279 835 q 357 897 342 881 q 372 928 372 913 q 359 950 372 942 q 328 958 346 958 q 292 950 310 958 q 269 942 275 942 q 244 963 261 942 q 228 1000 228 985 q 265 1028 228 1014 q 339 1043 303 1043 q 453 1014 413 1043 q 493 933 493 985 q 465 867 493 900 q 403 813 438 835 q 354 792 368 792 z "},"ē":{"ha":631,"x_min":47,"x_max":594,"o":"m 361 -11 q 124 83 200 -11 q 47 358 47 176 q 123 651 47 564 q 336 738 199 738 q 533 642 472 738 q 594 364 594 546 q 566 315 594 347 q 524 282 538 282 l 260 282 q 292 181 263 211 q 371 151 321 151 q 426 160 401 151 q 475 180 451 168 q 504 192 499 192 q 535 172 518 192 q 565 126 553 151 q 576 86 576 100 q 539 33 576 54 q 451 0 501 11 q 361 -11 400 -11 m 407 406 q 390 547 407 504 q 335 589 374 589 q 277 549 297 589 q 251 406 257 508 l 407 406 m 188 829 q 157 842 167 829 q 147 885 147 856 l 147 906 q 157 948 147 935 q 188 961 167 961 l 453 961 q 484 948 475 961 q 493 906 493 935 l 493 885 q 484 842 493 856 q 453 829 475 829 l 188 829 z "},"ę":{"ha":631,"x_min":47,"x_max":631,"o":"m 589 -139 q 621 -148 611 -139 q 631 -181 631 -157 q 607 -224 631 -210 q 529 -240 571 -240 q 422 -199 450 -240 q 394 -110 394 -157 q 417 -7 394 -61 q 361 -11 386 -11 q 124 83 200 -11 q 47 358 47 176 q 123 651 47 564 q 336 738 199 738 q 533 642 472 738 q 594 364 594 546 q 566 315 594 347 q 524 282 538 282 l 260 282 q 292 181 263 211 q 371 151 321 151 q 426 160 401 151 q 475 180 451 168 q 504 192 499 192 q 535 172 518 192 q 565 126 553 151 q 576 86 576 100 q 511 18 576 47 q 488 -83 488 -33 q 556 -144 488 -144 q 575 -142 567 -144 q 589 -139 583 -139 m 335 589 q 277 549 297 589 q 251 406 257 508 l 407 406 q 390 547 407 504 q 335 589 374 589 z "},"ẽ":{"ha":631,"x_min":47,"x_max":594,"o":"m 361 -11 q 124 83 200 -11 q 47 358 47 176 q 123 651 47 564 q 336 738 199 738 q 533 642 472 738 q 594 364 594 546 q 566 315 594 347 q 524 282 538 282 l 260 282 q 292 181 263 211 q 371 151 321 151 q 426 160 401 151 q 475 180 451 168 q 504 192 499 192 q 535 172 518 192 q 565 126 553 151 q 576 86 576 100 q 539 33 576 54 q 451 0 501 11 q 361 -11 400 -11 m 407 406 q 390 547 407 504 q 335 589 374 589 q 277 549 297 589 q 251 406 257 508 l 407 406 m 125 810 q 93 846 93 818 q 99 868 93 856 q 147 937 114 910 q 224 964 179 964 q 315 942 251 964 q 349 931 325 939 q 385 924 372 924 q 421 946 403 924 q 438 964 429 958 q 458 969 446 969 q 478 967 464 969 l 492 963 q 524 926 524 953 q 519 906 524 922 q 470 836 504 864 q 393 808 436 808 q 303 831 367 808 q 269 841 294 833 q 232 849 244 849 q 197 826 213 849 q 178 808 188 814 q 158 803 169 803 q 140 806 151 803 l 125 810 z "},"f":{"ha":397,"x_min":32,"x_max":421,"o":"m 174 -3 q 90 42 90 -3 l 90 564 l 74 564 q 42 581 51 564 q 32 633 32 597 l 32 657 q 42 710 32 693 q 74 726 51 726 l 90 726 l 90 831 q 286 1056 90 1056 q 376 1039 331 1056 q 421 986 421 1022 q 415 953 421 978 q 400 907 410 928 q 378 886 390 886 q 359 890 374 886 q 339 893 344 893 q 306 879 317 893 q 296 833 296 865 l 296 726 l 342 726 q 374 710 364 726 q 383 657 383 693 l 383 633 q 374 581 383 597 q 342 564 364 564 l 296 564 l 296 42 q 213 -3 296 -3 l 174 -3 z "},"g":{"ha":654,"x_min":49,"x_max":625,"o":"m 314 -294 q 117 -248 185 -294 q 49 -110 49 -201 q 154 54 49 3 l 154 58 q 112 102 126 75 q 97 164 97 129 q 164 282 97 235 q 64 489 64 342 q 133 676 64 614 q 317 738 201 738 q 407 726 360 738 l 588 726 q 616 711 607 726 q 625 664 625 696 l 625 642 q 617 597 625 611 q 593 582 610 582 q 546 588 568 582 l 543 582 q 560 540 554 565 q 567 485 567 514 q 505 312 567 372 q 340 249 443 251 q 274 200 274 246 q 299 160 274 171 q 382 136 324 149 q 433 126 415 131 q 559 66 513 108 q 606 -62 606 24 q 528 -233 606 -171 q 314 -294 450 -294 m 314 383 q 372 407 350 383 q 393 492 393 431 q 314 601 393 601 q 236 492 236 601 q 257 407 236 431 q 314 383 278 383 m 332 -147 q 409 -128 383 -147 q 435 -75 435 -110 q 417 -34 435 -49 q 370 -12 399 -19 q 276 4 342 -6 q 239 -31 253 -10 q 225 -78 225 -53 q 253 -130 225 -112 q 332 -147 282 -147 z "},"ğ":{"ha":654,"x_min":49,"x_max":625,"o":"m 314 -294 q 117 -248 185 -294 q 49 -110 49 -201 q 154 54 49 3 l 154 58 q 112 102 126 75 q 97 164 97 129 q 164 282 97 235 q 64 489 64 342 q 133 676 64 614 q 317 738 201 738 q 407 726 360 738 l 588 726 q 616 711 607 726 q 625 664 625 696 l 625 642 q 617 597 625 611 q 593 582 610 582 q 546 588 568 582 l 543 582 q 560 540 554 565 q 567 485 567 514 q 505 312 567 372 q 340 249 443 251 q 274 200 274 246 q 299 160 274 171 q 382 136 324 149 q 433 126 415 131 q 559 66 513 108 q 606 -62 606 24 q 528 -233 606 -171 q 314 -294 450 -294 m 314 383 q 372 407 350 383 q 393 492 393 431 q 314 601 393 601 q 236 492 236 601 q 257 407 236 431 q 314 383 278 383 m 332 -147 q 409 -128 383 -147 q 435 -75 435 -110 q 417 -34 435 -49 q 370 -12 399 -19 q 276 4 342 -6 q 239 -31 253 -10 q 225 -78 225 -53 q 253 -130 225 -112 q 332 -147 282 -147 m 317 799 q 183 843 229 799 q 136 946 136 888 q 192 993 136 993 q 233 968 222 993 q 242 953 235 965 q 267 933 249 940 q 318 925 286 925 q 376 936 360 925 q 398 958 393 947 q 404 971 403 968 q 419 987 408 981 q 443 993 429 993 q 499 946 499 993 q 479 876 499 910 q 419 821 460 843 q 317 799 378 799 z "},"ĝ":{"ha":654,"x_min":49,"x_max":625,"o":"m 314 -294 q 117 -248 185 -294 q 49 -110 49 -201 q 154 54 49 3 l 154 58 q 112 102 126 75 q 97 164 97 129 q 164 282 97 235 q 64 489 64 342 q 133 676 64 614 q 317 738 201 738 q 407 726 360 738 l 588 726 q 616 711 607 726 q 625 664 625 696 l 625 642 q 617 597 625 611 q 593 582 610 582 q 546 588 568 582 l 543 582 q 560 540 554 565 q 567 485 567 514 q 505 312 567 372 q 340 249 443 251 q 274 200 274 246 q 299 160 274 171 q 382 136 324 149 q 433 126 415 131 q 559 66 513 108 q 606 -62 606 24 q 528 -233 606 -171 q 314 -294 450 -294 m 314 383 q 372 407 350 383 q 393 492 393 431 q 314 601 393 601 q 236 492 236 601 q 257 407 236 431 q 314 383 278 383 m 332 -147 q 409 -128 383 -147 q 435 -75 435 -110 q 417 -34 435 -49 q 370 -12 399 -19 q 276 4 342 -6 q 239 -31 253 -10 q 225 -78 225 -53 q 253 -130 225 -112 q 332 -147 282 -147 m 174 794 q 144 808 144 794 q 154 832 144 815 l 236 971 q 265 992 247 988 q 315 997 283 997 l 318 997 q 368 992 350 997 q 397 971 386 988 l 481 832 q 490 808 490 815 q 463 794 490 794 l 424 794 q 353 819 367 794 l 317 883 l 281 821 q 211 794 264 794 l 174 794 z "},"ģ":{"ha":607,"x_min":49,"x_max":625,"o":"m 338 1061 q 379 1053 360 1061 q 399 1031 399 1046 q 396 1001 399 1026 q 385 860 385 931 q 304 799 385 799 l 276 799 q 214 860 214 799 q 235 951 214 904 q 287 1029 257 997 q 338 1061 317 1061 m 314 -294 q 117 -248 185 -294 q 49 -110 49 -201 q 154 54 49 3 l 154 58 q 112 102 126 75 q 97 164 97 129 q 164 282 97 235 q 64 489 64 342 q 133 676 64 614 q 317 738 201 738 q 407 726 360 738 l 588 726 q 616 711 607 726 q 625 664 625 696 l 625 642 q 617 597 625 611 q 593 582 610 582 q 546 588 568 582 l 543 582 q 560 540 554 565 q 567 485 567 514 q 505 312 567 372 q 340 249 443 251 q 274 200 274 246 q 299 160 274 171 q 382 136 324 149 q 433 126 415 131 q 559 66 513 108 q 606 -62 606 24 q 528 -233 606 -171 q 314 -294 450 -294 m 314 383 q 372 407 350 383 q 393 492 393 431 q 314 601 393 601 q 236 492 236 601 q 257 407 236 431 q 314 383 278 383 m 332 -147 q 409 -128 383 -147 q 435 -75 435 -110 q 417 -34 435 -49 q 370 -12 399 -19 q 276 4 342 -6 q 239 -31 253 -10 q 225 -78 225 -53 q 253 -130 225 -112 q 332 -147 282 -147 z "},"ġ":{"ha":654,"x_min":49,"x_max":625,"o":"m 314 -294 q 117 -248 185 -294 q 49 -110 49 -201 q 154 54 49 3 l 154 58 q 112 102 126 75 q 97 164 97 129 q 164 282 97 235 q 64 489 64 342 q 133 676 64 614 q 317 738 201 738 q 407 726 360 738 l 588 726 q 616 711 607 726 q 625 664 625 696 l 625 642 q 617 597 625 611 q 593 582 610 582 q 546 588 568 582 l 543 582 q 560 540 554 565 q 567 485 567 514 q 505 312 567 372 q 340 249 443 251 q 274 200 274 246 q 299 160 274 171 q 382 136 324 149 q 433 126 415 131 q 559 66 513 108 q 606 -62 606 24 q 528 -233 606 -171 q 314 -294 450 -294 m 314 383 q 372 407 350 383 q 393 492 393 431 q 314 601 393 601 q 236 492 236 601 q 257 407 236 431 q 314 383 278 383 m 332 -147 q 409 -128 383 -147 q 435 -75 435 -110 q 417 -34 435 -49 q 370 -12 399 -19 q 276 4 342 -6 q 239 -31 253 -10 q 225 -78 225 -53 q 253 -130 225 -112 q 332 -147 282 -147 m 321 803 q 224 847 224 803 l 224 931 q 317 975 224 975 q 414 931 414 975 l 414 847 q 321 803 414 803 z "},"h":{"ha":674,"x_min":71,"x_max":610,"o":"m 151 -3 q 71 42 71 -3 l 71 1003 q 151 1047 71 1047 l 199 1047 q 279 1003 279 1047 l 279 643 q 353 711 310 685 q 453 738 397 738 q 569 688 529 738 q 610 544 610 639 l 610 42 q 529 -3 610 -3 l 482 -3 q 401 42 401 -3 l 401 497 q 389 551 401 533 q 347 568 376 568 q 279 524 308 568 l 279 42 q 199 -3 279 -3 l 151 -3 z "},"ħ":{"ha":654,"x_min":-24,"x_max":610,"o":"m 453 738 q 569 688 529 738 q 610 544 610 639 l 610 42 q 529 -3 610 -3 l 482 -3 q 401 42 401 -3 l 401 497 q 389 551 401 533 q 347 568 376 568 q 279 524 308 568 l 279 42 q 199 -3 279 -3 l 151 -3 q 71 42 71 -3 l 71 810 l 26 810 q -24 865 -24 810 l -24 886 q 26 942 -24 942 l 71 942 l 71 1003 q 151 1047 71 1047 l 199 1047 q 279 1003 279 1047 l 279 942 l 353 942 q 390 928 379 942 q 401 886 401 915 l 401 865 q 390 823 401 836 q 353 810 379 810 l 279 810 l 279 643 q 353 711 310 685 q 453 738 397 738 z "},"ĥ":{"ha":674,"x_min":3,"x_max":610,"o":"m 151 -3 q 71 42 71 -3 l 71 1003 q 151 1047 71 1047 l 199 1047 q 279 1003 279 1047 l 279 643 q 353 711 310 685 q 453 738 397 738 q 569 688 529 738 q 610 544 610 639 l 610 42 q 529 -3 610 -3 l 482 -3 q 401 42 401 -3 l 401 497 q 389 551 401 533 q 347 568 376 568 q 279 524 308 568 l 279 42 q 199 -3 279 -3 l 151 -3 m 32 1085 q 3 1099 3 1085 q 13 1122 3 1106 l 94 1261 q 124 1283 106 1278 q 174 1288 142 1288 l 176 1288 q 226 1283 208 1288 q 256 1261 244 1278 l 339 1122 q 349 1099 349 1106 q 321 1085 349 1085 l 282 1085 q 211 1110 225 1085 l 175 1174 l 139 1111 q 69 1085 122 1085 l 32 1085 z "},"ḥ":{"ha":674,"x_min":71,"x_max":610,"o":"m 151 -3 q 71 42 71 -3 l 71 1003 q 151 1047 71 1047 l 199 1047 q 279 1003 279 1047 l 279 643 q 353 711 310 685 q 453 738 397 738 q 569 688 529 738 q 610 544 610 639 l 610 42 q 529 -3 610 -3 l 482 -3 q 401 42 401 -3 l 401 497 q 389 551 401 533 q 347 568 376 568 q 279 524 308 568 l 279 42 q 199 -3 279 -3 l 151 -3 m 343 -283 q 246 -239 246 -283 l 246 -156 q 339 -111 246 -111 q 436 -156 436 -111 l 436 -239 q 343 -283 436 -283 z "},"i":{"ha":353,"x_min":74,"x_max":279,"o":"m 157 -3 q 74 42 74 -3 l 74 685 q 157 729 74 729 l 196 729 q 279 685 279 729 l 279 42 q 196 -3 279 -3 l 157 -3 m 181 803 q 83 847 83 803 l 83 931 q 176 975 83 975 q 274 931 274 975 l 274 847 q 181 803 274 803 z "},"ı":{"ha":353,"x_min":74,"x_max":279,"o":"m 157 -3 q 74 42 74 -3 l 74 685 q 157 729 74 729 l 196 729 q 279 685 279 729 l 279 42 q 196 -3 279 -3 l 157 -3 z "},"í":{"ha":353,"x_min":74,"x_max":371,"o":"m 157 -3 q 74 42 74 -3 l 74 685 q 157 729 74 729 l 196 729 q 279 685 279 729 l 279 42 q 196 -3 279 -3 l 157 -3 m 149 799 q 117 803 125 799 q 108 819 108 808 q 117 847 108 828 q 143 897 126 867 l 186 982 q 296 1019 206 1019 q 353 1015 335 1019 q 371 1000 371 1011 q 361 978 371 992 q 326 933 351 964 q 295 893 314 917 q 249 833 276 869 q 215 808 236 817 q 149 799 194 799 z "},"ĭ":{"ha":353,"x_min":-4,"x_max":358,"o":"m 157 -3 q 74 42 74 -3 l 74 685 q 157 729 74 729 l 196 729 q 279 685 279 729 l 279 42 q 196 -3 279 -3 l 157 -3 m 176 799 q 42 843 89 799 q -4 946 -4 888 q 51 993 -4 993 q 93 968 82 993 q 101 953 94 965 q 127 933 108 940 q 178 925 146 925 q 236 936 219 925 q 258 958 253 947 q 264 971 263 968 q 278 987 268 981 q 303 993 289 993 q 358 946 358 993 q 339 876 358 910 q 278 821 319 843 q 176 799 238 799 z "},"î":{"ha":353,"x_min":4,"x_max":350,"o":"m 157 -3 q 74 42 74 -3 l 74 685 q 157 729 74 729 l 196 729 q 279 685 279 729 l 279 42 q 196 -3 279 -3 l 157 -3 m 33 794 q 4 808 4 794 q 14 832 4 815 l 96 971 q 125 992 107 988 q 175 997 143 997 l 178 997 q 228 992 210 997 q 257 971 246 988 l 340 832 q 350 808 350 815 q 322 794 350 794 l 283 794 q 213 819 226 794 l 176 883 l 140 821 q 71 794 124 794 l 33 794 z "},"ï":{"ha":353,"x_min":-12,"x_max":371,"o":"m 157 -3 q 74 42 74 -3 l 74 685 q 157 729 74 729 l 196 729 q 279 685 279 729 l 279 42 q 196 -3 279 -3 l 157 -3 m 68 803 q -12 847 -12 803 l -12 931 q 65 975 -12 975 q 146 931 146 975 l 146 847 q 68 803 146 803 m 293 803 q 213 847 213 803 l 213 931 q 290 975 213 975 q 371 931 371 975 l 371 847 q 293 803 371 803 z "},"ị":{"ha":353,"x_min":67,"x_max":279,"o":"m 157 -3 q 74 42 74 -3 l 74 685 q 157 729 74 729 l 196 729 q 279 685 279 729 l 279 42 q 196 -3 279 -3 l 157 -3 m 181 803 q 83 847 83 803 l 83 931 q 176 975 83 975 q 274 931 274 975 l 274 847 q 181 803 274 803 m 164 -283 q 67 -239 67 -283 l 67 -156 q 160 -111 67 -111 q 257 -156 257 -111 l 257 -239 q 164 -283 257 -283 z "},"ì":{"ha":353,"x_min":-24,"x_max":279,"o":"m 157 -3 q 74 42 74 -3 l 74 685 q 157 729 74 729 l 196 729 q 279 685 279 729 l 279 42 q 196 -3 279 -3 l 157 -3 m 199 799 q 132 808 153 799 q 100 833 111 818 l 29 922 q -12 975 0 958 q -24 1000 -24 992 q -6 1015 -24 1011 q 51 1019 13 1019 q 163 982 142 1019 q 219 871 200 911 q 239 819 239 831 q 231 803 239 807 q 199 799 222 799 z "},"ỉ":{"ha":353,"x_min":74,"x_max":350,"o":"m 157 -3 q 74 42 74 -3 l 74 685 q 157 729 74 729 l 196 729 q 279 685 279 729 l 279 42 q 196 -3 279 -3 l 157 -3 m 211 792 q 162 803 188 792 q 136 824 136 815 q 172 861 136 835 q 214 897 199 881 q 229 928 229 913 q 216 950 229 942 q 185 958 203 958 q 149 950 167 958 q 126 942 132 942 q 101 963 118 942 q 85 1000 85 985 q 122 1028 85 1014 q 196 1043 160 1043 q 310 1014 269 1043 q 350 933 350 985 q 322 867 350 900 q 260 813 294 835 q 211 792 225 792 z "},"ĳ":{"ha":699,"x_min":74,"x_max":632,"o":"m 157 -3 q 74 42 74 -3 l 74 685 q 157 729 74 729 l 196 729 q 279 685 279 729 l 279 42 q 196 -3 279 -3 l 157 -3 m 181 803 q 83 847 83 803 l 83 931 q 176 975 83 975 q 274 931 274 975 l 274 847 q 181 803 274 803 m 446 -294 q 342 -278 376 -294 q 308 -224 308 -262 q 320 -160 308 -193 q 351 -126 332 -126 q 372 -129 358 -126 q 393 -132 385 -132 q 419 -118 411 -132 q 426 -72 426 -104 l 426 685 q 510 729 426 729 l 549 729 q 632 685 632 729 l 632 -69 q 581 -237 632 -179 q 446 -294 529 -294 m 533 803 q 436 847 436 803 l 436 931 q 529 975 436 975 q 626 931 626 975 l 626 847 q 533 803 626 803 z "},"ī":{"ha":353,"x_min":4,"x_max":350,"o":"m 157 -3 q 74 42 74 -3 l 74 685 q 157 729 74 729 l 196 729 q 279 685 279 729 l 279 42 q 196 -3 279 -3 l 157 -3 m 44 829 q 14 842 24 829 q 4 885 4 856 l 4 906 q 14 948 4 935 q 44 961 24 961 l 310 961 q 341 948 332 961 q 350 906 350 935 l 350 885 q 341 842 350 856 q 310 829 332 829 l 44 829 z "},"į":{"ha":353,"x_min":74,"x_max":388,"o":"m 181 803 q 83 847 83 803 l 83 931 q 176 975 83 975 q 274 931 274 975 l 274 847 q 181 803 274 803 m 346 -143 q 378 -152 368 -143 q 388 -185 388 -161 q 364 -228 388 -214 q 286 -244 329 -244 q 179 -203 207 -244 q 151 -114 151 -161 q 176 -3 151 -60 l 157 -3 q 74 42 74 -3 l 74 685 q 157 729 74 729 l 196 729 q 279 685 279 729 l 279 42 q 268 14 279 25 q 244 -87 244 -37 q 313 -149 244 -149 q 332 -146 324 -149 q 346 -143 340 -143 z "},"ĩ":{"ha":317,"x_min":-32,"x_max":360,"o":"m -3 810 q -25 824 -18 814 q -32 846 -32 835 q -28 868 -32 854 q 16 937 -14 910 q 86 964 46 964 q 169 942 111 964 q 199 931 178 939 q 233 924 221 924 q 265 946 250 924 q 300 969 282 969 q 318 967 307 969 l 331 963 q 360 926 360 953 q 356 906 360 922 q 312 836 342 864 q 242 808 282 808 q 158 831 217 808 q 128 841 150 833 q 94 849 107 849 q 63 826 78 849 q 28 803 46 803 q 11 806 22 803 l -3 810 m 157 -3 q 74 42 74 -3 l 74 685 q 157 729 74 729 l 196 729 q 279 685 279 729 l 279 42 q 196 -3 279 -3 l 157 -3 z "},"j":{"ha":346,"x_min":-44,"x_max":279,"o":"m 93 -294 q -10 -278 24 -294 q -44 -224 -44 -262 q -33 -160 -44 -193 q -1 -126 -21 -126 q 19 -129 6 -126 q 40 -132 32 -132 q 66 -118 58 -132 q 74 -72 74 -104 l 74 685 q 157 729 74 729 l 196 729 q 279 685 279 729 l 279 -69 q 228 -237 279 -179 q 93 -294 176 -294 m 181 803 q 83 847 83 803 l 83 931 q 176 975 83 975 q 274 931 274 975 l 274 847 q 181 803 274 803 z "},"ȷ":{"ha":346,"x_min":-44,"x_max":279,"o":"m 93 -294 q -10 -278 24 -294 q -44 -224 -44 -262 q -33 -160 -44 -193 q -1 -126 -21 -126 q 19 -129 6 -126 q 40 -132 32 -132 q 66 -118 58 -132 q 74 -72 74 -104 l 74 685 q 157 729 74 729 l 196 729 q 279 685 279 729 l 279 -69 q 228 -237 279 -179 q 93 -294 176 -294 z "},"ĵ":{"ha":346,"x_min":-44,"x_max":350,"o":"m 93 -294 q -10 -278 24 -294 q -44 -224 -44 -262 q -33 -160 -44 -193 q -1 -126 -21 -126 q 19 -129 6 -126 q 40 -132 32 -132 q 66 -118 58 -132 q 74 -72 74 -104 l 74 685 q 157 729 74 729 l 196 729 q 279 685 279 729 l 279 -69 q 228 -237 279 -179 q 93 -294 176 -294 m 33 794 q 4 808 4 794 q 14 832 4 815 l 96 971 q 125 992 107 988 q 175 997 143 997 l 178 997 q 228 992 210 997 q 257 971 246 988 l 340 832 q 350 808 350 815 q 322 794 350 794 l 283 794 q 213 819 226 794 l 176 883 l 140 821 q 71 794 124 794 l 33 794 z "},"k":{"ha":628,"x_min":72,"x_max":621,"o":"m 613 47 q 621 19 621 29 q 549 -3 621 -3 l 471 -3 q 434 3 444 -3 q 417 24 424 8 l 293 342 l 278 342 l 278 42 q 197 -3 278 -3 l 153 -3 q 72 42 72 -3 l 72 1003 q 153 1047 72 1047 l 197 1047 q 278 1003 278 1047 l 278 425 l 285 425 l 403 703 q 420 725 411 721 q 457 729 429 729 l 529 729 q 604 706 604 729 q 594 676 604 697 l 464 381 l 613 47 z "},"ķ":{"ha":628,"x_min":72,"x_max":621,"o":"m 613 47 q 621 19 621 29 q 549 -3 621 -3 l 471 -3 q 434 3 444 -3 q 417 24 424 8 l 293 342 l 278 342 l 278 42 q 197 -3 278 -3 l 153 -3 q 72 42 72 -3 l 72 1003 q 153 1047 72 1047 l 197 1047 q 278 1003 278 1047 l 278 425 l 285 425 l 403 703 q 420 725 411 721 q 457 729 429 729 l 529 729 q 604 706 604 729 q 594 676 604 697 l 464 381 l 613 47 m 283 -333 q 242 -326 261 -333 q 222 -303 222 -318 q 225 -274 222 -299 q 236 -132 236 -203 q 317 -71 236 -71 l 344 -71 q 407 -132 407 -71 q 385 -223 407 -176 q 334 -301 364 -269 q 283 -333 304 -333 z "},"ĸ":{"ha":628,"x_min":72,"x_max":621,"o":"m 153 -3 q 72 42 72 -3 l 72 685 q 153 729 72 729 l 197 729 q 278 685 278 729 l 278 453 l 285 453 l 389 703 q 410 724 396 719 q 457 729 425 729 l 522 729 q 597 706 597 729 q 588 676 597 694 l 451 406 l 613 47 q 621 19 621 32 q 549 -3 621 -3 l 475 -3 q 429 3 446 -3 q 407 24 413 8 l 285 342 l 278 342 l 278 42 q 197 -3 278 -3 l 153 -3 z "},"l":{"ha":375,"x_min":69,"x_max":379,"o":"m 249 -11 q 69 200 69 -11 l 69 1003 q 153 1047 69 1047 l 192 1047 q 275 1003 275 1047 l 275 197 q 283 163 275 174 q 308 151 290 151 q 324 154 314 151 q 339 157 333 157 q 368 120 357 157 q 379 54 379 83 q 338 5 379 21 q 249 -11 297 -11 z "},"ĺ":{"ha":375,"x_min":69,"x_max":379,"o":"m 249 -11 q 69 200 69 -11 l 69 1003 q 153 1047 69 1047 l 192 1047 q 275 1003 275 1047 l 275 197 q 283 163 275 174 q 308 151 290 151 q 324 154 314 151 q 339 157 333 157 q 368 120 357 157 q 379 54 379 83 q 338 5 379 21 q 249 -11 297 -11 m 143 1072 q 111 1077 119 1072 q 103 1093 103 1082 q 112 1121 103 1101 q 138 1171 121 1140 l 181 1256 q 290 1293 200 1293 q 347 1289 329 1293 q 365 1274 365 1285 q 356 1251 365 1265 q 321 1207 346 1238 q 290 1167 308 1190 q 243 1107 271 1143 q 210 1081 231 1090 q 143 1072 189 1072 z "},"ľ":{"ha":375,"x_min":69,"x_max":482,"o":"m 249 -11 q 69 200 69 -11 l 69 1003 q 153 1047 69 1047 l 192 1047 q 275 1003 275 1047 l 275 197 q 283 163 275 174 q 308 151 290 151 q 324 154 314 151 q 339 157 333 157 q 368 120 357 157 q 379 54 379 83 q 338 5 379 21 q 249 -11 297 -11 m 374 710 q 331 717 351 710 q 311 740 311 725 q 314 842 311 783 q 317 911 317 892 q 386 972 317 972 l 413 972 q 465 956 447 972 q 482 911 482 939 q 463 822 482 868 q 418 743 444 775 q 374 710 392 711 z "},"ļ":{"ha":375,"x_min":69,"x_max":379,"o":"m 249 -11 q 69 200 69 -11 l 69 1003 q 153 1047 69 1047 l 192 1047 q 275 1003 275 1047 l 275 197 q 283 163 275 174 q 308 151 290 151 q 324 154 314 151 q 339 157 333 157 q 368 120 357 157 q 379 54 379 83 q 338 5 379 21 q 249 -11 297 -11 m 176 -333 q 135 -326 154 -333 q 115 -303 115 -318 q 118 -274 115 -299 q 129 -132 129 -203 q 210 -71 129 -71 l 238 -71 q 300 -132 300 -71 q 278 -223 300 -176 q 227 -301 257 -269 q 176 -333 197 -333 z "},"ŀ":{"ha":429,"x_min":69,"x_max":471,"o":"m 249 -11 q 69 200 69 -11 l 69 1003 q 153 1047 69 1047 l 192 1047 q 275 1003 275 1047 l 275 197 q 283 163 275 174 q 308 151 290 151 q 324 154 314 151 q 339 157 333 157 q 368 120 357 157 q 379 54 379 83 q 338 5 379 21 q 249 -11 297 -11 m 376 401 q 308 427 335 401 q 282 499 282 453 q 308 570 282 544 q 376 596 335 596 q 444 570 418 596 q 471 499 471 544 q 444 427 471 453 q 376 401 418 401 z "},"ǉ":{"ha":721,"x_min":69,"x_max":654,"o":"m 249 -11 q 69 200 69 -11 l 69 1003 q 153 1047 69 1047 l 192 1047 q 275 1003 275 1047 l 275 197 q 283 163 275 174 q 308 151 290 151 q 324 154 314 151 q 339 157 333 157 q 368 120 357 157 q 379 54 379 83 q 338 5 379 21 q 249 -11 297 -11 m 468 -294 q 365 -278 399 -294 q 331 -224 331 -262 q 342 -160 331 -193 q 374 -126 354 -126 q 394 -129 381 -126 q 415 -132 407 -132 q 441 -118 433 -132 q 449 -72 449 -104 l 449 685 q 532 729 449 729 l 571 729 q 654 685 654 729 l 654 -69 q 603 -237 654 -179 q 468 -294 551 -294 m 556 803 q 458 847 458 803 l 458 931 q 551 975 458 975 q 649 931 649 975 l 649 847 q 556 803 649 803 z "},"ł":{"ha":383,"x_min":18,"x_max":388,"o":"m 347 157 q 376 120 365 157 q 388 54 388 83 q 347 5 388 21 q 257 -11 306 -11 q 78 200 78 -11 l 78 444 l 54 431 q 32 422 39 422 q 18 450 18 422 l 18 478 q 54 542 18 519 l 78 556 l 78 1003 q 161 1047 78 1047 l 200 1047 q 283 1003 283 1047 l 283 681 l 324 704 q 344 711 333 711 q 360 683 360 711 l 360 656 q 351 619 360 633 q 324 593 343 604 l 283 569 l 283 197 q 291 163 283 174 q 317 151 299 151 q 332 154 322 151 q 347 157 342 157 z "}}}
